<?xml version="1.0" encoding="iso-8859-1"?>
<!-- Generator: Adobe Illustrator 19.0.0, SVG Export Plug-In . SVG Version: 6.00 Build 0)  -->
<svg version="1.1" id="Layer_1" xmlns="http://www.w3.org/2000/svg" xmlns:xlink="http://www.w3.org/1999/xlink" x="0px" y="0px"
	 viewBox="0 0 512 512" style="enable-background:new 0 0 512 512;" xml:space="preserve">
<path style="fill:#998675;" d="M416.088,504.124H95.93V264.006c0-22.102,17.917-40.021,40.021-40.021l0,0
	c22.102,0,40.021-17.918,40.021-40.021l-0.001-88.043h160.08v88.044c0,22.102,17.917,40.02,40.02,40.02l0,0
	c22.102,0,40.02,17.917,40.02,40.02v240.119H416.088z"/>
<rect x="183.968" y="360.057" style="fill:#BDCCD4;" width="144.069" height="88.043"/>
<rect x="175.973" y="95.924" style="fill:#7FCDEE;" width="160.079" height="24.012"/>
<rect x="175.973" y="95.924" style="fill:#29ABE2;" width="64.029" height="24.012"/>
<polyline style="fill:#FFFFFF;" points="327.875,392.915 350.956,392.915 350.956,440.126 327.875,440.126 "/>
<g>
	<rect x="175.973" y="336.042" style="fill:#29ABE2;" width="160.079" height="24.012"/>
	<rect x="183.968" y="424.087" style="fill:#29ABE2;" width="144.069" height="24.012"/>
</g>
<path style="fill:#AD9E91;" d="M416.088,504.124h-48.024V223.985h8.724c21.705,0,39.3,17.595,39.3,39.3V504.124z"/>
<path style="fill:#736558;" d="M95.93,504.124h48.024V223.985H133.23c-20.6,0-37.3,16.7-37.3,37.3
	C95.93,261.286,95.93,504.124,95.93,504.124z"/>
<rect x="95.934" y="480.111" style="fill:#7FCDEE;" width="320.157" height="24.012"/>
<rect x="95.934" y="480.111" style="fill:#29ABE2;" width="272.138" height="24.012"/>
<rect x="95.934" y="480.111" style="fill:#0C6D95;" width="48.024" height="24.012"/>
<path d="M343.916,367.922H168.1v-39.75h175.816V367.922z M183.838,352.185h144.341v-8.276H183.838V352.185z"/>
<rect x="208.276" y="415.998" width="95.472" height="15.737"/>
<rect x="127.492" y="471.603" width="16.786" height="15.737"/>
<rect x="152.672" y="471.603" width="14.688" height="15.737"/>
<rect x="175.753" y="471.603" width="15.737" height="15.737"/>
<rect x="199.883" y="471.603" width="16.786" height="15.737"/>
<rect x="225.063" y="471.603" width="14.688" height="15.737"/>
<rect x="248.144" y="471.603" width="15.737" height="15.737"/>
<rect x="272.274" y="471.603" width="14.688" height="15.737"/>
<rect x="295.356" y="471.603" width="16.786" height="15.737"/>
<rect x="320.535" y="471.603" width="15.737" height="15.737"/>
<rect x="344.665" y="471.603" width="14.688" height="15.737"/>
<rect x="367.747" y="471.603" width="16.786" height="15.737"/>
<rect x="199.883" y="111.746" width="16.786" height="15.737"/>
<rect x="225.063" y="111.746" width="14.688" height="15.737"/>
<rect x="248.144" y="111.746" width="15.737" height="15.737"/>
<rect x="272.274" y="111.746" width="14.688" height="15.737"/>
<rect x="295.356" y="111.746" width="16.786" height="15.737"/>
<g>
	<rect x="431.745" y="8.927" style="fill:#29ABE2;" width="25.18" height="15.737"/>
	<rect x="55.101" y="7.878" style="fill:#29ABE2;" width="25.18" height="15.737"/>
</g>
<path d="M335.219,376.128h-15.737v39.868h-7.344v15.737h7.344v9.442H191.486v-9.442h8.393v-15.737h-8.393v-39.868h-15.737v80.784
	h159.47v-8.393H358.3v-62.949h-23.081V376.128z M342.563,401.308v31.474h-7.344v-31.474H342.563z"/>
<path d="M432.096,71.876h-8.004c-13.306,0-23.995-10.851-23.995-24.19s10.66-24.19,24.299-24.19V7.758
	c-22.032,0-40.036,17.911-40.036,39.927s17.749,39.927,39.732,39.927h8.004c35.382,0,64.167,28.945,64.167,64.522
	s-28.785,64.522-64.167,64.522l-56.028-0.541c-17.727,0-32.151-14.423-32.151-32.152l-0.001-95.913
	c0-48.473-38.79-88.043-87.383-88.043c-48.594,0-88.433,39.571-88.433,88.043v95.912c0,8.588-3.345,16.663-9.417,22.735
	c-6.072,6.074-14.147,9.418-22.735,9.418c-0.023,0-0.045,0.002-0.068,0.002v-0.002l-55.994,0.541
	c-35.382,0-64.133-28.945-64.133-64.522s28.785-64.522,64.168-64.522h8.004c21.983,0,39.732-17.911,39.732-39.927
	S109.653,7.759,87.62,7.759v15.737c13.639,0,24.299,10.851,24.299,24.19s-10.689,24.189-23.994,24.189h-8.004
	C35.862,71.876,0,107.881,0,152.136s35.828,80.26,79.887,80.26l20.303-0.196c-7.538,8.464-12.13,19.606-12.13,31.806v247.987
	h335.897V264.005c0-12.198-4.592-23.34-12.129-31.805l20.268,0.196c44.059,0,79.904-36.004,79.904-80.26
	S476.155,71.876,432.096,71.876z M184.142,87.917c0-39.795,32.474-72.171,72.391-72.171c39.917,0,72.391,32.376,72.391,72.171v0.135
	H184.142L184.142,87.917L184.142,87.917z M103.798,496.255v-8.918h15.298v-15.737h-15.298V264.006
	c0-17.728,14.424-32.152,32.152-32.152c12.791,0,24.818-4.981,33.862-14.027c9.046-9.045,14.027-21.071,14.026-33.862v-56.484h7.648
	v-15.737h-7.648v-7.954H328.18v7.954h-7.648v15.737h7.648l0.001,56.485c0,26.406,21.482,47.889,47.888,47.889
	c17.728,0,32.152,14.423,32.152,32.151v207.596h-15.298v15.737h15.298v8.918H103.798V496.255z"/>
<g>
</g>
<g>
</g>
<g>
</g>
<g>
</g>
<g>
</g>
<g>
</g>
<g>
</g>
<g>
</g>
<g>
</g>
<g>
</g>
<g>
</g>
<g>
</g>
<g>
</g>
<g>
</g>
<g>
</g>
</svg>
