<?xml version="1.0" encoding="iso-8859-1"?>
<!-- Generator: Adobe Illustrator 19.0.0, SVG Export Plug-In . SVG Version: 6.00 Build 0)  -->
<svg version="1.1" id="Layer_1" xmlns="http://www.w3.org/2000/svg" xmlns:xlink="http://www.w3.org/1999/xlink" x="0px" y="0px"
	 viewBox="0 0 512.001 512.001" style="enable-background:new 0 0 512.001 512.001;" xml:space="preserve">
<path style="fill:#39B54A;" d="M375.695,432.307c0,0-46.209,31.919-63.837,31.919c-17.628,0-31.919-14.29-31.919-31.919
	c0-17.628,14.29-31.919,31.919-31.919C329.486,400.388,375.695,432.307,375.695,432.307z"/>
<path style="fill:#D9E021;" d="M311.858,400.388c-8.61,0-16.389,3.446-22.131,8.987c18.528,9.441,38.09,22.932,38.09,22.932
	s-19.563,13.49-38.09,22.932c5.741,5.541,13.521,8.987,22.131,8.987c17.629,0,63.837-31.919,63.837-31.919
	S329.487,400.388,311.858,400.388z"/>
<path style="fill:#39B54A;" d="M232.061,376.449v103.735c0,13.221,10.717,23.939,23.939,23.939l0,0
	c13.221,0,23.939-10.717,23.939-23.939V376.449"/>
<path style="fill:#006837;" d="M247.599,480.185V376.478h-15.753v103.707c0,13.221,10.826,23.939,24.047,23.939
	c2.814,0,5.315-0.574,7.823-1.466C254.438,499.36,247.599,490.593,247.599,480.185z"/>
<path style="fill:#39B54A;" d="M335.797,105.14L335.797,105.14c0-44.071-79.797-95.756-79.797-95.756l0,0
	c0,0-79.797,51.686-79.797,95.756l0,0v31.919h159.594L335.797,105.14L335.797,105.14z"/>
<polygon style="fill:#D9E021;" points="335.797,121.099 311.858,121.099 311.858,65.242 335.797,89.181 "/>
<path style="fill:#006837;" d="M200.34,129.08c0-44.071,79.698-95.756,79.698-95.756s16.246,10.568,34.104,26.201
	c-23.63-27.815-58.127-50.139-58.127-50.139s-79.83,51.685-79.83,95.756v31.891h24.155V129.08z"/>
<path style="fill:#39B54A;" d="M367.715,216.856v-95.757h-39.898c-17.628,0-31.919,14.29-31.919,31.919l0,0v87.776h71.817V216.856z"
	/>
<rect x="343.775" y="121.099" style="fill:#D9E021;" width="23.939" height="111.71"/>
<path style="fill:#006837;" d="M144.285,232.815V121.099h79.797c52.884,0,95.756,42.872,95.756,95.756l0,0v39.898H144.285V232.815z"
	/>
<path style="fill:#39B54A;" d="M224.082,121.277h-39.898c52.885,0,95.972,42.694,95.972,95.578v39.898h39.908v-39.898
	C320.063,163.971,276.966,121.277,224.082,121.277z"/>
<path style="fill:#006837;" d="M256.001,264.734L256.001,264.734c0-17.628-14.29-31.919-31.919-31.919H112.366
	c0,79.327,64.307,143.634,143.634,143.634s143.634-64.307,143.634-143.634h-55.857c-74.92,0-135.654,60.734-135.654,135.654l0,0"/>
<path style="fill:#39B54A;" d="M256.001,376.449c79.327,0,143.634-64.307,143.634-143.634h-55.857
	c-74.92,0-135.654,60.734-135.654,135.654l0,0"/>
<path style="fill:#D9E021;" d="M359.736,232.599c0,70.364-50.981,129.286-118.11,141.346l14.375,2.342
	c79.326,0,143.634-63.873,143.634-143.688H359.736z"/>
<path d="M256.001,384.325c-83.543,0-151.511-67.967-151.511-151.51v-7.877h119.592c17.109,0,31.73,10.853,37.343,26.035
	c23.326-16.397,51.736-26.035,82.352-26.035h63.735v7.877C407.511,316.358,339.544,384.325,256.001,384.325z M216.132,362.601
	c12.611,3.881,26.002,5.973,39.869,5.973c72.212,0,131.435-56.678,135.532-127.881h-47.756
	C275.284,240.692,219.207,294.854,216.132,362.601z M120.468,240.692c2.979,51.799,35.14,95.916,80.247,116.11
	c3.042-37.647,20.672-71.231,47.219-95.088c-1.49-11.837-11.619-21.022-23.853-21.022H120.468z"/>
<path d="M327.818,113.223c-16.566,0-30.794,10.178-36.776,24.606c-18.074-15.338-41.453-24.606-66.96-24.606h-87.673v103.632h15.753
	v-87.879h71.92c48.457,0,87.879,39.423,87.879,87.879h15.753c0-25.077-8.955-48.101-23.832-66.045
	c1.12-12.225,11.424-21.834,23.936-21.834h32.022v87.879h15.753V113.223H327.818z"/>
<path d="M168.327,105.14c0-20.564,14.275-44.179,42.429-70.19c20.213-18.674,40.124-31.634,40.961-32.177L256.001,0l4.282,2.774
	c0.838,0.543,20.749,13.504,40.961,32.177c28.155,26.01,42.429,49.625,42.429,70.19H327.92c0-30.627-48.433-70.181-71.917-86.284
	c-23.482,16.118-71.922,55.699-71.922,86.284H168.327z"/>
<g>
	<path style="fill:#FFFFFF;" d="M264.402,352.407v-15.753c9.452,0,19.593-1.832,28.843-5.445l5.836,14.675
		C287.996,350.212,275.954,352.407,264.402,352.407z"/>
	<path style="fill:#FFFFFF;" d="M307.466,341.971l-7.171-14.026c26.885-13.744,43.586-41.023,43.586-71.191h15.753
		C359.633,292.868,339.643,325.521,307.466,341.971z"/>
	<rect x="168.831" y="161.186" style="fill:#FFFFFF;" width="15.753" height="55.661"/>
	<path style="fill:#FFFFFF;" d="M303.775,97.234l-15.753-0.148c0.251-26.711-34.471-40.308-34.822-40.442l5.585-14.729
		c0.457,0.172,11.311,4.327,22.152,12.864C296.027,66.661,303.925,81.342,303.775,97.234z"/>
</g>
<path d="M407.511,232.815v-7.877h-63.735c-30.616,0-59.026,9.637-82.352,26.035c-5.613-15.182-20.234-26.035-37.343-26.035H104.489
	v7.877c0,72.632,51.377,133.481,119.695,148.139v99.231c0,17.544,14.272,31.816,31.815,31.816c17.544,0,31.816-14.272,31.816-31.816
	v-16.193c6.685,5.084,15.015,8.111,24.042,8.111c19.115,0,60.26-27.751,68.314-33.315l9.383-6.481l-9.383-6.481
	c-8.054-5.563-49.199-33.315-68.314-33.315c-9.027,0-17.358,3.026-24.042,8.111v-19.668
	C356.135,366.296,407.511,305.447,407.511,232.815z M120.468,240.692h103.613c12.234,0,22.363,9.186,23.853,21.022
	c-26.548,23.855-44.177,57.44-47.219,95.088C155.608,336.608,123.448,292.491,120.468,240.692z M343.777,240.692h47.756
	c-4.096,71.203-63.32,127.881-135.532,127.881c-13.867,0-27.258-2.091-39.869-5.973
	C219.207,294.854,275.284,240.692,343.777,240.692z M311.858,408.265c8.757,0,31.618,12.526,49.599,24.042
	c-17.981,11.517-40.843,24.042-49.599,24.042c-10.366,0-19.22-6.594-22.589-15.809h22.393v-15.753h-22.634
	C292.192,415.203,301.228,408.265,311.858,408.265z M272.063,407.983h-16.063v15.753h16.063v56.448
	c0,8.857-7.205,16.063-16.063,16.063s-16.062-7.205-16.062-16.063v-8.138h16.062v-15.753h-16.062v-72.819
	c5.279,0.559,10.638,0.852,16.062,0.852c5.425,0,10.784-0.293,16.063-0.852V407.983z"/>
<g>
</g>
<g>
</g>
<g>
</g>
<g>
</g>
<g>
</g>
<g>
</g>
<g>
</g>
<g>
</g>
<g>
</g>
<g>
</g>
<g>
</g>
<g>
</g>
<g>
</g>
<g>
</g>
<g>
</g>
</svg>
