<?xml version="1.0" encoding="iso-8859-1"?>
<!-- Generator: Adobe Illustrator 19.0.0, SVG Export Plug-In . SVG Version: 6.00 Build 0)  -->
<svg version="1.1" id="Layer_1" xmlns="http://www.w3.org/2000/svg" xmlns:xlink="http://www.w3.org/1999/xlink" x="0px" y="0px"
	 viewBox="0 0 512 512" style="enable-background:new 0 0 512 512;" xml:space="preserve">
<path style="fill:#A67C52;" d="M465.523,352.049H46.477c-21.321,0-38.606-17.284-38.606-38.606v-28.292
	c0-69.147,56.055-125.202,125.202-125.202h245.855c69.147,0,125.202,56.055,125.202,125.202v28.292
	C504.129,334.765,486.844,352.049,465.523,352.049z"/>
<g>
	<rect x="167.95" y="163.092" style="fill:#8C6239;" width="24.013" height="108.92"/>
	<rect x="264.005" y="163.092" style="fill:#8C6239;" width="24.013" height="108.92"/>
	<rect x="344.044" y="163.092" style="fill:#8C6239;" width="24.013" height="108.92"/>
</g>
<path style="fill:#C69C6D;" d="M379.992,159.418h-48.025c68.559,0,124.533,56.11,124.533,124.669v31.141
	c0,20.336-16.883,37.285-37.219,37.285h48.025c20.336,0,36.418-16.949,36.418-37.285v-31.141
	C503.725,215.527,448.551,159.418,379.992,159.418z"/>
<path style="fill:#8C6239;" d="M111.925,272.008v-90.346c20.817-14.007,45.781-22.244,72.038-22.244h-48.025
	c-15.922,0-31.325,3.03-45.596,8.536h-2.429v0.969C41.977,187.723,8.395,232.358,8.395,284.086v31.141
	c0,20.336,19.891,37.285,40.228,37.285h48.025c-20.337,0-41.028-16.948-41.028-37.285v-31.141c0-31.176,12.364-59.775,32.293-81.698
	v69.619h24.012V272.008z"/>
<g>
	<path style="fill:#603813;" d="M223.984,159.95v72.038c0,17.682-14.334,32.017-32.017,32.017l0,0V159.951"/>
	<path style="fill:#603813;" d="M320.033,159.95v72.038c0,17.682-14.334,32.017-32.017,32.017l0,0V159.951"/>
	<path style="fill:#603813;" d="M400.074,159.95v72.038c0,17.682-14.334,32.017-32.017,32.017l0,0V159.951"/>
	<path style="fill:#603813;" d="M143.942,159.95v72.038c0,17.682-14.334,32.017-32.017,32.017l0,0V159.951"/>
</g>
<rect x="39.878" y="311.586" width="152.167" height="15.741"/>
<rect x="415.573" y="311.586" width="56.669" height="15.741"/>
<rect x="367.3" y="311.586" width="32.532" height="15.741"/>
<path d="M381.566,152.079H130.434C58.512,152.079,0,210.592,0,282.512v29.201c0,26.582,21.626,48.208,48.207,48.208h415.587
	c26.581,0,48.207-21.626,48.207-48.208v-29.201C512,210.592,453.487,152.079,381.566,152.079z M496.259,311.585h-15.621v15.741
	h11.61c-5.528,10.036-16.209,16.853-28.454,16.853H48.207c-12.245,0-22.926-6.817-28.454-16.853h11.731v-15.741H15.741v-29.072
	c0-63.242,51.45-114.692,114.693-114.692h5.638v64.167c0,10.559-6.814,19.558-16.276,22.829v-78.858h-15.741v95.917h7.871
	c21.994,0,39.888-17.894,39.888-39.888V167.82h64.299v64.167c0,10.559-6.814,19.558-16.276,22.829v-78.858h-15.741v95.917h7.871
	c21.994,0,39.888-17.894,39.888-39.888V167.82h80.308v64.167c0,10.559-6.814,19.558-16.276,22.829v-78.858h-15.741v95.917h7.871
	c21.994,0,39.888-17.894,39.888-39.888V167.82h53.661c3.587,0,7.134,0.174,10.638,0.497v63.669c0,10.559-6.814,19.558-16.276,22.829
	v-78.858h-15.741v95.917h7.871c21.994,0,39.888-17.894,39.888-39.888v-61.1c50.568,11.949,88.312,57.459,88.312,111.626v29.072
	H496.259z"/>
<g>
</g>
<g>
</g>
<g>
</g>
<g>
</g>
<g>
</g>
<g>
</g>
<g>
</g>
<g>
</g>
<g>
</g>
<g>
</g>
<g>
</g>
<g>
</g>
<g>
</g>
<g>
</g>
<g>
</g>
</svg>
