<?xml version="1.0" encoding="iso-8859-1"?>
<!-- Generator: Adobe Illustrator 19.0.0, SVG Export Plug-In . SVG Version: 6.00 Build 0)  -->
<svg version="1.1" id="Layer_1" xmlns="http://www.w3.org/2000/svg" xmlns:xlink="http://www.w3.org/1999/xlink" x="0px" y="0px"
	 viewBox="0 0 512.001 512.001" style="enable-background:new 0 0 512.001 512.001;" xml:space="preserve">
<g>
	<polygon style="fill:#39B54A;" points="120.476,383.276 216.574,455.158 216.574,503.589 311.197,503.589 311.197,383.276 
		367.462,335.353 335.337,303.405 311.197,327.366 311.197,279.443 280.708,287.431 280.708,336.421 263.988,336.421 
		248.268,279.979 216.574,255.483 216.574,391.262 152.551,367.301 	"/>
	<polygon style="fill:#39B54A;" points="120.476,383.276 216.574,455.158 216.574,503.589 311.197,503.589 311.197,383.276 
		367.462,335.353 335.337,303.405 311.197,327.366 311.197,279.443 280.708,287.431 280.708,336.421 263.988,336.421 
		248.268,279.979 216.574,255.483 216.574,391.262 152.551,367.301 	"/>
</g>
<g>
	<polygon style="fill:#D9E021;" points="311.91,503.08 295.936,503.08 295.936,279.443 311.91,279.443 311.91,327.366 
		343.858,303.405 367.819,335.353 311.91,383.276 	"/>
	<polygon style="fill:#D9E021;" points="216.218,391.262 232.345,399.249 232.345,414.223 216.065,414.223 144.182,374.788 
		160.233,367.051 	"/>
	<polygon style="fill:#D9E021;" points="232.04,271.678 240.027,343.781 272.297,343.781 272.297,336.421 263.988,336.421 
		248.013,280.089 	"/>
</g>
<path style="fill:#009245;" d="M167.101,288.237c0.639-2.838,1.042-5.763,1.042-8.793c0-19.57-14.099-35.782-32.68-39.203
	c-3.421-18.58-19.633-32.68-39.203-32.68c-16.464,0-30.584,9.973-36.694,24.2c-28.652,2.414-51.164,26.394-51.164,55.67
	c0,19.625,10.131,36.858,25.428,46.833c-0.862,2.895-1.468,5.9-1.468,9.075c0,17.644,14.304,31.948,31.948,31.948
	c5.809,0,11.181-1.669,15.875-4.378c8.494,7.661,19.708,12.365,32.047,12.365c20.959,0,38.728-13.476,45.236-32.218
	c0.9,0.076,1.765,0.27,2.686,0.27c17.645,0,31.948-14.304,31.948-31.948C192.105,304.126,181.397,291.414,167.101,288.237z"/>
<path style="fill:#39B54A;" d="M59.567,295.658c6.11-14.227,20.229-24.2,36.694-24.2c19.57,0,35.782,14.099,39.203,32.68
	c18.58,3.421,32.68,19.633,32.68,39.203c0,2.433-0.309,4.782-0.742,7.088c14.141-3.292,24.703-15.907,24.703-31.049
	c0-15.253-10.707-27.964-25.004-31.143c0.639-2.838,1.042-5.763,1.042-8.793c0-19.57-14.099-35.782-32.68-39.203
	c-3.421-18.58-19.633-32.68-39.203-32.68c-16.464,0-30.584,9.973-36.694,24.2c-28.652,2.414-51.164,26.394-51.164,55.67
	c0,11.898,3.767,22.887,10.11,31.943C27.769,306.152,42.564,297.09,59.567,295.658z"/>
<path style="fill:#D9E021;" d="M51.58,255.722c6.11-14.227,20.229-24.2,36.694-24.2c19.57,0,35.782,14.099,39.203,32.68
	c18.58,3.421,32.68,19.633,32.68,39.203c0,3.031-0.403,5.955-1.042,8.793c13.42,2.983,23.556,14.401,24.764,28.401
	c5.059-5.652,8.226-13.037,8.226-21.22c0-15.253-10.707-27.964-25.004-31.143c0.639-2.838,1.042-5.763,1.042-8.793
	c0-19.57-14.099-35.782-32.68-39.203c-3.421-18.58-19.633-32.68-39.203-32.68c-16.464,0-30.584,9.973-36.694,24.2
	c-26.939,2.269-48.441,23.608-50.915,50.486C17.703,267.495,33.392,257.254,51.58,255.722z"/>
<path style="fill:#39B54A;" d="M503.598,290.794c0-15.589-7.77-29.309-19.589-37.685c0.656-2.758,1.092-5.597,1.092-8.556
	c0-20.43-16.562-36.992-36.992-36.992c-17.58,0-32.227,12.292-35.99,28.73c-3.325-0.622-6.743-0.985-10.25-0.985
	c-30.645,0-55.489,24.843-55.489,55.489c0,30.645,24.843,55.489,55.489,55.489c0,20.43,16.562,36.992,36.992,36.992
	c20.43,0,36.992-16.562,36.992-36.992c0-4.347-0.888-8.458-2.266-12.333C491.088,327.361,503.598,310.598,503.598,290.794z"/>
<path style="fill:#009245;" d="M503.598,290.794c0-15.589-7.77-29.309-19.589-37.685c0.656-2.758,1.092-5.597,1.092-8.556
	c0-20.43-16.562-36.992-36.992-36.992c-17.58,0-32.227,12.292-35.99,28.73c-3.325-0.622-6.743-0.985-10.25-0.985
	c-30.645,0-55.489,24.843-55.489,55.489c0,30.645,24.843,55.489,55.489,55.489c0,20.43,16.562,36.992,36.992,36.992
	c20.43,0,36.992-16.562,36.992-36.992c0-4.347-0.888-8.458-2.266-12.333C491.088,327.361,503.598,310.598,503.598,290.794z"/>
<path style="fill:#39B54A;" d="M393.882,283.227c3.506,0,6.924,0.363,10.25,0.985c3.764-16.437,18.41-28.729,35.99-28.729
	c20.43,0,36.992,16.562,36.992,36.992c0,2.959-0.436,5.797-1.093,8.555c7.072,5.012,12.646,11.962,16.021,20.056
	c7.139-8.096,11.556-18.633,11.556-30.293c0-15.589-7.77-29.308-19.589-37.685c0.656-2.758,1.093-5.598,1.093-8.555
	c0-20.43-16.562-36.992-36.992-36.992c-17.579,0-32.226,12.292-35.99,28.729c-3.327-0.622-6.743-0.985-10.25-0.985
	c-30.646,0-55.489,24.843-55.489,55.488c0,5.492,0.826,10.787,2.313,15.797C358.752,292.468,375.223,283.227,393.882,283.227z"/>
<path style="fill:#D9E021;" d="M393.882,251.279c3.506,0,6.924,0.363,10.25,0.985c3.764-16.437,18.41-28.729,35.99-28.729
	c20.43,0,36.992,16.562,36.992,36.992c0,2.959-0.436,5.797-1.093,8.555c11.82,8.376,19.589,22.097,19.589,37.685
	c0,4.208-0.674,8.235-1.731,12.1c6.038-7.772,9.718-17.452,9.718-28.075c0-15.589-7.77-29.308-19.589-37.685
	c0.656-2.758,1.093-5.597,1.093-8.555c0-20.43-16.562-36.992-36.992-36.992c-17.579,0-32.226,12.292-35.99,28.729
	c-3.327-0.622-6.743-0.985-10.25-0.985c-24.958,0-46.06,16.48-53.036,39.15C358.904,260.44,375.306,251.279,393.882,251.279z"/>
<path style="fill:#009245;" d="M366.577,80.131c0.729-2.678,1.242-5.441,1.242-8.349c0-17.645-14.304-31.948-31.948-31.948
	c-9.52,0-17.973,4.248-23.826,10.854c-11.788-6.86-25.448-10.854-40.07-10.854c0-17.645-14.304-31.948-31.948-31.948
	s-31.948,14.304-31.948,31.948c0,0.77,0.172,1.49,0.226,2.246c-9.104-6.425-20.185-10.233-32.174-10.233
	c-30.878,0-55.909,25.031-55.909,55.909c0,10.41,2.897,20.12,7.851,28.466c-9.436,5.553-15.838,15.703-15.838,27.443
	c0,17.644,14.304,31.948,31.948,31.948c0,44.111,35.759,79.87,79.87,79.87c1.324,0,2.613-0.131,3.921-0.195
	c7.779,18.859,26.327,32.144,47.995,32.144c28.672,0,51.916-23.244,51.916-51.916c0-0.81-0.084-1.597-0.121-2.396
	c10.122-5.824,17.908-15.216,21.635-26.483c3.403,0.56,6.872,0.925,10.434,0.925c35.289,0,63.896-28.608,63.896-63.896
	C423.728,110.656,398.693,83.502,366.577,80.131z"/>
<path style="fill:#39B54A;" d="M192.105,215.548c-17.645,0-31.948-14.304-31.948-31.948c0-11.741,6.402-21.891,15.838-27.443
	c-4.955-8.346-7.851-18.056-7.851-28.466c0-30.878,25.032-55.909,55.909-55.909c11.99,0,23.071,3.808,32.174,10.233
	c-0.054-0.756-0.226-1.476-0.226-2.246c0-17.645,14.304-31.948,31.948-31.948c17.645,0,31.948,14.304,31.948,31.948
	c14.621,0,28.282,3.994,40.07,10.854c3.772-4.258,8.699-7.373,14.221-9.166c-2.492-0.573-5.018-1.053-7.611-1.326
	c0.729-2.678,1.242-5.441,1.242-8.349c0-17.645-14.304-31.948-31.948-31.948c-9.52,0-17.973,4.248-23.826,10.854
	c-11.788-6.86-25.448-10.854-40.07-10.854c0-17.645-14.304-31.948-31.948-31.948s-31.948,14.304-31.948,31.948
	c0,0.77,0.172,1.49,0.226,2.246c-9.104-6.425-20.185-10.233-32.174-10.233c-30.878,0-55.909,25.031-55.909,55.909
	c0,10.41,2.897,20.12,7.851,28.466c-9.436,5.553-15.838,15.703-15.838,27.443c0,17.644,14.304,31.948,31.948,31.948
	c0,36.091,23.951,66.562,56.817,76.459C195.35,241.118,192.105,228.721,192.105,215.548z"/>
<path style="fill:#D9E021;" d="M168.144,55.808c11.99,0,23.071,3.808,32.174,10.233c-0.054-0.756-0.226-1.476-0.226-2.246
	c0-17.645,14.304-31.948,31.948-31.948s31.948,14.304,31.948,31.948c14.621,0,28.282,3.994,40.07,10.854
	c5.853-6.607,14.305-10.854,23.826-10.854c17.645,0,31.948,14.304,31.948,31.948c0,2.908-0.514,5.671-1.242,8.349
	c32.117,3.371,57.151,30.524,57.151,63.534c0,2.65-0.212,5.247-0.526,7.814c5.386-9.366,8.513-20.195,8.513-31.774
	c0-33.009-25.034-60.162-57.151-63.534c0.729-2.678,1.242-5.441,1.242-8.349c0-17.645-14.304-31.948-31.948-31.948
	c-9.52,0-17.973,4.248-23.826,10.854c-11.788-6.86-25.448-10.854-40.07-10.854c0-17.645-14.304-31.948-31.948-31.948
	s-31.948,14.304-31.948,31.948c0,0.77,0.172,1.49,0.226,2.246c-9.104-6.425-20.185-10.233-32.174-10.233
	c-29.137,0-53.043,22.294-55.649,50.753C130.308,66.552,147.948,55.808,168.144,55.808z"/>
<g>
	<path style="fill:#FFFFFF;" d="M176.029,104.069h-15.771c0-22.079,17.415-40.173,39.494-40.173v15.771
		C187.136,79.666,176.029,90.401,176.029,104.069z"/>
	<path style="fill:#FFFFFF;" d="M255.475,247.395v-15.771c17.873,0,32.576-14.006,32.576-31.88h15.771
		C303.821,226.028,282.81,247.395,255.475,247.395z"/>
	<path style="fill:#FFFFFF;" d="M375.704,135.61h-15.771c0-8.411-7.733-16.008-16.144-16.008v-15.771
		C361.663,103.831,375.704,117.737,375.704,135.61z"/>
</g>
<rect x="232.343" y="31.524" width="14.719" height="15.771"/>
<rect x="247.062" y="56.757" width="16.822" height="15.771"/>
<rect x="216.572" y="79.887" width="15.771" height="15.771"/>
<rect x="288.065" y="129.297" width="15.771" height="15.771"/>
<rect x="328.017" y="65.168" width="16.822" height="15.771"/>
<rect x="359.558" y="159.787" width="15.771" height="15.771"/>
<rect x="319.606" y="168.198" width="16.822" height="15.771"/>
<rect x="319.606" y="199.739" width="16.822" height="15.771"/>
<rect x="295.425" y="88.298" width="15.771" height="15.771"/>
<rect x="263.884" y="95.654" width="16.822" height="15.771"/>
<rect x="208.161" y="120.886" width="16.822" height="15.771"/>
<rect x="160.849" y="129.297" width="14.719" height="15.771"/>
<rect x="199.75" y="168.198" width="16.822" height="15.771"/>
<rect x="168.209" y="183.969" width="15.771" height="15.771"/>
<rect x="168.209" y="48.346" width="15.771" height="15.771"/>
<rect x="208.161" y="208.15" width="16.822" height="15.771"/>
<rect x="255.473" y="176.609" width="16.822" height="15.771"/>
<rect x="247.062" y="135.606" width="16.822" height="15.771"/>
<rect x="232.343" y="423.681" width="31.541" height="15.771"/>
<rect x="455.233" y="287.003" width="16.822" height="15.771"/>
<rect x="432.103" y="320.647" width="15.771" height="15.771"/>
<rect x="423.692" y="264.924" width="15.771" height="15.771"/>
<path style="fill:#FFFFFF;" d="M383.691,287.007h-15.771c0-16.822,14.77-31.422,31.592-31.422v15.771
	C391.101,271.355,383.691,278.596,383.691,287.007z"/>
<rect x="399.51" y="295.414" width="15.771" height="15.771"/>
<rect x="80.948" y="239.691" width="15.771" height="15.771"/>
<rect x="119.846" y="272.284" width="16.822" height="15.771"/>
<rect x="111.435" y="320.647" width="16.822" height="15.771"/>
<path style="fill:#FFFFFF;" d="M48.236,287.007H32.466c0-12.616,10.632-23.436,24.3-23.436v15.771
	C51.509,279.342,48.236,282.802,48.236,287.007z"/>
<rect x="64.126" y="329.058" width="16.822" height="15.771"/>
<rect x="80.948" y="287.003" width="15.771" height="15.771"/>
<path d="M511.483,290.794c0-15.741-6.964-30.698-18.854-40.941c0.24-1.816,0.357-3.573,0.357-5.3
	c0-24.746-20.132-44.878-44.878-44.878c-18.564,0-34.742,11.181-41.506,27.934c-1.598-0.126-3.178-0.189-4.735-0.189
	c-34.944,0-63.374,28.43-63.374,63.374c0,1.963,0.094,3.904,0.269,5.821l-20.207,15.048v-34.23
	c10.222-10.385,16.7-24.466,17.182-40.04c8.11-5.633,14.558-13.28,18.719-22.178c1.843,0.155,3.626,0.231,5.374,0.231
	c39.58,0,71.781-32.2,71.781-71.781c0-34.024-23.534-62.793-55.96-70.027c0.034-0.621,0.05-1.239,0.05-1.856
	c0-21.964-17.869-39.833-39.833-39.833c-9.176,0-18.054,3.255-25.141,9.087c-9.908-4.897-20.64-7.881-31.595-8.79
	C275.582,13.897,259.396,0,240.027,0c-18.314,0-33.78,12.422-38.416,29.284c-7.99-3.504-16.623-5.323-25.481-5.323
	c-35.177,0-63.794,28.618-63.794,63.794c0,8.981,1.927,17.869,5.615,26.066c-8.625,7.485-13.603,18.201-13.603,29.844
	c0,19.367,13.893,35.55,32.237,39.107c3.223,39.735,33.041,72.051,71.577,79.131v117.98l-47.067-17.656
	c0.556-1.011,1.088-2.041,1.584-3.093c20.793-1.306,37.309-18.638,37.309-39.754c0-15.971-9.785-30.336-24.094-36.54
	c0.089-1.141,0.134-2.271,0.134-3.395c0-21.269-14.033-39.738-34.038-45.73c-5.992-20.004-24.46-34.038-45.73-34.038
	c-17.565,0-33.54,9.584-41.889,24.773c-14.135,2.214-27.11,9.114-36.919,19.719C6.532,255.974,0.518,271.338,0.518,287.431
	c0,19.742,9.043,38.114,24.446,50.177c-0.326,1.969-0.486,3.87-0.486,5.733c0,21.964,17.869,39.833,39.833,39.833
	c5.089,0,10.05-0.994,14.807-2.96c9.578,7.093,21.149,10.947,33.115,10.947c1.693,0,3.371-0.086,5.034-0.237l90.894,68.177v52.9
	h110.394V386.927l49.907-42.312c7.761,4.834,16.631,8.049,26.141,9.14c3.567,21.203,22.055,37.407,44.255,37.407
	c24.746,0,44.878-20.132,44.878-44.878c0-2.646-0.257-5.284-0.779-7.957C500.272,328.983,511.483,310.687,511.483,290.794z
	 M152.441,175.612v-7.41h-8.258c-10.666,0-19.729-7.132-22.875-16.822h15.363V135.61h-15.078c1.886-5.179,5.513-9.67,10.479-12.593
	l6.821-4.015l-4.04-6.807c-4.414-7.433-6.747-15.884-6.747-24.44c0-5.322,0.883-10.439,2.489-15.227h13.434V56.757h-4.539
	c8.816-10.404,21.964-17.026,36.638-17.026c9.926,0,19.478,3.04,27.626,8.789l13.593,9.595l-1.191-16.599
	c-0.035-0.482-0.106-0.956-0.171-1.429c-0.017-0.117-0.06-0.232-0.073-0.35c0.053-13.223,10.777-23.967,24.013-23.967
	c13.268,0,23.961,10.794,23.961,24.063v7.462h8.088c12.62,0,25.105,3.596,36.104,9.996l5.585,3.461l4.284-4.836
	c4.684-5.287,11.049-8.199,17.924-8.199c13.268,0,24.063,10.794,24.063,24.063c0,1.862-0.307,3.857-0.965,6.28l-2.433,8.944
	l9.219,0.967c3.295,0.346,6.491,0.983,9.577,1.862v14.234h16.822v-6.214c8.236,5.804,14.789,13.765,18.896,23.036h-3.126v15.771
	h7.474c0.285,2.297,0.445,4.632,0.445,7.003c0,18.852-9.371,35.546-23.689,45.702v-5.394h-16.822v13.504
	c-4.926,1.421-10.122,2.198-15.499,2.198c-2.805,0-5.799-0.268-9.154-0.82l-6.65-1.094l-2.116,6.399
	c-3.088,9.336-9.51,17.194-18.08,22.125l-4.167,2.397l0.222,4.802c0.016,0.344,0.039,0.687,0.062,1.029
	c0.022,0.332,0.05,0.666,0.05,1.004c0,13.712-6.303,25.977-16.161,34.059v-4.646h-15.771v12.913
	c-3.847,1.102-7.903,1.704-12.099,1.704c-17.896,0-33.874-10.702-40.706-27.265l-2.122-5.142l-5.508,0.272
	c-0.488,0.024-0.926,0.056-1.412,0.088c-0.752,0.05-1.368,0.098-1.982,0.098C184.546,247.597,152.441,215.306,152.441,175.612z
	 M272.297,295.198v33.864h-2.321l-10.008-35.911C263.946,294.25,268.073,294.943,272.297,295.198z M104.078,359.551v14.981
	c-6.864-1.44-13.287-4.678-18.609-9.478l-4.258-3.84l-4.966,2.866c-3.818,2.204-7.833,3.321-11.933,3.321
	c-13.268,0-24.063-10.794-24.063-24.063c0-2.047,0.362-4.216,1.139-6.823l1.68-5.641l-4.93-3.216
	c-13.683-8.923-21.851-23.962-21.851-40.229c0-24.736,19.301-45.737,43.94-47.812l4.716-0.397l1.867-4.348
	c5.068-11.802,16.626-19.427,29.448-19.427c15.425,0,28.651,11.028,31.45,26.221l0.984,5.343l5.343,0.984
	c15.194,2.798,26.222,16.024,26.222,31.45c0,2.215-0.278,4.524-0.85,7.059l-1.739,7.715l7.72,1.716
	c10.91,2.426,18.829,12.285,18.829,23.444c0,1.135-0.085,2.251-0.238,3.345v-2.073H168.21v15.771h8.92
	c-4.35,4.336-10.34,7.02-16.938,7.021c-0.219-0.01-0.431-0.049-0.644-0.079c-0.469-0.064-0.939-0.124-1.416-0.165l-6.103-0.515
	l-2.009,5.786c-4.74,13.65-16.376,23.5-30.173,26.183v-15.102h-15.768V359.551z M332.037,354.823l-4.659-13.977l-14.961,4.987
	l6.659,19.979l-16.289,13.81v67.659c-9.392,0-22.621-0.008-22.82-0.008l-0.011,15.771c0.794,0,13.326,0.008,22.511,0.008
	c0.107,0,0.212,0,0.319,0v33.178h-78.853v-9.462h15.771v-15.771h-15.771v-19.782l-25.233-18.927v-25.425H182.93v13.596
	L136.457,385.6c5.406-2.616,10.362-6.084,14.667-10.273l72.812,27.314v-27.32h15.771V359.55h-15.771v-94.577
	c4.325,7.664,10.205,14.149,17.142,19.136l7.84,28.129h-9.211v15.771h13.607L258,344.831h30.068v-50.753
	c5.183-1.069,10.117-2.82,14.719-5.14v54.13l39.874-29.694c3.031,7.921,7.61,15.079,13.363,21.111L332.037,354.823z M470.818,326.57
	l-7.237,2.728l2.611,7.293c1.219,3.425,1.844,6.595,1.844,9.69c0,5.643-1.611,10.912-4.391,15.377v-10.519h-15.771v15.771h11.601
	c-5.248,5.236-12.484,8.478-20.479,8.478c-11.688,0-21.71-6.927-26.298-16.889h2.583V342.73h-5.257v-4.205h-8.158
	c-13.256,0-25.258-5.467-33.897-14.256V312.24h-8.62c-3.246-6.439-5.087-13.7-5.087-21.383c0-26.249,21.355-47.667,47.604-47.667
	c2.862,0,5.74,0.279,8.8,0.851l7.446,1.393l1.691-7.384c3.048-13.309,14.688-22.604,28.305-22.604c2.765,0,5.439,0.395,7.975,1.12
	h-0.85v15.771h16.822v-4.302c3.25,4.696,5.16,10.388,5.16,16.519c0,2.041-0.287,4.243-0.879,6.732l-1.23,5.179l4.343,3.078
	c2.242,1.589,4.272,3.405,6.095,5.386h-6.131v15.771h14.907c0.904,3.259,1.393,6.649,1.393,10.095
	C495.717,306.585,485.713,320.962,470.818,326.57z"/>
<g>
</g>
<g>
</g>
<g>
</g>
<g>
</g>
<g>
</g>
<g>
</g>
<g>
</g>
<g>
</g>
<g>
</g>
<g>
</g>
<g>
</g>
<g>
</g>
<g>
</g>
<g>
</g>
<g>
</g>
</svg>
