<?xml version="1.0" encoding="iso-8859-1"?>
<!-- Generator: Adobe Illustrator 19.0.0, SVG Export Plug-In . SVG Version: 6.00 Build 0)  -->
<svg version="1.1" id="Layer_1" xmlns="http://www.w3.org/2000/svg" xmlns:xlink="http://www.w3.org/1999/xlink" x="0px" y="0px"
	 viewBox="0 0 512.001 512.001" style="enable-background:new 0 0 512.001 512.001;" xml:space="preserve">
<path style="fill:#39B54A;" d="M255.999,64.015c0-30.941,25.083-56.025,56.025-56.025c30.941,0,56.025,25.083,56.025,56.025
	c0,17.681-14.334,32.014-32.014,32.014s-32.014-14.334-32.014-32.014c0-13.261-10.75-24.01-24.01-24.01
	C266.75,40.004,255.999,50.755,255.999,64.015z"/>
<path style="fill:#8CC63F;" d="M312.024,7.991c-2.725,0-5.382,0.261-8.003,0.636c27.139,3.893,48.021,27.171,48.021,55.388
	c0,14.9-10.226,27.312-24.01,30.882c2.572,0.666,5.223,1.132,8.003,1.132c17.681,0,32.013-14.334,32.013-32.014
	C368.048,33.074,342.965,7.991,312.024,7.991z"/>
<path style="fill:#39B54A;" d="M255.999,64.015c0-30.941-25.083-56.025-56.025-56.025S143.95,33.073,143.95,64.015
	c0,17.681,14.334,32.014,32.014,32.014s32.014-14.334,32.014-32.014c0-13.261,10.75-24.01,24.01-24.01
	C245.25,40.004,255.999,50.755,255.999,64.015z"/>
<path style="fill:#006837;" d="M199.976,7.991c2.725,0,5.382,0.261,8.003,0.636c-27.139,3.893-48.021,27.171-48.021,55.388
	c0,14.9,10.226,27.312,24.01,30.882c-2.572,0.666-5.223,1.132-8.003,1.132c-17.681,0-32.014-14.334-32.014-32.014
	C143.951,33.074,169.034,7.991,199.976,7.991z"/>
<path style="fill:#F7931E;" d="M191.971,192.071c0-35.362,28.666-64.028,64.028-64.028s64.028,28.666,64.028,64.028l-48.021,296.128
	c0,8.84-7.167,16.007-16.007,16.007s-16.007-7.167-16.007-16.007L191.971,192.071z"/>
<path style="fill:#F15A24;" d="M255.999,488.199l-48.021-296.128c0-32.645,24.449-59.528,56.025-63.475
	c-2.627-0.328-5.287-0.553-8.003-0.553c-35.362,0-64.028,28.666-64.028,64.028l48.021,296.128c0,8.84,7.167,16.007,16.007,16.007
	c2.931,0,5.641-0.845,8.003-2.22C259.239,499.213,255.999,494.109,255.999,488.199z"/>
<path style="fill:#FBB03B;" d="M255.999,128.043c-2.717,0-5.376,0.224-8.003,0.553c31.576,3.946,56.025,30.83,56.025,63.475
	l-48.021,296.128c0,5.91-3.239,11.014-8.003,13.787c2.362,1.375,5.073,2.22,8.003,2.22c8.84,0,16.007-7.167,16.007-16.007
	l48.021-296.128C320.028,156.709,291.362,128.043,255.999,128.043z"/>
<rect x="256.5" y="376.442" width="15.589" height="15.589"/>
<rect x="232.597" y="279.791" width="16.628" height="15.589"/>
<path d="M312.024,0c-24.136,0-45.181,13.797-56.025,33.53C245.157,13.797,224.111,0,199.976,0
	c-35.189,0-63.819,28.825-63.819,64.015c0,21.95,17.859,39.808,39.809,39.808s39.808-17.955,39.808-39.906
	c0-8.942,7.275-16.314,16.216-16.314c8.796,0,15.963,7.459,16.195,15.617v57.459c-35.999,3.896-64.434,34.421-64.434,71.392v0.628
	l48.245,296.189c0.366,12.808,11.112,23.113,24.006,23.113c12.894,0,23.619-10.306,23.984-23.113l48.223-296.189v-0.628
	c0-36.97-28.435-67.496-64.434-71.392V63.623h0.022c0-8.314,7.275-16.02,16.216-16.02c8.942,0,16.217,7.47,16.217,16.412
	c0,21.95,17.858,39.808,39.808,39.808c21.95,0,39.809-17.955,39.809-39.906C375.843,28.727,347.214,0,312.024,0z M200.185,64.015
	c0,13.355-10.864,24.219-24.219,24.219c-13.355,0-24.22-10.864-24.22-24.219c0-26.594,21.635-48.23,48.23-48.23
	c7.489,0,14.579,1.726,20.909,4.786c-0.737-0.015-1.479-0.018-2.233,0.006c-14.471,0.442-28.121,7.953-40.574,22.328l11.783,10.207
	c8.553-9.873,17.404-15.466,26.348-16.693C206.645,41.909,200.185,52.219,200.185,64.015z M311.448,184.177h-16.497v15.589h15.707
	l-2.878,17.667h-75.185v15.589h72.646l-13.037,80.023h-28.431v15.589h25.891l-18.285,112.241h-14.882v15.589h12.342l-5.067,31.106
	v0.628c0,4.528-3.266,8.212-7.794,8.212c-4.366,0-7.548-3.426-7.773-7.73h8.292v-15.589h-10.671l-8.123-49.885h18.794v-15.589
	h-21.334l-7.615-46.767h44.537v-15.589h-47.076l-13.2-81.063h29.097v-15.589h-31.635l-7.953-48.845h22.96v-15.589h-23.75
	c0.824-5.88,2.542-11.475,5.033-16.628h50.934v-15.589h-39.774c10.1-9.966,23.949-16.123,39.264-16.123
	C284.316,135.837,307.625,156.897,311.448,184.177z M336.034,88.235c-13.355,0-24.219-10.864-24.219-24.219
	c0-11.797-6.46-22.106-16.024-27.597c8.945,1.226,17.795,6.82,26.348,16.693l11.783-10.207
	c-12.452-14.375-26.103-21.887-40.574-22.328c-0.755-0.023-1.498-0.021-2.234-0.006c6.33-3.06,13.421-4.786,20.91-4.786
	c26.594,0,48.23,21.635,48.23,48.23C360.254,77.37,349.389,88.235,336.034,88.235z"/>
<g>
</g>
<g>
</g>
<g>
</g>
<g>
</g>
<g>
</g>
<g>
</g>
<g>
</g>
<g>
</g>
<g>
</g>
<g>
</g>
<g>
</g>
<g>
</g>
<g>
</g>
<g>
</g>
<g>
</g>
</svg>
