<?xml version="1.0" encoding="iso-8859-1"?>
<!-- Generator: Adobe Illustrator 19.0.0, SVG Export Plug-In . SVG Version: 6.00 Build 0)  -->
<svg version="1.1" id="Layer_1" xmlns="http://www.w3.org/2000/svg" xmlns:xlink="http://www.w3.org/1999/xlink" x="0px" y="0px"
	 viewBox="0 0 512 512" style="enable-background:new 0 0 512 512;" xml:space="preserve">
<g>
	<rect x="284.735" y="497.267" style="fill:#FBB03B;" width="110.759" height="14.733"/>
	<path style="fill:#FBB03B;" d="M340.152,376.137L340.152,376.137L340.152,376.137c-36.789-73.579-55.942-154.712-55.942-236.975
		v-18.761h111.885v18.761C396.095,221.425,376.942,302.559,340.152,376.137z"/>
</g>
<path style="fill:#FDD089;" d="M364.147,120.163v18.999c0,69.233-13.74,137.607-39.968,201.41
	c4.936,12.007,9.851,23.91,15.679,35.565c36.789-73.579,55.637-154.711,55.637-236.975v-19H364.147z"/>
<path style="fill:#FBB03B;" d="M180.318,376.137L180.318,376.137L180.318,376.137c-36.789-73.579-55.942-154.712-55.942-236.975
	v-18.761h111.885v18.761C236.26,221.425,217.107,302.559,180.318,376.137z"/>
<path style="fill:#FDD089;" d="M204.278,120.163v18.999c0,69.233-13.724,137.607-39.951,201.41
	c4.936,12.007,10.365,23.91,16.192,35.565c36.789-73.58,56.151-154.712,56.151-236.976v-18.999H204.278z"/>
<g>
	<rect x="187.559" y="111.804" style="fill:#F7931E;" width="16.718" height="15.673"/>
	<rect x="316.082" y="111.804" style="fill:#F7931E;" width="15.673" height="15.673"/>
	<rect x="148.898" y="145.241" style="fill:#F7931E;" width="15.673" height="15.673"/>
	<rect x="171.886" y="168.229" style="fill:#F7931E;" width="15.673" height="15.673"/>
	<rect x="187.559" y="224.653" style="fill:#F7931E;" width="16.718" height="15.673"/>
	<rect x="132.18" y="216.294" style="fill:#F7931E;" width="16.718" height="15.673"/>
	<rect x="164.571" y="248.686" style="fill:#F7931E;" width="15.673" height="15.673"/>
	<rect x="187.559" y="272.718" style="fill:#F7931E;" width="16.718" height="15.673"/>
	<rect x="156.212" y="304.065" style="fill:#F7931E;" width="15.673" height="15.673"/>
	<rect x="180.245" y="319.739" style="fill:#F7931E;" width="15.673" height="15.673"/>
</g>
<polygon style="fill:#FBB03B;" points="300.408,16.718 284.735,16.718 284.735,0 269.061,0 269.061,16.718 252.343,16.718 
	252.343,32.392 269.061,32.392 269.061,48.065 284.735,48.065 284.735,32.392 300.408,32.392 "/>
<polygon style="fill:#FDD089;" points="475.951,200.62 460.278,200.62 460.278,183.902 444.604,183.902 444.604,200.62 
	427.886,200.62 427.886,216.294 444.604,216.294 444.604,231.967 460.278,231.967 460.278,216.294 475.951,216.294 "/>
<polygon style="fill:#FBB03B;" points="276.375,296.751 259.657,296.751 259.657,281.078 243.984,281.078 243.984,296.751 
	228.31,296.751 228.31,312.424 243.984,312.424 243.984,328.098 259.657,328.098 259.657,312.424 276.375,312.424 "/>
<g>
	<polygon style="fill:#FDD089;" points="100.833,88.816 85.159,88.816 85.159,73.143 69.486,73.143 69.486,88.816 51.722,88.816 
		51.722,104.49 69.486,104.49 69.486,120.163 85.159,120.163 85.159,104.49 100.833,104.49 	"/>
	<rect x="204.278" y="9.404" style="fill:#FDD089;" width="16.718" height="15.673"/>
</g>
<rect x="300.408" y="88.816" style="fill:#F7931E;" width="15.673" height="15.673"/>
<g>
	<rect x="252.343" y="129.567" style="fill:#FDD089;" width="15.673" height="15.673"/>
	<rect x="276.375" y="224.653" style="fill:#FDD089;" width="15.673" height="15.673"/>
</g>
<g>
	<rect x="92.473" y="32.392" style="fill:#F7931E;" width="15.673" height="15.673"/>
	<rect x="164.571" y="32.392" style="fill:#F7931E;" width="15.673" height="15.673"/>
</g>
<rect x="36.049" y="152.555" style="fill:#FDD089;" width="15.673" height="15.673"/>
<g>
	<rect x="92.473" y="176.588" style="fill:#F7931E;" width="15.673" height="15.673"/>
	<rect x="348.473" y="145.241" style="fill:#F7931E;" width="15.673" height="15.673"/>
	<rect x="372.506" y="160.914" style="fill:#F7931E;" width="22.988" height="15.673"/>
	<rect x="324.441" y="183.902" style="fill:#F7931E;" width="15.673" height="15.673"/>
	<rect x="340.114" y="231.967" style="fill:#F7931E;" width="16.718" height="15.673"/>
	<rect x="307.722" y="256" style="fill:#F7931E;" width="16.718" height="15.673"/>
	<rect x="300.408" y="152.555" style="fill:#F7931E;" width="15.673" height="15.673"/>
	<rect x="348.473" y="288.392" style="fill:#F7931E;" width="15.673" height="15.673"/>
	<rect x="420.571" y="152.555" style="fill:#F7931E;" width="15.673" height="15.673"/>
</g>
<rect x="460.278" y="88.816" style="fill:#FDD089;" width="15.673" height="15.673"/>
<rect x="395.494" y="25.078" style="fill:#F7931E;" width="16.718" height="15.673"/>
<rect x="348.473" y="1.045" style="fill:#FDD089;" width="15.673" height="15.673"/>
<rect x="324.441" y="40.751" style="fill:#F7931E;" width="15.673" height="15.673"/>
<path d="M403.931,139.163V64.614H276.373v74.548c0,82.419,19.345,164.942,55.942,238.793l-0.008,102.941v0.062
	c-0.183,14.332-13.034,15.368-16.994,15.368h-30.578V512h30.578c10.235,0,18.827-3.701,24.628-9.987
	c5.605,6.323,14.002,9.987,24.186,9.987h31.367v-15.673h-31.367c-4.853,0-16.176-2.09-16.176-15.673l0.038-102.696
	C384.586,304.107,403.931,221.582,403.931,139.163z M340.153,358.042c-31.514-68.328-48.106-143.648-48.106-218.88v-11.684h15.676
	v-15.673h-15.676V80.288h96.211v31.516h-48.144v15.673h48.144v11.685C388.258,214.394,371.666,289.715,340.153,358.042z"/>
<rect x="124.865" y="497.267" style="fill:#FBB03B;" width="110.759" height="14.733"/>
<path d="M244.062,139.163V64.614H116.504v74.548c0,82.419,19.345,164.942,55.942,238.793l-0.038,102.698
	c0,14.629-12.977,15.673-16.965,15.673h-30.578V512h30.578c10.235,0,18.827-3.701,24.628-9.987
	c5.605,6.323,14.002,9.987,24.186,9.987h31.367v-15.673h-31.367c-4.853,0-16.176-2.09-16.176-15.673l0.038-102.696
	C224.717,304.107,244.062,221.582,244.062,139.163z M180.284,358.042c-31.514-68.328-48.106-143.648-48.106-218.88v-11.684h48.067
	v-15.673h-48.067V80.288h96.211v31.516h-15.752v15.673h15.752v11.685C228.389,214.394,211.797,289.715,180.284,358.042z"/>
<g>
</g>
<g>
</g>
<g>
</g>
<g>
</g>
<g>
</g>
<g>
</g>
<g>
</g>
<g>
</g>
<g>
</g>
<g>
</g>
<g>
</g>
<g>
</g>
<g>
</g>
<g>
</g>
<g>
</g>
</svg>
