<?xml version="1.0" encoding="iso-8859-1"?>
<!-- Generator: Adobe Illustrator 19.0.0, SVG Export Plug-In . SVG Version: 6.00 Build 0)  -->
<svg version="1.1" id="Layer_1" xmlns="http://www.w3.org/2000/svg" xmlns:xlink="http://www.w3.org/1999/xlink" x="0px" y="0px"
	 viewBox="0 0 512 512" style="enable-background:new 0 0 512 512;" xml:space="preserve">
<path style="fill:#BDCCD4;" d="M307.636,7.845H163.664v311.698h184.09V48.187C347.754,25.906,329.917,7.845,307.636,7.845z
	 M299.986,71.836c-8.835,0-15.998-7.163-15.998-15.998s7.163-15.998,15.998-15.998s15.998,7.162,15.998,15.998
	C315.984,64.673,308.821,71.836,299.986,71.836z"/>
<rect x="164.009" y="15.846" style="fill:#6B7E87;" width="39.998" height="303.958"/>
<path style="fill:#CAD6DD;" d="M307.636,7.845h-30.984c22.28,0,38.677,18.062,38.677,40.342v271.356h32.425V48.187
	C347.754,25.906,329.917,7.845,307.636,7.845z"/>
<rect x="259.893" y="319.804" style="fill:#736357;" width="95.946" height="23.997"/>
<rect x="299.985" y="343.798" style="fill:#C7B299;" width="47.993" height="159.98"/>
<rect x="299.985" y="343.798" style="fill:#998675;" width="23.997" height="159.98"/>
<path d="M299.986,79.681c-13.146,0-23.842-10.696-23.842-23.843c0-13.146,10.696-23.842,23.842-23.842
	c13.147,0,23.843,10.696,23.843,23.842C323.828,68.985,313.133,79.681,299.986,79.681z M299.986,47.686
	c-4.496,0-8.152,3.657-8.152,8.152s3.657,8.153,8.152,8.153c4.496,0,8.153-3.658,8.153-8.153S304.48,47.686,299.986,47.686z"/>
<rect x="308.007" y="191.935" style="fill:#FFFFFF;" width="15.689" height="103.551"/>
<polygon points="355.647,512 292.318,512 292.318,359.289 308.007,359.289 308.007,496.311 339.974,496.311 340.126,351.967 
	259.893,351.967 259.893,336.278 355.832,336.278 "/>
<rect x="315.329" y="472.253" width="16.735" height="15.689"/>
<rect x="315.329" y="448.196" width="16.735" height="15.689"/>
<rect x="315.329" y="424.139" width="16.735" height="15.689"/>
<path d="M308.345,0H156.161v327.646h199.664V47.48C355.824,21.299,334.525,0,308.345,0z M340.134,311.956h-80.241v-8.103h-15.689
	v8.103h-8.368v-16.471h-15.689v16.471h-8.368V88.384h-15.689v223.572h-24.24V15.689h24.24v24.58h15.689v-24.58h96.566
	c17.529,0,31.79,14.261,31.79,31.79V311.956z"/>
<rect x="196.089" y="47.591" width="15.689" height="32.425"/>
<g>
</g>
<g>
</g>
<g>
</g>
<g>
</g>
<g>
</g>
<g>
</g>
<g>
</g>
<g>
</g>
<g>
</g>
<g>
</g>
<g>
</g>
<g>
</g>
<g>
</g>
<g>
</g>
<g>
</g>
</svg>
