<?xml version="1.0" encoding="iso-8859-1"?>
<!-- Generator: Adobe Illustrator 19.0.0, SVG Export Plug-In . SVG Version: 6.00 Build 0)  -->
<svg version="1.1" id="Layer_1" xmlns="http://www.w3.org/2000/svg" xmlns:xlink="http://www.w3.org/1999/xlink" x="0px" y="0px"
	 viewBox="0 0 512 512" style="enable-background:new 0 0 512 512;" xml:space="preserve">
<rect x="112.39" y="80.098" style="fill:#A67C52;" width="287.22" height="24.488"/>
<polyline style="fill:#6B7E87;" points="136.325,47.87 136.325,8.325 160.053,8.325 200.16,48.086 "/>
<rect x="104.085" y="48.12" style="fill:#FBB03B;" width="303.828" height="31.982"/>
<polygon style="fill:#BDCCD4;" points="367.937,503.862 144.062,503.862 128.07,104.085 383.929,104.085 "/>
<polygon style="fill:#D7E0E5;" points="359.942,104.065 343.951,503.675 367.937,503.675 383.929,104.065 "/>
<polygon style="fill:#6B7E87;" points="152.057,104.065 168.048,503.675 144.062,503.675 128.07,104.065 "/>
<rect x="144.067" y="479.875" style="fill:#FBB03B;" width="223.875" height="23.987"/>
<rect x="120.08" y="232.013" style="fill:#C69C6D;" width="271.849" height="119.935"/>
<rect x="120.08" y="232.013" style="fill:#A67C52;" width="223.875" height="119.935"/>
<rect x="120.08" y="232.013" style="fill:#8C6239;" width="47.974" height="119.935"/>
<g>
	<rect x="120.08" y="327.961" style="fill:#FBB03B;" width="271.849" height="23.987"/>
	<rect x="120.08" y="232.013" style="fill:#FBB03B;" width="271.849" height="23.987"/>
</g>
<path d="M203.431,40.311L163.296,0h-35.297v40.311h-31.72v47.591h319.441V40.311H203.431z M143.609,15.61h13.202l24.594,24.701
	h-37.795V15.61z M400.11,72.293H111.889V55.92h288.222v16.373H400.11z"/>
<path d="M399.729,224.208h-12.794l4.473-111.818h8.201V96.78H112.39v15.61h8.202l4.473,111.818H112.27v135.543h18.206L136.563,512
	h238.874l6.084-152.249h18.209V224.208H399.729z M375.785,112.39l-4.473,111.818H140.687l-4.473-111.818H375.785z M361.394,472.455
	h-193.85v15.61h193.227l-0.333,8.325H151.561l-5.462-136.639h219.799L361.394,472.455z M384.119,248.715H368.39v15.61h15.729v56.195
	H160.26v15.61h223.859v8.011H127.88v-8.011h15.729v-15.61H127.88v-56.195h223.86v-15.61H127.88v-8.898h256.239V248.715z"/>
<rect x="192.52" y="151.935" style="fill:#FFFFFF;" width="126.959" height="15.61"/>
<rect x="216.455" y="184.195" width="79.089" height="15.61"/>
<g>
	<rect x="312.195" y="448.52" style="fill:#FFFFFF;" width="15.61" height="15.61"/>
	<rect x="288.26" y="448.52" style="fill:#FFFFFF;" width="15.61" height="15.61"/>
	<rect x="336.13" y="448.52" style="fill:#FFFFFF;" width="15.61" height="15.61"/>
</g>
<g>
</g>
<g>
</g>
<g>
</g>
<g>
</g>
<g>
</g>
<g>
</g>
<g>
</g>
<g>
</g>
<g>
</g>
<g>
</g>
<g>
</g>
<g>
</g>
<g>
</g>
<g>
</g>
<g>
</g>
</svg>
