<?xml version="1.0" encoding="iso-8859-1"?>
<!-- Generator: Adobe Illustrator 19.0.0, SVG Export Plug-In . SVG Version: 6.00 Build 0)  -->
<svg version="1.1" id="Layer_1" xmlns="http://www.w3.org/2000/svg" xmlns:xlink="http://www.w3.org/1999/xlink" x="0px" y="0px"
	 viewBox="0 0 512 512" style="enable-background:new 0 0 512 512;" xml:space="preserve">
<path style="fill:#D2C1AD;" d="M386.134,212.996h-65.086v40.564h40.564v106.09h-40.564v38.483h65.086
	c8.508,0,15.001-5.943,15.001-14.45V228.524C401.136,220.017,394.642,212.996,386.134,212.996z"/>
<polygon style="fill:#958573;" points="361.092,245.226 361.111,358.66 320.683,358.66 320.683,374.83 377.282,374.83 
	377.282,245.174 "/>
<rect x="110.457" y="188.86" style="fill:#D2C1AD;" width="210.224" height="315.336"/>
<rect x="110.457" y="188.86" style="fill:#C7B299;" width="153.622" height="315.336"/>
<rect x="110.457" y="188.86" style="fill:#958573;" width="56.602" height="315.336"/>
<polygon style="fill:#29ABE2;" points="320.683,407.173 110.461,471.856 110.461,415.258 320.683,350.574 "/>
<g>
	<polygon style="fill:#54BCE8;" points="263.843,366.745 321.049,350.574 321.049,407.173 263.843,423.343 	"/>
	<rect x="110.457" y="188.86" style="fill:#54BCE8;" width="210.224" height="32.337"/>
</g>
<rect x="110.457" y="188.86" style="fill:#29ABE2;" width="153.622" height="32.337"/>
<g>
	<rect x="110.457" y="188.86" style="fill:#0C6D95;" width="56.602" height="32.337"/>
	<polygon style="fill:#0C6D95;" points="110.949,415.258 167.115,399.087 167.115,455.686 110.949,471.856 	"/>
</g>
<path d="M386.134,205.319h-57.651v-24.256H102.66V512h225.824V406.888h57.651c12.795,0,23.204-10.41,23.204-23.206V228.524
	C409.339,215.729,398.93,205.319,386.134,205.319z M312.883,401.412l-194.621,59.883v-40.277l194.621-59.883V401.412z
	 M328.484,260.84h24.808v90.488h-24.808V260.84z M312.883,196.664v16.332h-162.41v15.601h162.409v116.215L118.26,404.696V228.597
	h16.611v-15.601H118.26v-16.332L312.883,196.664L312.883,196.664z M118.261,496.399v-18.781l194.621-59.883v78.664H118.261z
	 M393.738,383.684c0,4.193-3.41,7.604-7.603,7.604h-57.651v-24.357h40.41V245.24h-40.41v-24.318h57.651
	c4.192,0,7.603,3.41,7.603,7.604V383.684z"/>
<rect x="239.918" y="463.664" style="fill:#FFFFFF;" width="56.165" height="15.601"/>
<path d="M167.901,159.418l-8.085-20.214c-5.961-14.904-5.961-31.318,0-46.221c4.467-11.167,4.467-23.468,0-34.634l-8.086-20.214
	l14.486-5.793l8.086,20.214c5.961,14.902,5.961,31.317,0,46.221c-4.467,11.166-4.467,23.467,0,34.634l8.085,20.214L167.901,159.418z
	"/>
<path d="M216.415,127.077l-8.086-20.214c-5.961-14.902-5.961-31.318,0-46.221c4.467-11.166,4.467-23.468,0-34.634l-8.086-20.214
	L214.73,0l8.085,20.214c5.961,14.902,5.961,31.318,0,46.221c-4.467,11.166-4.467,23.468,0,34.634l8.086,20.213L216.415,127.077z"/>
<path d="M273.013,167.504l-8.085-20.214c-5.961-14.902-5.961-31.318,0-46.221c4.467-11.166,4.467-23.468,0-34.634l-8.085-20.214
	l14.486-5.793l8.085,20.214c5.961,14.902,5.961,31.318,0,46.221c-4.467,11.166-4.467,23.468,0,34.634l8.085,20.214L273.013,167.504z
	"/>
<g>
</g>
<g>
</g>
<g>
</g>
<g>
</g>
<g>
</g>
<g>
</g>
<g>
</g>
<g>
</g>
<g>
</g>
<g>
</g>
<g>
</g>
<g>
</g>
<g>
</g>
<g>
</g>
<g>
</g>
</svg>
