<?xml version="1.0" encoding="iso-8859-1"?>
<!-- Generator: Adobe Illustrator 19.0.0, SVG Export Plug-In . SVG Version: 6.00 Build 0)  -->
<svg version="1.1" id="Layer_1" xmlns="http://www.w3.org/2000/svg" xmlns:xlink="http://www.w3.org/1999/xlink" x="0px" y="0px"
	 viewBox="0 0 511.998 511.998" style="enable-background:new 0 0 511.998 511.998;" xml:space="preserve">
<rect x="215.607" y="71.875" style="fill:#998675;" width="80.328" height="24.016"/>
<path style="fill:#A67C52;" d="M380.083,71.875H131.915c-17.685,0-32.021-14.337-32.021-32.021l0,0
	c0-17.685,14.337-32.021,32.021-32.021h248.168c17.685,0,32.021,14.337,32.021,32.021l0,0
	C412.104,57.539,397.767,71.875,380.083,71.875z"/>
<path style="fill:#C69C6D;" d="M379.276,7.449h-83.687c17.685,0,32.021,14.419,32.021,32.105c0,17.685-14.337,32.105-32.021,32.105
	h84.494c18.009,0,32.545-14.953,32.008-33.079C411.57,21.111,396.751,7.449,379.276,7.449z"/>
<g>
	<rect x="352.06" y="7.832" style="fill:#FFFFFF;" width="24.016" height="64.044"/>
	<rect x="136.285" y="7.832" style="fill:#FFFFFF;" width="24.016" height="64.044"/>
</g>
<path d="M380.083,0H131.915c-21.975,0-39.853,17.879-39.853,39.854s17.878,39.853,39.853,39.853h248.168
	c21.975,0,39.853-17.878,39.853-39.853S402.058,0,380.083,0z M144.519,15.664h8.354v40.865h15.664V15.664h175.435v40.865h15.664
	V15.664h8.354v48.379H144.519L144.519,15.664L144.519,15.664z M107.726,39.854c0-12.301,9.232-22.48,21.13-23.991v47.98
	C116.958,62.333,107.726,52.154,107.726,39.854z M383.654,63.778V15.929c11.65,1.732,20.618,11.8,20.618,23.925
	C404.272,51.978,395.305,62.046,383.654,63.778z"/>
<path d="M215.529,103.52h32.637v141.23l-20.984,20.985c-3.795,3.795-5.548,9.223-4.689,14.519c0.859,5.299,4.239,9.895,9.04,12.295
	l37.043,18.521c0.163,0.081,0.597,0.299,0.597,0.966c0,0.667-0.433,0.884-0.596,0.966l-32.161,16.081
	c-5.709,2.853-9.255,8.592-9.255,14.975s3.546,12.121,9.255,14.977l32.161,16.08c0.163,0.081,0.596,0.299,0.596,0.966
	s-0.433,0.884-0.596,0.966l-32.161,16.081c-5.709,2.854-9.255,8.593-9.255,14.975c0,6.384,3.546,12.121,9.255,14.976l32.161,16.081
	c0.163,0.081,0.596,0.299,0.596,0.966c0,0.667-0.434,0.884-0.596,0.966l-37.044,18.521c-4.8,2.401-8.18,6.997-9.039,12.295
	c-0.859,5.296,0.893,10.726,4.688,14.519l25.573,25.573h19.255v-15.664h-12.767l-20.985-20.986c-0.259-0.259-0.36-0.573-0.302-0.936
	c0.058-0.362,0.255-0.63,0.583-0.794l37.045-18.521c5.709-2.855,9.255-8.593,9.254-14.977c-0.001-6.384-3.547-12.121-9.255-14.975
	l-32.161-16.081c-0.163-0.081-0.596-0.299-0.596-0.966c0-0.666,0.433-0.883,0.596-0.965l32.161-16.081
	c5.709-2.854,9.255-8.593,9.255-14.976s-3.546-12.121-9.255-14.976l-32.16-16.079c-0.164-0.081-0.597-0.299-0.597-0.966
	s0.433-0.884,0.596-0.966l32.161-16.081c5.708-2.853,9.255-8.592,9.255-14.975s-3.546-12.121-9.255-14.977l-37.043-18.521
	c-0.328-0.164-0.524-0.431-0.584-0.794c-0.06-0.362,0.043-0.676,0.302-0.936l25.573-25.574V103.52h32.107V87.857h-80.408
	L215.529,103.52L215.529,103.52z"/>
<g>
</g>
<g>
</g>
<g>
</g>
<g>
</g>
<g>
</g>
<g>
</g>
<g>
</g>
<g>
</g>
<g>
</g>
<g>
</g>
<g>
</g>
<g>
</g>
<g>
</g>
<g>
</g>
<g>
</g>
</svg>
