<?xml version="1.0" encoding="iso-8859-1"?>
<!-- Generator: Adobe Illustrator 19.0.0, SVG Export Plug-In . SVG Version: 6.00 Build 0)  -->
<svg version="1.1" id="Layer_1" xmlns="http://www.w3.org/2000/svg" xmlns:xlink="http://www.w3.org/1999/xlink" x="0px" y="0px"
	 viewBox="0 0 512 512" style="enable-background:new 0 0 512 512;" xml:space="preserve">
<path style="fill:#006837;" d="M135.922,183.954l10.933-46.273c2.128-7.45,11.781-9.388,16.621-3.339l20.476,25.595l-16.011,72.047
	L135.922,183.954z"/>
<path style="fill:#8CC63F;" d="M376.076,183.954l-10.933-46.273c-2.128-7.45-11.781-9.388-16.621-3.339l-20.476,25.595
	l16.011,72.047L376.076,183.954z"/>
<path style="fill:#009245;" d="M256,408.098l132.169-249.029c3.032-5.885,11.924-3.729,11.924,2.89v206.112
	c0,75.159-60.928,136.087-136.087,136.087l0,0"/>
<path style="fill:#8CC63F;" d="M388.321,159.069l-12.105,22.782v186.22c0,67.014-48.55,122.585-112.326,133.871l0.233,2.216
	c75.159,0,136.136-60.928,136.136-136.088V161.959C400.259,155.34,391.352,153.184,388.321,159.069z"/>
<path style="fill:#009245;" d="M256,408.098L123.831,159.069c-3.032-5.885-11.924-3.729-11.924,2.89v206.112
	c0,75.159,60.928,136.087,136.087,136.087l0,0"/>
<path style="fill:#006837;" d="M123.678,159.069l12.105,22.782v186.22c0,67.014,48.55,122.585,112.326,133.871l-0.233,2.216
	c-75.159,0-136.136-60.928-136.136-136.088V161.959C111.741,155.34,120.647,153.184,123.678,159.069z"/>
<path style="fill:#FBB03B;" d="M169.5,247.992c5.235-71.322,23.612-141.191,54.331-206.041l9.304-19.642
	c4.186-8.835,13.088-14.469,22.864-14.469l0,0c9.776,0,18.678,5.633,22.863,14.469l9.304,19.64
	c30.72,64.851,49.097,134.721,54.332,206.044l-86.499,152.1L169.5,247.992z"/>
<polygon style="fill:#F7931E;" points="207.968,320.041 175.948,264.005 175.948,191.959 207.968,79.887 "/>
<path style="fill:#FCC062;" d="M233.542,47.866c9.776,0,18.678,5.633,22.863,14.469l9.304,19.64
	c30.654,64.711,49.007,134.421,54.288,205.585l22.502-39.568c-5.235-71.323-23.613-141.193-54.333-206.044l-9.304-19.64
	c-4.185-8.834-13.087-14.468-22.863-14.468c-9.777,0-18.678,5.633-22.863,14.469l-9.304,19.642
	c-1.635,3.452-3.093,6.974-4.658,10.454C223.324,49.532,228.291,47.866,233.542,47.866z"/>
<rect x="199.547" y="248.679" width="16.726" height="15.68"/>
<rect x="223.59" y="271.677" width="16.726" height="15.68"/>
<rect x="271.676" y="271.677" width="16.726" height="15.68"/>
<rect x="247.633" y="295.72" width="16.726" height="15.68"/>
<rect x="247.633" y="343.806" width="16.726" height="15.68"/>
<rect x="223.59" y="231.953" width="16.726" height="15.68"/>
<rect x="199.547" y="207.91" width="16.726" height="15.68"/>
<rect x="247.633" y="207.91" width="16.726" height="15.68"/>
<rect x="295.719" y="207.91" width="16.726" height="15.68"/>
<rect x="199.547" y="159.824" width="16.726" height="15.68"/>
<rect x="247.633" y="159.824" width="16.726" height="15.68"/>
<rect x="295.719" y="159.824" width="16.726" height="15.68"/>
<rect x="247.633" y="111.738" width="16.726" height="15.68"/>
<rect x="247.633" y="63.656" width="16.726" height="15.68"/>
<rect x="247.633" y="248.679" width="16.726" height="15.68"/>
<rect x="271.676" y="231.953" width="16.726" height="15.68"/>
<rect x="271.676" y="183.867" width="16.726" height="15.68"/>
<rect x="223.59" y="183.867" width="16.726" height="15.68"/>
<rect x="271.676" y="135.781" width="16.726" height="15.68"/>
<rect x="223.59" y="135.781" width="16.726" height="15.68"/>
<rect x="271.676" y="87.695" width="16.726" height="15.68"/>
<rect x="223.59" y="87.695" width="16.726" height="15.68"/>
<rect x="295.719" y="248.679" width="16.726" height="15.68"/>
<rect x="159.823" y="424.298" width="32.406" height="15.68"/>
<rect x="183.866" y="367.849" width="24.043" height="15.68"/>
<rect x="135.78" y="312.445" width="32.406" height="15.68"/>
<rect x="304.082" y="400.255" width="24.043" height="15.68"/>
<path d="M397.115,148.206c-6.469-1.568-12.867,1.355-15.873,7.188l-2.67,5.03l-5.801-24.546l-0.091-0.351
	c-1.795-6.278-6.887-10.978-13.289-12.264c-6.398-1.286-12.914,1.083-16.993,6.182l-9.644,12.056
	c-9.226-35.253-21.746-69.64-37.504-102.908l-9.303-19.641C280.494,7.439,268.738,0,255.999,0c-12.739,0-24.495,7.439-29.948,18.952
	l-9.304,19.642c-15.758,33.266-28.278,67.653-37.503,102.906l-9.644-12.055c-4.08-5.099-10.589-7.47-16.993-6.182
	c-6.402,1.286-11.494,5.986-13.289,12.264l-5.888,24.903l-2.628-4.952c-3.049-5.92-9.445-8.839-15.917-7.273
	c-6.471,1.569-10.818,7.097-10.818,13.754v206.112c0,79.362,64.566,143.928,143.928,143.928h15.845v-4.592l0.165-0.165V512
	c79.362,0,143.928-64.566,143.928-143.928V161.96C407.932,155.302,403.586,149.775,397.115,148.206z M354.645,139.24
	c0.429-0.536,0.989-0.739,1.661-0.604c0.635,0.128,1.06,0.493,1.264,1.088l9.856,41.705l-19.896,37.488
	c-2.393-19.606-5.755-39.012-10.082-58.178L354.645,139.24z M216.277,127.422v-15.68h-11.912
	c6.293-19.129,13.614-37.96,21.947-56.449h14.008v-15.68h-6.705l6.607-13.947c1.601-3.382,4.236-6.092,7.416-7.833V31.25h16.726
	V17.833c3.179,1.741,5.813,4.451,7.415,7.832l6.607,13.947h-6.703v15.68h14.006c8.334,18.489,15.655,37.32,21.947,56.449h-11.911
	v15.68h16.726v-0.306c5.559,18.664,10.144,37.598,13.766,56.756h-6.449v15.68h9.189c1.722,10.738,3.145,21.541,4.259,32.406h-13.447
	v15.68h12.519l-25.521,48.086h-11.042v15.68h2.72l-10.037,18.911v-10.549h-16.726v15.68h14.003l-29.683,55.926l-29.683-55.926
	h14.002v-15.68h-16.726v10.55l-10.037-18.913h2.72v-15.68h-11.042l-25.521-48.086h12.52v-15.68h-13.446
	c1.113-10.865,2.537-21.668,4.259-32.406h9.189v-15.68h-6.45c3.622-19.159,8.207-38.094,13.767-56.758v0.309L216.277,127.422
	L216.277,127.422z M154.429,139.724c0.204-0.595,0.629-0.961,1.264-1.088c0.672-0.135,1.232,0.068,1.661,0.604l17.198,21.499
	c-4.328,19.168-7.69,38.575-10.082,58.18l-19.896-37.488L154.429,139.724z M132.75,424.302h27.078v-15.68H126.32
	c-4.261-12.75-6.574-26.385-6.574-40.549V343.81h16.038v-15.68h-16.038v-87.81h16.038v-15.68h-16.038v-56.542l41.956,79.054
	c-0.006,0.089-0.015,0.178-0.021,0.268l0.169,0.013l4.548,8.57h-6.573v15.68h14.895l73.437,138.369v75.183l-26.641-26.642
	l-11.088,11.087l26.125,26.126C190.889,491.748,152.031,463.66,132.75,424.302z M356.607,456.708h-28.479v15.68h10.396
	c-18.099,12.967-39.698,21.34-63.081,23.416l26.125-26.126l-11.088-11.087l-26.641,26.642v-75.182l14.074-26.516h41.853v-15.68
	h-33.531l42.719-80.492h31.58v-15.68h-23.258l12.869-24.249l0.17-0.013c-0.006-0.09-0.015-0.179-0.021-0.269l41.956-79.055V256
	h-24.401v15.68h24.401v64.812h-24.401v15.68h24.401v15.9C392.252,402.424,378.675,433.662,356.607,456.708z"/>
<g>
</g>
<g>
</g>
<g>
</g>
<g>
</g>
<g>
</g>
<g>
</g>
<g>
</g>
<g>
</g>
<g>
</g>
<g>
</g>
<g>
</g>
<g>
</g>
<g>
</g>
<g>
</g>
<g>
</g>
</svg>
