<?xml version="1.0" encoding="iso-8859-1"?>
<!-- Generator: Adobe Illustrator 19.0.0, SVG Export Plug-In . SVG Version: 6.00 Build 0)  -->
<svg version="1.1" id="Layer_1" xmlns="http://www.w3.org/2000/svg" xmlns:xlink="http://www.w3.org/1999/xlink" x="0px" y="0px"
	 viewBox="0 0 512.001 512.001" style="enable-background:new 0 0 512.001 512.001;" xml:space="preserve">
<path style="fill:#650B0F;" d="M71.938,23.834L71.938,23.834c17.679,0,32.011,14.332,32.011,32.011v32.011l0,0
	c-17.679,0-32.011-14.332-32.011-32.011V23.834z"/>
<path style="fill:#B20209;" d="M55.932,191.891L55.932,191.891c-26.519,0-48.016-21.498-48.016-48.016V71.85
	c0-35.358,28.664-64.021,64.022-64.021l0,0v40.013c0,17.679,14.332,32.011,32.011,32.011l0,0v64.021
	C103.949,170.393,82.451,191.891,55.932,191.891z"/>
<path style="fill:#650B0F;" d="M47.546,143.875V71.85c0-20.208,10.438-38.2,25.052-49.934V7.829
	C36.064,7.829,7.88,36.492,7.88,71.85v72.024c0,26.519,21.515,48.016,48.034,48.016c7.149,0,13.727-1.605,19.823-4.408
	C59.221,179.892,47.546,163.244,47.546,143.875z"/>
<path style="fill:#B20209;" d="M440.063,23.834L440.063,23.834c-17.679,0-32.011,14.332-32.011,32.011v32.011l0,0
	c17.679,0,32.011-14.332,32.011-32.011V23.834z"/>
<path style="fill:#650B0F;" d="M456.069,191.891L456.069,191.891c26.519,0,48.016-21.498,48.016-48.016V71.85
	c0-35.358-28.664-64.021-64.021-64.021l0,0v40.013c0,17.679-14.332,32.011-32.011,32.011l0,0v64.021
	C408.052,170.393,429.549,191.891,456.069,191.891z"/>
<path style="fill:#B20209;" d="M464.035,143.875V71.85c0-20.208-7.307-38.2-24.008-49.934V7.829
	c32.359,0,63.674,28.664,63.674,64.021v72.024c0,26.519-21.306,48.016-47.824,48.016c-7.149,0-13.832-1.605-19.929-4.408
	C452.466,179.892,464.035,163.244,464.035,143.875z"/>
<g>
	<circle style="fill:#4D4D4D;" cx="328.025" cy="143.871" r="16.005"/>
	<circle style="fill:#4D4D4D;" cx="183.976" cy="143.871" r="16.005"/>
</g>
<path style="fill:#B20209;" d="M422.282,335.94c0,92.816-74.72,168.057-167.535,168.057S87.212,428.755,87.212,335.94v-96.033
	l167.535-32.011l167.535,32.011V335.94z"/>
<path style="fill:#C2353A;" d="M392.011,233.81v86.125c0,92.816-75.224,168.057-168.039,168.057
	c-20.724,0-40.476-3.93-58.806-10.791c26.206,16.886,56.971,26.796,90.465,26.796c92.816,0,167.696-75.242,167.696-168.057v-96.033
	L392.011,233.81z"/>
<polygon style="fill:#650B0F;" points="119.955,431.972 87.943,375.954 87.943,239.907 119.955,231.905 "/>
<rect x="159.237" y="295.927" width="16.701" height="15.657"/>
<rect x="127.922" y="352.294" width="88.726" height="15.657"/>
<rect x="279.278" y="295.927" width="32.359" height="15.657"/>
<rect x="311.637" y="280.269" width="49.06" height="15.657"/>
<rect x="279.278" y="247.91" width="16.701" height="15.657"/>
<g>
	<path style="fill:#FFFFFF;" d="M280.321,463.809v-15.658c12.526,0,25.196-2.302,37.062-6.84l5.671,14.624
		C309.396,461.16,294.934,463.809,280.321,463.809z"/>
	<path style="fill:#FFFFFF;" d="M339.953,447.767l-7.841-13.553c32.141-18.594,52.106-53.183,52.106-90.27h15.657
		C399.875,386.599,376.914,426.383,339.953,447.767z"/>
</g>
<rect x="200.991" y="407.617" width="62.63" height="15.657"/>
<rect x="279.278" y="407.617" width="16.701" height="15.657"/>
<rect x="167.588" y="439.976" width="49.06" height="15.657"/>
<path d="M463.898,239.907v-40.748c27.098-3.819,48.016-27.15,48.016-55.285V71.85c0-39.619-32.232-71.85-71.851-71.85h-7.829v16.782
	c-18.231,3.648-32.011,19.775-32.011,39.063v88.03c0,28.135,20.918,51.465,48.016,55.285v40.748
	c0,10.672-6.952,19.746-16.564,22.946v-29.42l-125.87-24.049c15.966-8.36,27.417-24.211,29.639-42.863
	c9.519-3.127,16.413-12.094,16.413-22.646c0-13.142-10.692-23.834-23.834-23.834s-23.834,10.692-23.834,23.834
	c0,10.213,6.458,18.943,15.504,22.33c-3.043,19.165-19.678,33.864-39.685,33.864h-48.016c-20.008,0-36.643-14.699-39.685-33.864
	c9.046-3.386,15.504-12.116,15.504-22.33c0-13.142-10.692-23.834-23.834-23.834c-13.142,0-23.834,10.692-23.834,23.834
	c0,10.552,6.895,19.519,16.414,22.646c2.229,18.717,13.751,34.613,29.805,42.95L80.949,233.432v29.622
	c-9.933-3.007-17.187-12.244-17.187-23.147v-40.748c27.098-3.819,48.016-27.15,48.016-55.285v-88.03
	c0-19.288-13.78-35.415-32.011-39.063V0h-7.829C32.32,0,0.087,32.231,0.087,71.85v72.024c0,28.135,20.918,51.465,48.016,55.285
	v40.748c0,19.58,14.202,35.895,32.844,39.213v10.295L7.879,305.652v38.291h15.657v-25.73l57.411-12.758v30.486
	c0,3.214,0.093,6.413,0.262,9.597L7.88,361.657v38.653h15.657v-26.065l59.201-13.012c1.676,11.78,4.516,23.272,8.471,34.338
	L7.88,417.968v38.708h15.657v-26.704l73.658-19.797c5.351,11.544,11.976,22.512,19.8,32.731L7.88,474.084V512h15.657v-26.106
	l104.552-29.87c1.343,1.442,2.705,2.871,4.101,4.274c33.085,33.228,77.166,51.528,124.121,51.528s91.036-18.299,124.121-51.528
	c1.321-1.327,2.61-2.677,3.883-4.039l103.727,29.635v26.106h15.658v-37.916l-108.259-30.931c7.851-10.216,14.5-21.182,19.872-32.727
	l72.729,19.548v26.702h15.658v-38.708l-82.379-22.142c3.978-11.075,6.841-22.578,8.534-34.37l58.187,12.79v26.064h15.658v-38.653
	l-72.3-15.893c0.177-3.259,0.276-6.533,0.276-9.824v-30.254l56.367,12.526v25.73h15.658v-38.292l-72.024-16.005v-10.639
	C450.01,275.441,463.898,259.269,463.898,239.907z M415.881,55.845c0-10.594,6.852-19.614,16.354-22.875v14.871
	c0,10.594-6.852,19.614-16.354,22.875V55.845z M418.919,159.184h45.117v-15.657h-48.154V87.856V86.91
	c18.232-3.647,32.011-19.779,32.011-39.068V16.2c27.293,3.819,48.364,27.32,48.364,55.65v71.677h-15.52v15.657h12.482
	c-6.033,14.585-20.41,24.878-37.15,24.878S424.952,173.77,418.919,159.184z M328.025,135.698c4.508,0,8.176,3.668,8.176,8.176
	c0,4.508-3.668,8.177-8.176,8.177c-4.508,0-8.176-3.669-8.176-8.177C319.849,139.366,323.517,135.698,328.025,135.698z
	 M183.976,152.052c-4.508,0-8.176-3.669-8.176-8.177c0-4.508,3.668-8.176,8.176-8.176s8.176,3.668,8.176,8.176
	C192.152,148.383,188.484,152.052,183.976,152.052z M96.12,55.845v14.871c-9.502-3.262-16.354-12.28-16.354-22.875V32.971
	C89.269,36.231,96.12,45.25,96.12,55.845z M55.932,184.062L55.932,184.062c-16.74,0-31.117-10.292-37.15-24.878h13.105v-15.657
	H15.745V71.85c0-28.33,21.07-51.829,48.364-55.65v31.642c0,19.289,13.78,35.42,32.011,39.068v0.947v55.671H47.546v15.657h45.537
	C87.049,173.77,72.673,184.062,55.932,184.062z M416.019,335.94c0,42.837-16.578,83.079-46.681,113.311
	c-28.403,28.525-65.709,44.961-105.718,46.748v-23.665h-15.658v23.617c-36.529-1.866-70.747-15.963-97.932-40.318h1.9v-15.657
	h-15.657v1.755c-11.223-12.793-20.218-27.107-26.785-42.464h18.434v-15.658h-24.179c-4.694-15.232-7.136-31.259-7.136-47.669
	v-48.364h55.323v-15.658H96.606v-25.536l151.356-28.919v38.798h15.658v-38.998l152.4,29.119V335.94z"/>
<g>
</g>
<g>
</g>
<g>
</g>
<g>
</g>
<g>
</g>
<g>
</g>
<g>
</g>
<g>
</g>
<g>
</g>
<g>
</g>
<g>
</g>
<g>
</g>
<g>
</g>
<g>
</g>
<g>
</g>
</svg>
