<?xml version="1.0" encoding="iso-8859-1"?>
<!-- Generator: Adobe Illustrator 19.0.0, SVG Export Plug-In . SVG Version: 6.00 Build 0)  -->
<svg version="1.1" id="Layer_1" xmlns="http://www.w3.org/2000/svg" xmlns:xlink="http://www.w3.org/1999/xlink" x="0px" y="0px"
	 viewBox="0 0 512 512" style="enable-background:new 0 0 512 512;" xml:space="preserve">
<path style="fill:#BDCCD4;" d="M435.964,120.094c0,26.514-21.494,48.008-48.008,48.008l0,0c-26.514,0-48.008-21.494-48.008-48.008
	l8.001-72.013c0-22.095,17.912-40.007,40.007-40.007s40.007,17.912,40.007,40.007L435.964,120.094z"/>
<g>
	<circle style="fill:#CAD6DD;" cx="387.952" cy="120.098" r="24.004"/>
	<path style="fill:#CAD6DD;" d="M276.684,24.079c0-8.838-7.538-16.003-16.376-16.003c-8.838,0-16.189,7.165-16.189,16.003
		l-15.723,216.037l48.288,16.003V24.079z"/>
</g>
<g>
	<path style="fill:#BDCCD4;" d="M260.308,56.084c0-8.838,8.013-16.003,16.376-16.003V24.079c0-8.838-7.538-16.003-16.376-16.003
		c-8.838,0-16.189,7.165-16.189,16.003l-16.096,216.037l18.071,5.977L260.308,56.084z"/>
	<path style="fill:#BDCCD4;" d="M148.109,0.055v103.487h-47.04V0.055H75.982v120.04c0,26.515,21.57,48.008,48.085,48.008
		s48.085-21.494,48.085-48.008V0.055H148.109z"/>
</g>
<path style="fill:#CAD6DD;" d="M148.109,0.055v103.487h-24.043v16.553c0,17.759-9.746,33.228-24.081,41.532
	c7.067,4.095,15.327,6.476,24.081,6.476c26.515,0,48.085-21.494,48.085-48.008V0.055H148.109z"/>
<g>
	<path style="fill:#F15A24;" d="M291.94,304.126h-32.006v184.031c0,8.838,7.165,16.003,16.003,16.003l0,0
		c8.838,0,16.003-7.165,16.003-16.003V304.126z"/>
	<path style="fill:#F15A24;" d="M139.914,240.115h-32.005v248.042c0,8.838,7.165,16.003,16.003,16.003l0,0
		c8.838,0,16.003-7.165,16.003-16.003V240.115H139.914z"/>
</g>
<polygon style="fill:#C7B299;" points="139.914,392.141 107.909,424.147 107.909,384.14 139.914,352.134 "/>
<path style="fill:#F15A24;" d="M403.959,240.115h-32.006v248.042c0,8.838,7.165,16.003,16.003,16.003l0,0
	c8.838,0,16.003-7.165,16.003-16.003L403.959,240.115L403.959,240.115z"/>
<g>
	<polygon style="fill:#C7B299;" points="403.959,392.141 371.953,424.147 371.953,384.14 403.959,352.134 	"/>
	<polygon style="fill:#C7B299;" points="291.94,392.141 259.934,424.147 259.934,384.14 291.94,352.134 	"/>
</g>
<path d="M164.08,0.074v120.02c0,22.148-18.019,40.168-40.168,40.168s-40.169-18.018-40.169-40.168V0.074h-15.68v120.02
	c0,28.366,21.264,51.844,48.686,55.373v8.564h15.68v-8.739c26.767-4.113,47.33-27.299,47.33-55.198V0.074H164.08z"/>
<polygon points="155.426,0.055 139.747,0.055 139.747,96.225 131.678,96.225 130.764,0 115.085,0.149 115.997,96.225 
	107.341,96.225 107.341,0.055 91.662,0.055 91.662,111.905 155.426,111.905 "/>
<path d="M132.429,232.275v-39.879h-15.68v39.879h-16.68v255.882c0,13.147,10.696,23.843,23.843,23.843s23.843-10.695,23.843-23.843
	V232.275H132.429z M132.074,388.893l-16.326,16.325v-17.83l16.326-16.326V388.893z M132.074,247.955v100.932l-16.326,16.326V247.955
	H132.074z M123.912,496.32c-4.501,0-8.163-3.662-8.163-8.163v-60.764l16.326-16.325v77.089
	C132.074,492.658,128.412,496.32,123.912,496.32z"/>
<path d="M284.002,296.285v-7.721h-15.68v7.721h-16.227v191.872c0,13.147,10.696,23.843,23.843,23.843
	c13.147,0,23.843-10.695,23.843-23.843V296.285H284.002z M284.1,388.893l-16.326,16.325v-17.83l16.326-16.326V388.893z
	 M284.1,311.965v36.92l-16.326,16.326v-53.247H284.1V311.965z M275.937,496.32c-4.501,0-8.163-3.662-8.163-8.163v-60.764
	l16.326-16.325v77.089C284.1,492.658,280.438,496.32,275.937,496.32z"/>
<path d="M395.852,232.275v-39.879h-15.68v39.879h-16.058v255.882c0,13.147,10.696,23.843,23.843,23.843s23.843-10.695,23.843-23.843
	V232.275H395.852z M396.119,388.893l-16.326,16.325v-17.83l16.326-16.326V388.893z M396.119,247.955v100.932l-16.326,16.326V247.955
	H396.119z M387.956,496.32c-4.501,0-8.163-3.662-8.163-8.163v-60.764l16.326-16.325v77.089
	C396.119,492.658,392.457,496.32,387.956,496.32z"/>
<path d="M435.869,47.629c-0.245-26.175-21.677-47.394-47.908-47.394s-47.596,21.219-47.84,47.394l-7.948,71.6l-0.031,0.866
	c0,28.129,20.936,51.456,48.031,55.285v8.652h15.68v-8.649c27.111-3.82,48.085-27.151,48.085-55.288v-0.434L435.869,47.629z
	 M387.956,160.262c-22.009,0-39.942-17.795-40.167-39.752l7.924-71.562l0.019-0.866c0-17.737,14.372-32.167,32.109-32.167
	s32.052,14.431,32.052,32.167v0.434l8.114,71.994C427.785,142.47,409.968,160.262,387.956,160.262z"/>
<path style="fill:#FFFFFF;" d="M387.956,152.112c-17.558,0-31.844-14.073-31.844-31.844h15.68c0,8.363,7.251,16.164,16.164,16.164
	s16.164-7.801,16.164-16.164h15.68C419.8,138.039,405.515,152.112,387.956,152.112z"/>
<path d="M260.047,0.236c-13.072,0-23.726,10.524-23.896,23.526l-16.348,221.864l48.52,16.145v18.431h15.68V24.078
	C284.002,10.931,273.255,0.236,260.047,0.236z M237.135,223.755h14.46v-15.68h-13.305l0.616-8.363h12.689v-15.68h-11.533
	l0.539-7.317h10.995v-15.68h-9.839l0.693-9.408h9.146v-15.68h-7.99l8.201-111.294l0.022-0.576c0-4.501,3.687-8.163,8.218-8.163
	c4.563,0,8.275,3.662,8.275,8.163v221.167l-31.985-10.642L237.135,223.755z"/>
<g>
</g>
<g>
</g>
<g>
</g>
<g>
</g>
<g>
</g>
<g>
</g>
<g>
</g>
<g>
</g>
<g>
</g>
<g>
</g>
<g>
</g>
<g>
</g>
<g>
</g>
<g>
</g>
<g>
</g>
</svg>
