<?xml version="1.0" encoding="iso-8859-1"?>
<!-- Generator: Adobe Illustrator 19.0.0, SVG Export Plug-In . SVG Version: 6.00 Build 0)  -->
<svg version="1.1" id="Layer_1" xmlns="http://www.w3.org/2000/svg" xmlns:xlink="http://www.w3.org/1999/xlink" x="0px" y="0px"
	 viewBox="0 0 511.999 511.999" style="enable-background:new 0 0 511.999 511.999;" xml:space="preserve">
<path style="fill:#662D91;" d="M361.918,135.925v244.766c0,64.655-49.688,120.29-114.272,123.331
	c-2.771,0.131-5.523,0.167-8.252,0.112c-86.744-1.735-128.781-107.971-69.932-171.724l21.207-22.974
	c17.462-18.916,27.157-43.715,27.157-69.458V135.924"/>
<path style="fill:#4D226D;" d="M213.15,332.411l19.231-22.974c17.462-18.916,25.182-43.715,25.182-69.458V136.72h-39.735v103.258
	c0,25.743-9.696,50.542-27.158,69.458l-21.208,22.974c-58.849,63.753-16.813,169.988,69.932,171.724
	c2.729,0.054,5.481,0.018,8.252-0.112c5.629-0.265,11.093-1.067,16.472-2.101C190.56,486.412,158.779,391.312,213.15,332.411z"/>
<path style="fill:#006837;" d="M369.923,143.929c0-44.211-35.84-80.051-80.051-80.051s-80.051,35.84-80.051,80.051l26.685-13.342
	l26.683,13.342l26.684-13.342l26.683,13.342l26.683-13.342L369.923,143.929z"/>
<path style="fill:#39B54A;" d="M344.828,131.381l25.095,12.548c0-44.212-35.84-80.051-80.051-80.051
	c-4.092,0-8.081,0.405-12.007,0.997C312.256,70.062,339.413,97.065,344.828,131.381z"/>
<path d="M377.814,143.929c0-45.855-35.252-83.601-80.1-87.533V39.863c0-13.332,10.846-24.178,24.178-24.178
	c13.332,0,24.178,10.847,24.178,24.178h15.685C361.755,17.883,343.873,0,321.893,0S282.03,17.883,282.03,39.863v16.55
	c-44.746,4.033-79.886,41.733-79.886,87.517v12.689l7.841-3.93v87.289c0,23.842-8.907,46.62-25.077,64.139l-21.207,22.974
	c-30.036,32.538-37.805,78.309-20.281,119.451c16.833,39.514,53.547,64.586,95.817,65.432c0.86,0.018,1.722,0.025,2.589,0.025
	c2.06,0,4.132-0.048,6.19-0.145c33.103-1.559,63.917-16.153,86.768-41.096c22.555-24.619,34.976-56.606,34.976-90.068V152.594
	l8.054,4.024v-12.689H377.814z M289.872,71.721c35.271,0,64.719,25.423,70.981,58.905l-17.613-8.807l-26.684,13.342l-26.682-13.342
	l-26.684,13.342l-26.684-13.342l-17.614,8.807C225.153,97.144,254.6,71.721,289.872,71.721z M354.075,380.691
	c0,29.529-10.957,57.753-30.857,79.472c-20.034,21.868-47.004,34.661-75.939,36.024c-2.575,0.121-5.177,0.158-7.729,0.106
	c-18.55-0.371-36.019-6.077-50.519-16.502c-13.579-9.762-24.362-23.385-31.181-39.395c-15.074-35.386-8.417-74.726,17.374-102.666
	l21.207-22.974c18.854-20.425,29.238-46.982,29.238-74.778v-95.149l10.92-5.473l26.603,13.342l26.686-13.342l26.688,13.342
	l26.696-13.342l10.811,5.402v235.934H354.075z"/>
<circle style="fill:#8557A7;" cx="229.333" cy="425.835" r="40.028"/>
<g>
	<path style="fill:#FFFFFF;" d="M187.412,386.036l-15.188-3.91c3.84-14.915,12.607-28.462,24.684-38.146l9.811,12.237
		C197.27,363.794,190.412,374.384,187.412,386.036z"/>
	<path style="fill:#FFFFFF;" d="M241.878,471.975c-39.735,0-71.92-32.014-71.92-71.749h15.685c0,31.37,24.865,56.064,56.235,56.064
		L241.878,471.975L241.878,471.975z"/>
</g>
<g>
</g>
<g>
</g>
<g>
</g>
<g>
</g>
<g>
</g>
<g>
</g>
<g>
</g>
<g>
</g>
<g>
</g>
<g>
</g>
<g>
</g>
<g>
</g>
<g>
</g>
<g>
</g>
<g>
</g>
</svg>
