<?xml version="1.0" encoding="iso-8859-1"?>
<!-- Generator: Adobe Illustrator 19.0.0, SVG Export Plug-In . SVG Version: 6.00 Build 0)  -->
<svg version="1.1" id="Layer_1" xmlns="http://www.w3.org/2000/svg" xmlns:xlink="http://www.w3.org/1999/xlink" x="0px" y="0px"
	 viewBox="0 0 512 512" style="enable-background:new 0 0 512 512;" xml:space="preserve">
<rect x="192.012" y="55.827" style="fill:#BDCCD4;" width="128.077" height="448.258"/>
<g>
	<rect x="192.012" y="480.069" style="fill:#00FFFF;" width="128.077" height="24.012"/>
	<rect x="192.012" y="55.827" style="fill:#00FFFF;" width="128.077" height="24.012"/>
</g>
<rect x="192.012" y="319.984" style="fill:#FFFFFF;" width="128.077" height="96.058"/>
<g>
	<polygon style="fill:#FCEE21;" points="320.085,159.888 192.012,287.961 192.012,231.929 320.085,103.855 	"/>
	<polygon style="fill:#FCEE21;" points="288.067,79.841 192.012,175.896 192.012,119.864 232.035,79.841 	"/>
	<polygon style="fill:#FCEE21;" points="320.085,271.952 272.057,319.98 216.025,319.98 320.085,215.92 	"/>
	<polygon style="fill:#FCEE21;" points="288.067,416.036 224.03,480.072 192.012,480.072 192.012,456.058 232.035,416.036 	"/>
	<polygon style="fill:#FCEE21;" points="320.085,496.082 320.085,480.072 280.063,480.072 320.085,440.05 	"/>
</g>
<path d="M279.858,39.819h-15.599v-16.01c0-4.528-3.683-8.21-8.211-8.21s-8.21,3.682-8.21,8.21v16.01h-15.599v-16.01
	C232.24,10.681,242.92,0,256.048,0c13.129,0,23.81,10.681,23.81,23.809V39.819z"/>
<g>
	<rect x="216.481" y="344.578" style="fill:#00FFFF;" width="80.074" height="15.599"/>
	<rect x="232.08" y="375.776" style="fill:#00FFFF;" width="47.836" height="15.599"/>
</g>
<path d="M336.074,63.794V48.195H175.926v15.599h8.286v432.607h-8.286V512h160.148v-15.599h-8.189V63.794H336.074z M312.286,472.483
	h-13.602l13.602-13.603V472.483z M312.286,327.934v80.074H199.811v-80.074H312.286z M199.811,423.607h13.622l-13.622,13.622V423.607
	z M199.811,459.289l35.683-35.683h33.971l-48.876,48.876h-20.778V459.289z M291.527,423.607h20.759v13.211l-35.664,35.665h-33.971
	L291.527,423.607z M312.286,312.335h-21.552l21.552-21.552V312.335z M312.286,268.721l-43.613,43.613h-33.971l77.584-77.584V268.721
	z M312.286,212.688l-99.646,99.646h-12.828v-21.142l112.475-112.475V212.688z M312.286,156.657L199.811,269.132V235.16
	l112.475-112.475V156.657z M312.286,100.624L199.811,213.099v-33.97l92.456-92.456h20.018V100.624z M199.811,157.067v-33.971
	l36.423-36.423h33.971L199.811,157.067z M199.811,101.034V86.672h14.362L199.811,101.034z M199.811,496.401v-8.319h112.475v8.319
	H199.811z M312.286,71.073H199.811v-7.279h112.475V71.073z"/>
<g>
</g>
<g>
</g>
<g>
</g>
<g>
</g>
<g>
</g>
<g>
</g>
<g>
</g>
<g>
</g>
<g>
</g>
<g>
</g>
<g>
</g>
<g>
</g>
<g>
</g>
<g>
</g>
<g>
</g>
</svg>
