<?xml version="1.0" encoding="iso-8859-1"?>
<!-- Generator: Adobe Illustrator 19.0.0, SVG Export Plug-In . SVG Version: 6.00 Build 0)  -->
<svg version="1.1" id="Layer_1" xmlns="http://www.w3.org/2000/svg" xmlns:xlink="http://www.w3.org/1999/xlink" x="0px" y="0px"
	 viewBox="0 0 512 512" style="enable-background:new 0 0 512 512;" xml:space="preserve">
<path style="fill:#29ABE2;" d="M341.649,375.285c26.08-23.446,42.492-57.425,42.492-95.258H127.859
	c0,37.832,16.412,71.812,42.492,95.258c10.135,9.112,10.135,24.619,0,33.731c-26.08,23.446-42.492,57.425-42.492,95.258h256.282
	c0-37.832-16.412-71.812-42.492-95.258C331.514,399.904,331.514,384.397,341.649,375.285z"/>
<path style="fill:#54BCE8;" d="M343.71,409.015c-10.135-9.112-10.135-24.785,0-33.897c26.08-23.446,42.492-57.307,42.492-95.424
	h-32.036c0,38.117-16.411,71.978-42.492,95.424c-10.135,9.112-10.135,24.703,0,33.814c26.081,23.447,42.492,57.225,42.492,95.342
	h32.036C386.201,466.157,369.791,432.462,343.71,409.015z"/>
<path style="fill:#0C6D95;" d="M168.31,409.015c10.135-9.112,10.135-24.785,0-33.897c-26.08-23.446-42.492-55.247-42.492-95.424
	h32.036c0,40.177,16.411,71.978,42.492,95.424c10.135,9.112,10.135,24.703,0,33.814c-26.08,23.446-42.492,55.164-42.492,95.341
	h-32.036C125.819,464.097,142.23,432.462,168.31,409.015z"/>
<g>
	<rect x="143.854" y="441.433" style="fill:#FFFFFF;" width="23.694" height="15.453"/>
	<rect x="343.71" y="441.433" style="fill:#FFFFFF;" width="24.724" height="15.453"/>
	<rect x="175.79" y="441.433" style="fill:#FFFFFF;" width="16.483" height="15.453"/>
	<rect x="199.484" y="441.433" style="fill:#FFFFFF;" width="16.483" height="15.453"/>
	<rect x="224.209" y="441.433" style="fill:#FFFFFF;" width="15.453" height="15.453"/>
	<rect x="247.903" y="441.433" style="fill:#FFFFFF;" width="16.483" height="15.453"/>
	<rect x="271.597" y="441.433" style="fill:#FFFFFF;" width="16.483" height="15.453"/>
	<rect x="296.321" y="441.433" style="fill:#FFFFFF;" width="15.453" height="15.453"/>
	<rect x="320.015" y="441.433" style="fill:#FFFFFF;" width="16.483" height="15.453"/>
</g>
<path style="fill:#D1B08A;" d="M155.284,280.001c-12.281-27.635-19.417-60.635-19.417-96.081
	C135.867,86.611,189.652,7.726,256,7.726S376.132,86.611,376.132,183.92c0,35.458-7.141,68.469-19.429,96.109"/>
<rect x="127.856" y="280.024" style="fill:#F7931E;" width="256.278" height="24.027"/>
<rect x="127.856" y="280.024" style="fill:#F15A24;" width="40.044" height="24.027"/>
<rect x="344.101" y="280.024" style="fill:#FBB03B;" width="40.044" height="24.027"/>
<rect x="127.856" y="480.25" style="fill:#F7931E;" width="256.278" height="24.027"/>
<rect x="127.856" y="480.25" style="fill:#F15A24;" width="40.044" height="24.027"/>
<rect x="344.101" y="480.25" style="fill:#FBB03B;" width="40.044" height="24.027"/>
<path style="fill:#C69C6D;" d="M171.499,280.001c-12.281-27.635-19.516-60.635-19.516-96.081
	c0-93.358,49.465-169.71,112.074-175.761c-2.65-0.257-5.339-0.433-8.033-0.433c-66.348,0-120.145,78.885-120.145,176.194
	c0,35.445,7.328,68.446,19.608,96.081l201.611,0.028v-0.002L171.499,280.001z"/>
<path style="fill:#DDC4A7;" d="M256,7.726c-5.434,0-10.774,0.58-16.017,1.606c58.77,11.492,104.114,85.085,104.114,174.423
	c0,35.456-7.14,72.245-19.427,95.939h32.033c12.288-23.694,19.429-60.484,19.429-95.941C376.132,86.444,322.348,7.726,256,7.726z"/>
<rect x="224.209" y="384.773" width="63.871" height="15.453"/>
<path d="M346.816,381.031c28.631-25.74,45.052-62.555,45.052-101.004v-7.726h-23.639c10.246-26.974,15.63-57.274,15.63-88.38
	c0-48.6-12.973-94.391-36.528-128.941C323.156,19.526,290.722,0,256,0s-67.156,19.526-91.33,54.98
	c-23.556,34.549-36.528,80.341-36.528,128.941c0,31.106,5.385,61.406,15.63,88.38h-23.64v7.726
	c0,38.449,16.421,75.264,45.052,101.004c3.251,2.922,5.042,6.871,5.042,11.12c0,4.248-1.79,8.197-5.042,11.119
	c-28.631,25.74-45.052,62.555-45.052,101.004V512h271.735v-7.726c0-38.449-16.421-75.264-45.052-101.004
	c-3.251-2.922-5.042-6.871-5.042-11.119C341.774,387.902,343.564,383.953,346.816,381.031z M143.594,183.92
	c0-92.893,50.425-168.468,112.406-168.468S368.406,91.027,368.406,183.92c0,31.389-5.803,61.823-16.802,88.38H160.397
	C149.397,245.745,143.594,215.309,143.594,183.92z M376.165,287.753c-0.205,3.173-0.543,6.325-0.996,9.454H136.831
	c-0.453-3.129-0.791-6.282-0.996-9.454H376.165z M135.835,496.547c0.168-2.59,0.426-5.165,0.76-7.726h238.81
	c0.334,2.561,0.592,5.136,0.76,7.726H135.835z M336.484,369.538c-4.569,4.107-7.751,9.436-9.227,15.234h-22.698v15.453h22.879
	c1.548,5.527,4.66,10.594,9.045,14.536c17.54,15.768,29.907,36.225,35.875,58.607H139.64c5.967-22.382,18.335-42.838,35.875-58.607
	c4.385-3.943,7.497-9.01,9.045-14.536h23.163v-15.453h-22.98c-1.476-5.797-4.657-11.127-9.227-15.234
	c-17.087-15.361-29.26-35.173-35.395-56.878h231.758C365.744,334.365,353.572,354.177,336.484,369.538z"/>
<rect x="288.08" y="329.143" style="fill:#FFFFFF;" width="48.419" height="15.453"/>
<circle style="fill:#DDC4A7;" cx="233.13" cy="85.33" r="37.774"/>
<g>
	<path style="fill:#FFFFFF;" d="M191.647,207.581h-15.453c0-50.479,13.901-97.534,39.144-132.484l12.527,8.955
		C204.848,115.922,191.647,161.223,191.647,207.581z"/>
	<rect x="175.79" y="224.064" style="fill:#FFFFFF;" width="15.453" height="23.694"/>
</g>
<g>
</g>
<g>
</g>
<g>
</g>
<g>
</g>
<g>
</g>
<g>
</g>
<g>
</g>
<g>
</g>
<g>
</g>
<g>
</g>
<g>
</g>
<g>
</g>
<g>
</g>
<g>
</g>
<g>
</g>
</svg>
