<?xml version="1.0" encoding="iso-8859-1"?>
<!-- Generator: Adobe Illustrator 19.0.0, SVG Export Plug-In . SVG Version: 6.00 Build 0)  -->
<svg version="1.1" id="Layer_1" xmlns="http://www.w3.org/2000/svg" xmlns:xlink="http://www.w3.org/1999/xlink" x="0px" y="0px"
	 viewBox="0 0 512 512" style="enable-background:new 0 0 512 512;" xml:space="preserve">
<path style="fill:#FFFFFF;" d="M368.081,7.819c-13.264,0-24.018,10.753-24.018,24.018v208.152c0,13.264-10.753,24.018-24.018,24.018
	l0,0c0,17.686-14.338,32.023-32.023,32.023h-64.046c-17.686,0-32.023-14.338-32.023-32.023l0,0
	c-13.264,0-24.018-10.753-24.018-24.018V31.837c0-13.264-10.753-24.018-24.018-24.018H368.081z"/>
<path style="fill:#F2F2F2;" d="M324.307,7.826c-13.265,0-20.274,10.745-20.274,24.01v208.152c0,13.265-12.625,23.784-25.889,23.784
	c0,17.685-16.209,31.79-33.895,31.79h43.775c17.686,0,32.337-14.104,32.337-31.79c13.265,0,24.331-10.52,24.331-23.784V31.837
	c0-13.265,10.126-24.01,23.39-24.01H324.307z"/>
<path style="fill:#C9961A;" d="M255.999,456.146c0,13.264-10.753,24.018-24.018,24.018H215.97
	c-13.264,0-24.018,10.753-24.018,24.018l0,0h128.094l0,0c0-13.264-10.753-24.018-24.018-24.018h-16.012
	C266.753,480.163,255.999,469.411,255.999,456.146z"/>
<path style="fill:#740C10;" d="M280.017,320.046c0,13.264-10.753,24.018-24.018,24.018c-13.264,0-24.018-10.753-24.018-24.018"/>
<rect x="216.459" y="296.025" style="fill:#C9961A;" width="79.232" height="24.02"/>
<path style="fill:#740C10;" d="M344.064,111.895v128.094c0,13.264-10.753,24.018-24.018,24.018l0,0
	c0,17.686-14.338,32.023-32.023,32.023h-64.046c-17.686,0-32.023-14.338-32.023-32.023l0,0c-13.264,0-24.018-10.753-24.018-24.018
	V111.895"/>
<path style="fill:#C1272D;" d="M311.33,112.079v127.91c0,13.265-10.398,23.784-23.662,23.784c0,17.685-13.982,31.79-31.668,31.79
	h32.023c17.686,0,32.337-14.104,32.337-31.79c13.265,0,24.331-10.52,24.331-23.784v-127.91H311.33z"/>
<rect x="167.94" y="159.934" style="fill:#C9961A;" width="176.124" height="48.039"/>
<rect x="216.459" y="255.95" width="79.232" height="15.638"/>
<rect x="247.734" y="375.84" width="15.638" height="72.977"/>
<path d="M327.866,512H184.134v-7.819c0-17.555,14.282-31.837,31.837-31.837h16.012c8.931,0,16.199-7.267,16.199-16.199h15.638
	c0,8.931,7.266,16.199,16.199,16.199h16.011c17.555,0,31.837,14.282,31.837,31.837L327.866,512L327.866,512z M201.787,496.362
	h108.426c-2.763-4.993-8.085-8.38-14.184-8.38h-16.011c-9.575,0-18.176-4.249-24.018-10.961
	c-5.841,6.712-14.443,10.961-24.018,10.961h-16.012C209.872,487.982,204.55,491.37,201.787,496.362z"/>
<rect x="199.778" y="175.676" style="fill:#F2484B;" width="16.68" height="15.638"/>
<rect x="224.799" y="175.676" width="15.638" height="15.638"/>
<rect x="247.734" y="175.676" style="fill:#F2484B;" width="16.68" height="15.638"/>
<rect x="271.712" y="175.676" width="15.638" height="15.638"/>
<rect x="295.69" y="175.676" style="fill:#F2484B;" width="15.638" height="15.638"/>
<path d="M368.081,15.638V0H143.918v15.638c8.932,0,16.199,7.267,16.199,16.199v143.836h-8.292v15.638h8.292v48.678
	c0,15.078,10.537,27.741,24.633,31.015c3.317,18.643,19.645,32.845,39.227,32.845h64.047c19.583,0,35.911-14.201,39.227-32.845
	c14.096-3.275,24.632-15.937,24.632-31.015V191.31h8.447v-15.638h-8.447V31.837C351.882,22.905,359.149,15.638,368.081,15.638z
	 M336.245,151.694h-160.49v-32.318h160.49V151.694z M340.682,15.638c-1.437,2.421-2.557,5.049-3.314,7.826h-17.697v15.638h16.574
	v64.636h-160.49V39.102h128.278V23.464h-129.4c-0.758-2.777-1.878-5.405-3.314-7.826C171.318,15.638,340.682,15.638,340.682,15.638z
	 M320.047,256.187h-7.819v7.819c0,13.346-10.858,24.204-24.204,24.204h-64.047c-13.346,0-24.204-10.858-24.204-24.204v-7.819h-7.819
	c-8.932,0-16.199-7.267-16.199-16.199v-23.657h160.49v23.657C336.245,248.92,328.978,256.187,320.047,256.187z M336.245,191.31
	v9.383h-160.49v-9.383h15.686v-15.638h-15.686v-8.34h160.49v8.34h-16.574v15.638H336.245z"/>
<path d="M216.461,327.881h8.802c2.944,10.963,11.556,19.504,22.474,22.414v18.244h15.638v-18.024
	c11.336-2.673,20.339-11.376,23.363-22.634h8.955v-15.638h-79.232L216.461,327.881L216.461,327.881z M255.999,335.74
	c-5.962,0-11.17-3.047-13.981-7.859h27.963C267.169,332.692,261.963,335.74,255.999,335.74z"/>
<g>
</g>
<g>
</g>
<g>
</g>
<g>
</g>
<g>
</g>
<g>
</g>
<g>
</g>
<g>
</g>
<g>
</g>
<g>
</g>
<g>
</g>
<g>
</g>
<g>
</g>
<g>
</g>
<g>
</g>
</svg>
