<?xml version="1.0" encoding="iso-8859-1"?>
<!-- Generator: Adobe Illustrator 19.0.0, SVG Export Plug-In . SVG Version: 6.00 Build 0)  -->
<svg version="1.1" id="Layer_1" xmlns="http://www.w3.org/2000/svg" xmlns:xlink="http://www.w3.org/1999/xlink" x="0px" y="0px"
	 viewBox="0 0 512.001 512.001" style="enable-background:new 0 0 512.001 512.001;" xml:space="preserve">
<path style="fill:#D9E021;" d="M376.088,95.883c0,0-70.378,32.024-88.065,32.024S256,113.57,256,95.883s14.337-32.024,32.024-32.024
	C305.71,63.86,376.088,95.883,376.088,95.883z"/>
<path style="fill:#8CC63F;" d="M280.018,95.883c0-13.526,8.412-25.033,20.268-29.727c-5.083-1.399-9.406-2.297-12.262-2.297
	c-17.687,0-32.024,14.337-32.024,32.024c0,17.685,14.337,32.024,32.024,32.024c2.855,0,7.178-0.898,12.262-2.297
	C288.43,120.916,280.018,109.408,280.018,95.883z"/>
<circle style="fill:#93278F;" cx="352.074" cy="191.95" r="32.024"/>
<path style="fill:#662D91;" d="M352.071,159.929c-2.781,0-5.432,0.466-8.006,1.132c13.788,3.57,24.017,15.986,24.017,30.891
	c0,14.904-10.23,27.32-24.017,30.891c2.573,0.666,5.225,1.132,8.006,1.132c17.687,0,32.024-14.338,32.024-32.024
	C384.094,174.266,369.757,159.929,352.071,159.929z"/>
<circle style="fill:#93278F;" cx="288.025" cy="191.95" r="32.024"/>
<path style="fill:#662D91;" d="M288.025,159.929c-2.781,0-5.432,0.466-8.006,1.132c13.788,3.57,24.017,15.986,24.017,30.891
	c0,14.904-10.23,27.32-24.017,30.891c2.573,0.666,5.225,1.132,8.006,1.132c17.687,0,32.024-14.338,32.024-32.024
	C320.047,174.266,305.71,159.929,288.025,159.929z"/>
<circle style="fill:#93278F;" cx="223.975" cy="191.95" r="32.024"/>
<path style="fill:#662D91;" d="M223.977,159.929c-2.781,0-5.432,0.466-8.006,1.132c13.788,3.57,24.017,15.986,24.017,30.891
	c0,14.904-10.23,27.32-24.017,30.891c2.573,0.666,5.225,1.132,8.006,1.132c17.687,0,32.024-14.338,32.024-32.024
	C256.001,174.266,241.664,159.929,223.977,159.929z"/>
<circle style="fill:#93278F;" cx="159.926" cy="191.95" r="32.024"/>
<path style="fill:#662D91;" d="M159.93,159.929c-2.781,0-5.432,0.466-8.006,1.132c13.788,3.57,24.017,15.986,24.017,30.891
	c0,14.904-10.23,27.32-24.017,30.891c2.573,0.666,5.225,1.132,8.006,1.132c17.687,0,32.024-14.338,32.024-32.024
	C191.954,174.266,177.617,159.929,159.93,159.929z"/>
<circle style="fill:#93278F;" cx="384.099" cy="247.993" r="32.024"/>
<path style="fill:#662D91;" d="M384.094,215.97c-2.781,0-5.432,0.466-8.006,1.132c13.788,3.57,24.017,15.986,24.017,30.891
	c0,14.904-10.23,27.32-24.017,30.891c2.573,0.666,5.225,1.132,8.006,1.132c17.687,0,32.024-14.338,32.024-32.024
	C416.118,230.307,401.781,215.97,384.094,215.97z"/>
<circle style="fill:#93278F;" cx="320.049" cy="247.993" r="32.024"/>
<path style="fill:#662D91;" d="M320.047,215.97c-2.781,0-5.432,0.466-8.006,1.132c13.788,3.57,24.017,15.986,24.017,30.891
	c0,14.904-10.23,27.32-24.017,30.891c2.573,0.666,5.225,1.132,8.006,1.132c17.687,0,32.024-14.338,32.024-32.024
	C352.071,230.307,337.734,215.97,320.047,215.97z"/>
<circle style="fill:#93278F;" cx="320.049" cy="360.079" r="32.024"/>
<path style="fill:#662D91;" d="M320.047,328.052c-2.781,0-5.432,0.466-8.006,1.132c13.788,3.571,24.017,15.986,24.017,30.891
	c0,14.904-10.23,27.32-24.017,30.891c2.573,0.666,5.225,1.132,8.006,1.132c17.687,0,32.024-14.338,32.024-32.024
	C352.071,342.389,337.734,328.052,320.047,328.052z"/>
<circle style="fill:#93278F;" cx="256" cy="360.079" r="32.024"/>
<path style="fill:#662D91;" d="M256.001,328.052c-2.781,0-5.432,0.466-8.006,1.132c13.788,3.571,24.017,15.986,24.017,30.891
	c0,14.904-10.23,27.32-24.017,30.891c2.573,0.666,5.225,1.132,8.006,1.132c17.687,0,32.024-14.338,32.024-32.024
	C288.025,342.389,273.688,328.052,256.001,328.052z"/>
<circle style="fill:#93278F;" cx="191.951" cy="360.079" r="32.024"/>
<path style="fill:#662D91;" d="M191.954,328.052c-2.781,0-5.432,0.466-8.006,1.132c13.788,3.571,24.017,15.986,24.017,30.891
	c0,14.904-10.23,27.32-24.017,30.891c2.573,0.666,5.225,1.132,8.006,1.132c17.687,0,32.024-14.338,32.024-32.024
	C223.977,342.389,209.64,328.052,191.954,328.052z"/>
<circle style="fill:#93278F;" cx="288.025" cy="416.122" r="32.024"/>
<path style="fill:#662D91;" d="M288.025,384.093c-2.781,0-5.432,0.466-8.006,1.132c13.788,3.571,24.017,15.986,24.017,30.891
	c0,14.904-10.23,27.32-24.017,30.891c2.573,0.666,5.225,1.132,8.006,1.132c17.687,0,32.024-14.338,32.024-32.024
	C320.047,398.43,305.71,384.093,288.025,384.093z"/>
<circle style="fill:#93278F;" cx="223.975" cy="416.122" r="32.024"/>
<path style="fill:#662D91;" d="M223.977,384.093c-2.781,0-5.432,0.466-8.006,1.132c13.788,3.571,24.017,15.986,24.017,30.891
	c0,14.904-10.23,27.32-24.017,30.891c2.573,0.666,5.225,1.132,8.006,1.132c17.687,0,32.024-14.338,32.024-32.024
	C256.001,398.43,241.664,384.093,223.977,384.093z"/>
<circle style="fill:#93278F;" cx="256" cy="472.155" r="32.024"/>
<path style="fill:#662D91;" d="M256.001,440.134c-2.781,0-5.432,0.466-8.006,1.132c13.788,3.57,24.017,15.986,24.017,30.891
	c0,14.904-10.23,27.32-24.017,30.891c2.573,0.666,5.225,1.132,8.006,1.132c17.687,0,32.024-14.338,32.024-32.024
	C288.025,454.471,273.688,440.134,256.001,440.134z"/>
<circle style="fill:#93278F;" cx="256" cy="247.993" r="32.024"/>
<path style="fill:#662D91;" d="M256.001,215.97c-2.781,0-5.432,0.466-8.006,1.132c13.788,3.57,24.017,15.986,24.017,30.891
	c0,14.904-10.23,27.32-24.017,30.891c2.573,0.666,5.225,1.132,8.006,1.132c17.687,0,32.024-14.338,32.024-32.024
	C288.025,230.307,273.688,215.97,256.001,215.97z"/>
<circle style="fill:#93278F;" cx="191.951" cy="247.993" r="32.024"/>
<path style="fill:#662D91;" d="M191.954,215.97c-2.781,0-5.432,0.466-8.006,1.132c13.788,3.57,24.017,15.986,24.017,30.891
	c0,14.904-10.23,27.32-24.017,30.891c2.573,0.666,5.225,1.132,8.006,1.132c17.687,0,32.024-14.338,32.024-32.024
	C223.977,230.307,209.64,215.97,191.954,215.97z"/>
<circle style="fill:#93278F;" cx="127.912" cy="247.993" r="32.024"/>
<path style="fill:#662D91;" d="M127.908,215.97c-2.781,0-5.432,0.466-8.006,1.132c13.788,3.57,24.017,15.986,24.017,30.891
	c0,14.904-10.23,27.32-24.017,30.891c2.573,0.666,5.225,1.132,8.006,1.132c17.687,0,32.024-14.338,32.024-32.024
	C159.93,230.307,145.593,215.97,127.908,215.97z"/>
<circle style="fill:#93278F;" cx="352.074" cy="304.036" r="32.024"/>
<path style="fill:#662D91;" d="M352.071,272.011c-2.781,0-5.432,0.466-8.006,1.132c13.788,3.57,24.017,15.986,24.017,30.891
	c0,14.904-10.23,27.32-24.017,30.891c2.573,0.666,5.225,1.132,8.006,1.132c17.687,0,32.024-14.338,32.024-32.024
	C384.094,286.348,369.757,272.011,352.071,272.011z"/>
<circle style="fill:#93278F;" cx="288.025" cy="304.036" r="32.024"/>
<path style="fill:#662D91;" d="M288.025,272.011c-2.781,0-5.432,0.466-8.006,1.132c13.788,3.57,24.017,15.986,24.017,30.891
	c0,14.904-10.23,27.32-24.017,30.891c2.573,0.666,5.225,1.132,8.006,1.132c17.687,0,32.024-14.338,32.024-32.024
	C320.047,286.348,305.71,272.011,288.025,272.011z"/>
<circle style="fill:#93278F;" cx="223.975" cy="304.036" r="32.024"/>
<path style="fill:#662D91;" d="M223.977,272.011c-2.781,0-5.432,0.466-8.006,1.132c13.788,3.57,24.017,15.986,24.017,30.891
	c0,14.904-10.23,27.32-24.017,30.891c2.573,0.666,5.225,1.132,8.006,1.132c17.687,0,32.024-14.338,32.024-32.024
	C256.001,286.348,241.664,272.011,223.977,272.011z"/>
<circle style="fill:#93278F;" cx="159.926" cy="304.036" r="32.024"/>
<path style="fill:#662D91;" d="M159.93,272.011c-2.781,0-5.432,0.466-8.006,1.132c13.788,3.57,24.017,15.986,24.017,30.891
	c0,14.904-10.23,27.32-24.017,30.891c2.573,0.666,5.225,1.132,8.006,1.132c17.687,0,32.024-14.338,32.024-32.024
	C191.954,286.348,177.617,272.011,159.93,272.011z"/>
<path d="M423.936,247.994c0-20.53-15.61-37.479-35.584-39.612c2.279-5.013,3.56-10.573,3.56-16.429
	c0-21.969-17.873-39.842-39.842-39.842c-13.11,0-24.759,6.367-32.024,16.17c-7.265-9.802-18.914-16.17-32.024-16.17
	c-9.099,0-17.49,3.073-24.205,8.226v-32.838c6.715,5.153,15.105,8.226,24.205,8.226c18.448,0,79.292-27.261,91.303-32.726
	l15.639-7.117l-15.639-7.117c-0.177-0.08-17.975-8.167-37.708-16.144c-41.02-16.582-50.485-16.582-53.594-16.582
	c-10.336,0-19.764,3.958-26.852,10.436C251.59,28.332,217.018,0,175.943,0v15.637c39.833,0,72.24,32.406,72.24,72.24v72.461
	c-6.715-5.153-15.105-8.226-24.205-8.226c-13.11,0-24.759,6.367-32.024,16.17c-7.265-9.802-18.914-16.17-32.024-16.17
	c-21.969,0-39.842,17.873-39.842,39.842c0,5.857,1.28,11.416,3.56,16.429c-19.974,2.133-35.584,19.081-35.584,39.612
	s15.61,37.479,35.584,39.612c-2.279,5.013-3.56,10.573-3.56,16.429c0,20.529,15.61,37.479,35.584,39.612
	c-2.279,5.013-3.56,10.574-3.56,16.429c0,20.53,15.61,37.479,35.583,39.612c-2.279,5.013-3.56,10.573-3.56,16.429
	c0,20.529,15.61,37.479,35.584,39.612c-2.279,5.013-3.56,10.574-3.56,16.429c0,21.969,17.873,39.842,39.842,39.842
	c21.969,0,39.842-17.873,39.842-39.842c0-5.857-1.28-11.416-3.56-16.429c19.974-2.133,35.584-19.081,35.584-39.612
	c0-5.857-1.28-11.416-3.56-16.429c19.973-2.133,35.583-19.081,35.583-39.612c0-5.857-1.28-11.416-3.56-16.429
	c19.974-2.133,35.584-19.081,35.584-39.612c0-5.857-1.28-11.416-3.56-16.429C408.327,285.473,423.936,268.524,423.936,247.994z
	 M288.025,71.678c9.538,0,42.499,12.887,68.74,24.205c-26.241,11.318-59.204,24.205-68.74,24.205
	c-10.575,0-19.581-6.819-22.869-16.289h23.162V88.163h-23.228C268.32,78.592,277.377,71.678,288.025,71.678z M352.071,167.749
	c13.347,0,24.205,10.858,24.205,24.205c0,13.347-10.858,24.205-24.205,24.205c-13.347,0-24.205-10.858-24.205-24.205
	C327.866,178.607,338.724,167.749,352.071,167.749z M320.047,223.789c13.347,0,24.205,10.858,24.205,24.205
	s-10.858,24.205-24.205,24.205s-24.205-10.858-24.205-24.205S306.702,223.789,320.047,223.789z M231.796,360.076
	c0-13.347,10.858-24.205,24.205-24.205c13.347,0,24.205,10.858,24.205,24.205c0,13.347-10.858,24.205-24.205,24.205
	S231.796,373.423,231.796,360.076z M223.977,328.24c-13.347,0-24.205-10.858-24.205-24.205c0-13.347,10.858-24.205,24.205-24.205
	c13.347,0,24.205,10.858,24.205,24.205C248.183,317.382,237.324,328.24,223.977,328.24z M263.82,304.035
	c0-13.347,10.858-24.205,24.205-24.205c13.347,0,24.205,10.858,24.205,24.205c0,13.347-10.858,24.205-24.205,24.205
	C274.678,328.24,263.82,317.382,263.82,304.035z M288.025,167.749c13.347,0,24.205,10.858,24.205,24.205
	c0,13.347-10.858,24.205-24.205,24.205c-13.347,0-24.205-10.858-24.205-24.205C263.82,178.607,274.678,167.749,288.025,167.749z
	 M256.001,223.789c13.347,0,24.205,10.858,24.205,24.205s-10.858,24.205-24.205,24.205s-24.205-10.858-24.205-24.205
	S242.654,223.789,256.001,223.789z M223.977,167.749c13.347,0,24.205,10.858,24.205,24.205c0,13.347-10.858,24.205-24.205,24.205
	c-13.347,0-24.205-10.858-24.205-24.205C199.772,178.607,210.631,167.749,223.977,167.749z M191.954,223.789
	c13.347,0,24.205,10.858,24.205,24.205s-10.858,24.205-24.205,24.205c-13.347,0-24.205-10.858-24.205-24.205
	S178.608,223.789,191.954,223.789z M159.931,167.749c13.347,0,24.205,10.858,24.205,24.205c0,13.347-10.858,24.205-24.205,24.205
	s-24.205-10.858-24.205-24.205C135.726,178.607,146.585,167.749,159.931,167.749z M127.908,272.199
	c-13.347,0-24.205-10.858-24.205-24.205s10.858-24.205,24.205-24.205s24.205,10.858,24.205,24.205S141.254,272.199,127.908,272.199z
	 M159.931,328.24c-13.347,0-24.205-10.858-24.205-24.205c0-13.347,10.858-24.205,24.205-24.205s24.205,10.858,24.205,24.205
	C184.136,317.382,173.277,328.24,159.931,328.24z M191.954,384.281c-13.347,0-24.205-10.858-24.205-24.205
	c0-13.347,10.858-24.205,24.205-24.205c13.347,0,24.205,10.858,24.205,24.205C216.159,373.423,205.301,384.281,191.954,384.281z
	 M199.772,416.117c0-13.347,10.858-24.205,24.205-24.205c13.347,0,24.205,10.858,24.205,24.205s-10.858,24.205-24.205,24.205
	C210.631,440.322,199.772,429.464,199.772,416.117z M256.001,496.363c-13.347,0-24.205-10.858-24.205-24.205
	s10.858-24.205,24.205-24.205c13.347,0,24.205,10.858,24.205,24.205S269.348,496.363,256.001,496.363z M288.025,440.322
	c-13.347,0-24.205-10.858-24.205-24.205s10.858-24.205,24.205-24.205c13.347,0,24.205,10.858,24.205,24.205
	C312.229,429.464,301.37,440.322,288.025,440.322z M320.047,384.281c-13.347,0-24.205-10.858-24.205-24.205
	c0-13.347,10.858-24.205,24.205-24.205s24.205,10.858,24.205,24.205S333.394,384.281,320.047,384.281z M352.071,328.24
	c-13.347,0-24.205-10.858-24.205-24.205c0-13.347,10.858-24.205,24.205-24.205c13.347,0,24.205,10.858,24.205,24.205
	C376.276,317.382,365.417,328.24,352.071,328.24z M384.094,272.199c-13.347,0-24.205-10.858-24.205-24.205
	s10.858-24.205,24.205-24.205c13.347,0,24.205,10.858,24.205,24.205S397.441,272.199,384.094,272.199z"/>
<g>
</g>
<g>
</g>
<g>
</g>
<g>
</g>
<g>
</g>
<g>
</g>
<g>
</g>
<g>
</g>
<g>
</g>
<g>
</g>
<g>
</g>
<g>
</g>
<g>
</g>
<g>
</g>
<g>
</g>
</svg>
