<?xml version="1.0" encoding="iso-8859-1"?>
<!-- Generator: Adobe Illustrator 19.0.0, SVG Export Plug-In . SVG Version: 6.00 Build 0)  -->
<svg version="1.1" id="Layer_1" xmlns="http://www.w3.org/2000/svg" xmlns:xlink="http://www.w3.org/1999/xlink" x="0px" y="0px"
	 viewBox="0 0 511.999 511.999" style="enable-background:new 0 0 511.999 511.999;" xml:space="preserve">
<rect x="230.704" y="30.65" style="fill:#29ABE2;" width="121.302" height="32.417"/>
<rect x="230.704" y="30.65" style="fill:#0C6D95;" width="73.199" height="32.417"/>
<g>
	<rect x="85.341" y="456.785" style="fill:#FF1D25;" width="418.366" height="24.114"/>
	<path style="fill:#FF1D25;" d="M294.027,215.647c-68.84,0-129.15,34.635-165.001,87.41l-24.598-24.571L64.63,318.272l38.275,38.528
		c-5.808,18.888-9.185,38.97-9.185,59.792v39.66h402.596v-39.66C496.315,305.613,405.006,215.647,294.027,215.647z"/>
</g>
<polygon style="fill:#C1272D;" points="134.4,456.781 94.212,456.781 102.249,360.327 62.06,320.138 86.173,296.025 134.4,352.29 
	"/>
<rect x="94.209" y="424.629" style="fill:#29ABE2;" width="401.885" height="35.742"/>
<path style="fill:#FF4A51;" d="M294.027,215.647c-10.887,0-21.739,0.96-32.133,2.627c95.793,15.474,169.589,98.355,169.589,198.317
	v39.66h64.834v-39.66C496.315,305.613,405.006,215.647,294.027,215.647z"/>
<rect x="94.209" y="424.629" style="fill:#0C6D95;" width="40.189" height="32.151"/>
<rect x="423.762" y="424.629" style="fill:#54BCE8;" width="72.342" height="32.151"/>
<path style="fill:#29ABE2;" d="M399.646,248.157H182.627c0,0,41.703-32.356,120.567-32.151
	C382.058,216.212,399.646,248.157,399.646,248.157z"/>
<path style="fill:#54BCE8;" d="M303.194,215.827c-13.436-0.035-25.707,1.016-36.963,2.55c47.655,7.529,69.114,29.78,69.114,29.78
	h64.302C399.646,248.157,382.058,216.032,303.194,215.827z"/>
<rect x="79.077" y="474.028" width="432.922" height="15.686"/>
<rect x="59.621" y="245.151" transform="matrix(-0.7071 -0.7071 0.7071 -0.7071 -83.7571 527.9504)" width="15.685" height="72.341"/>
<rect x="42.565" y="236.14" transform="matrix(-0.7071 -0.7071 0.7071 -0.7071 -100.8167 486.785)" width="15.685" height="56.265"/>
<rect x="318.544" y="385.143" style="fill:#FFFFFF;" width="73.199" height="15.686"/>
<rect x="400.109" y="385.143" width="15.686" height="15.686"/>
<rect x="424.16" y="385.143" style="fill:#FFFFFF;" width="15.686" height="15.686"/>
<rect x="448.211" y="385.143" width="15.686" height="15.686"/>
<rect x="287.172" y="191.688" width="15.686" height="24.051"/>
<g>
	<rect x="270.441" y="159.271" style="fill:#FF1D25;" width="48.102" height="15.686"/>
	<rect x="287.172" y="166.591" style="fill:#FF1D25;" width="15.686" height="16.731"/>
</g>
<path d="M438.802,265.825V40.062h-63.788v15.686h48.102v196.537c-35.669-27.853-80.595-44.48-129.351-44.48
	c-47.016,0-91.875,15.928-127.893,44.236V55.748h40.782V40.062h-56.468v225.661c-8.035,7.738-15.507,16.155-22.292,25.232
	l-23.528-23.565l-50.824,50.847l40.247,40.773c-5.599,19.56-8.436,38.909-8.436,57.581v48.027h418.282v-48.027
	C503.635,357.384,478.732,303.858,438.802,265.825z M293.766,223.49c28.663,0,55.891,6.213,80.405,17.347h-160.01
	C238.785,229.566,265.863,223.49,293.766,223.49z M487.95,417.561H126.136v15.686H487.95v15.686H101.039v-32.342
	c0-18.543,3.057-37.885,9.085-57.488l1.377-4.479l-35.85-36.318l28.709-28.722l25.69,25.731l5.333-7.85
	c13.832-20.362,31.196-37.528,50.955-50.943H402.21c51.679,34.734,85.74,93.509,85.74,160.068v0.971H487.95z"/>
<g>
	<rect x="198.288" y="22.285" style="fill:#FF1D25;" width="15.686" height="48.102"/>
	<rect x="366.646" y="22.285" style="fill:#FF1D25;" width="15.686" height="48.102"/>
</g>
<path d="M359.328,71.433H222.341V23.331h136.987V71.433z M238.026,55.748h105.616V39.016H238.026L238.026,55.748L238.026,55.748z"/>
<path d="M6.224,249.701l-4.019-16.076c-2.941-11.761-2.941-24.194,0-35.956c2.318-9.272,2.318-19.074,0-28.346
	c-2.941-11.761-2.941-24.194,0-35.957l4.019-16.075l15.218,3.803l-4.019,16.076c-2.318,9.273-2.318,19.076,0,28.347
	c2.941,11.761,2.941,24.196,0,35.957c-2.318,9.271-2.318,19.074,0,28.346l4.019,16.077L6.224,249.701z"/>
<path d="M38.376,209.511l-4.019-16.076c-2.941-11.76-2.941-24.194,0-35.956c2.317-9.271,2.317-19.074,0-28.347
	c-2.941-11.76-2.941-24.193,0-35.954l4.019-16.075l15.218,3.803l-4.019,16.076c-2.318,9.272-2.318,19.075,0,28.346
	c2.939,11.762,2.939,24.196,0,35.955c-2.318,9.273-2.318,19.075,0,28.347l4.019,16.077L38.376,209.511z"/>
<g>
</g>
<g>
</g>
<g>
</g>
<g>
</g>
<g>
</g>
<g>
</g>
<g>
</g>
<g>
</g>
<g>
</g>
<g>
</g>
<g>
</g>
<g>
</g>
<g>
</g>
<g>
</g>
<g>
</g>
</svg>
