<?xml version="1.0" encoding="iso-8859-1"?>
<!-- Generator: Adobe Illustrator 19.0.0, SVG Export Plug-In . SVG Version: 6.00 Build 0)  -->
<svg version="1.1" id="Layer_1" xmlns="http://www.w3.org/2000/svg" xmlns:xlink="http://www.w3.org/1999/xlink" x="0px" y="0px"
	 viewBox="0 0 512 512" style="enable-background:new 0 0 512 512;" xml:space="preserve">
<path style="fill:#8CC63F;" d="M335.762,7.391v288.775c0,13.268-10.813,23.979-24.082,23.979h-0.057l0.525-272.256"/>
<path style="fill:#C7B299;" d="M332.933,320.19h-20.876V216.084h24.024v100.958C336.081,318.781,334.672,320.19,332.933,320.19z"/>
<path id="SVGCleanerId_0" style="fill:#BDCCD4;" d="M295.881,408.304H119.86c0,53.525,43.025,96.087,96.099,96.087
	s96.019-43.018,96.019-96.092"/>
<g>
	<path id="SVGCleanerId_0_1_" style="fill:#BDCCD4;" d="M295.881,408.304H119.86c0,53.525,43.025,96.087,96.099,96.087
		s96.019-43.018,96.019-96.092"/>
</g>
<path style="fill:#CAD6DD;" d="M296.04,408.304h-16.017c0,47.228-34.65,87.006-80.082,94.646c5.219,0.877,10.547,1.447,16.017,1.447
	c53.074,0,96.099-42.567,96.099-96.092H296.04V408.304z"/>
<rect x="119.864" y="408.281" style="fill:#6B7E87;" width="192.197" height="24.024"/>
<path d="M304.277,335.888v72.393c0,5.384-0.514,10.647-1.447,15.766H159.444v15.743h138.956
	c-12.744,32.988-44.861,56.468-82.396,56.468c-23.604,0-45.768-9.161-62.409-25.798c-14.822-14.817-23.725-34.044-25.524-54.809
	h167.811v-15.743H112.217v7.871c0,27.953,10.709,54.166,30.362,73.813C162.194,501.202,188.198,512,216.006,512
	c57.354,0,104.015-46.528,104.015-103.719v-72.393L304.277,335.888L304.277,335.888z"/>
<rect x="119.56" y="424.045" width="24.139" height="15.743"/>
<path d="M352.03,0c-26.331,0-47.753,21.493-47.753,47.911v184.075h-8.396v15.743h8.396v8.396h-8.396v15.743h8.396v8.396h-8.396
	v15.743h8.396v24.664l0.058,7.871h7.871c17.618,0,31.952-14.523,31.952-32.375V31.529h-15.743v176.318h-8.396V47.911
	c0-17.738,14.36-32.169,32.01-32.169s32.01,14.431,32.01,32.169v31.896h15.743V47.911C399.783,21.493,378.361,0,352.03,0z
	 M328.416,223.59v72.576c0,6.125-3.426,11.604-8.396,14.488V223.59L328.416,223.59L328.416,223.59z"/>
<g>
</g>
<g>
</g>
<g>
</g>
<g>
</g>
<g>
</g>
<g>
</g>
<g>
</g>
<g>
</g>
<g>
</g>
<g>
</g>
<g>
</g>
<g>
</g>
<g>
</g>
<g>
</g>
<g>
</g>
</svg>
