<?xml version="1.0" encoding="iso-8859-1"?>
<!-- Generator: Adobe Illustrator 19.0.0, SVG Export Plug-In . SVG Version: 6.00 Build 0)  -->
<svg version="1.1" id="Layer_1" xmlns="http://www.w3.org/2000/svg" xmlns:xlink="http://www.w3.org/1999/xlink" x="0px" y="0px"
	 viewBox="0 0 511.999 511.999" style="enable-background:new 0 0 511.999 511.999;" xml:space="preserve">
<path style="fill:#C1272D;" d="M408.104,207.967L408.104,207.967c-19.896,0-36.025-16.129-36.025-36.025V79.879h72.05v92.063
	C444.129,191.838,428.001,207.967,408.104,207.967z"/>
<path style="fill:#911D22;" d="M404.102,79.879V7.829l0,0c22.107,0,40.027,17.921,40.027,40.027v32.023"/>
<g>
	<path style="fill:#C1272D;" d="M372.079,63.868V47.856c0-8.843,7.168-16.011,16.011-16.011l0,0h16.011v48.034H372.08
		L372.079,63.868L372.079,63.868z"/>
	<path style="fill:#C1272D;" d="M103.896,207.967L103.896,207.967c19.896,0,36.025-16.129,36.025-36.025V79.879h-72.05v92.063
		C67.871,191.838,83.999,207.967,103.896,207.967z"/>
</g>
<path style="fill:#911D22;" d="M107.898,79.879V7.829l0,0c-22.107,0-40.027,17.921-40.027,40.027v32.023"/>
<g>
	<path style="fill:#C1272D;" d="M139.92,63.868V47.856c0-8.843-7.168-16.011-16.011-16.011l0,0h-16.011v48.034h32.022V63.868z"/>
	<path style="fill:#C1272D;" d="M256.297,504.17L256.297,504.17c-11.054,0-20.014-8.961-20.014-20.014V432.12h40.027v52.036
		C276.311,495.21,267.35,504.17,256.297,504.17z"/>
</g>
<g>
	<path style="fill:#911D22;" d="M195.959,504.17L195.959,504.17v-32.022c0-22.107,17.921-40.027,40.027-40.027l0,0v32.023
		C235.986,486.249,218.065,504.17,195.959,504.17z"/>
	<path style="fill:#911D22;" d="M316.634,504.17L316.634,504.17c-22.107,0-40.027-17.921-40.027-40.027V432.12l0,0
		c22.107,0,40.027,17.921,40.027,40.027V504.17z"/>
</g>
<polygon style="fill:#C1272D;" points="276.014,432.12 235.986,432.12 219.976,272.011 292.024,272.011 "/>
<g>
	<path style="fill:#911D22;" d="M285.159,272.011h-58.316c-12.635,0-22.878-10.243-22.878-22.878V134.778
		c0-12.635,10.243-22.878,22.878-22.878h58.316c12.635,0,22.878,10.243,22.878,22.878v114.354
		C308.036,261.768,297.793,272.011,285.159,272.011z"/>
	<rect x="227.976" y="304.034" style="fill:#911D22;" width="56.038" height="32.023"/>
	<rect x="227.976" y="368.077" style="fill:#911D22;" width="56.038" height="32.023"/>
</g>
<path style="fill:#C1272D;" d="M309.247,132.353c0-11.108-9.005-20.112-20.112-20.112h-20.6v159.716h20.6
	c11.108,0,20.112-9.005,20.112-20.112V132.353z"/>
<g>
	<circle style="fill:#4D4D4D;" cx="308.032" cy="47.856" r="16.011"/>
	<circle style="fill:#4D4D4D;" cx="203.967" cy="47.856" r="16.011"/>
</g>
<path d="M451.958,63.868H436.3V47.856c0-15.055-10.386-27.729-24.369-31.235v47.247h-15.658V0h7.829
	c26.389,0,47.856,21.468,47.856,47.856V63.868z"/>
<path d="M379.909,63.868H364.25V47.856c0-13.146,10.695-23.84,23.84-23.84v15.658c-4.512,0-8.182,3.67-8.182,8.182V63.868z"/>
<path d="M115.727,63.868h-15.658V16.621c-13.984,3.505-24.37,16.18-24.37,31.235v16.011H60.041V47.856
	C60.042,21.468,81.51,0,107.898,0h7.829V63.868z"/>
<path d="M147.75,63.868h-15.658V47.856c0-4.512-3.67-8.182-8.181-8.182V24.016c13.146,0,23.839,10.695,23.839,23.84V63.868z"/>
<path d="M288.277,425.737l11.325-150.088c9.702-5.524,16.263-15.956,16.263-27.896V136.158c0-11.806-6.415-22.138-15.937-27.708
	c9.415-10.399,15.067-23.782,15.84-38.047c9.361-3.219,16.108-12.107,16.108-22.546c0-13.146-10.695-23.84-23.84-23.84
	s-23.839,10.695-23.839,23.84c0,10.355,6.639,19.186,15.883,22.47c-0.956,13.423-7.706,25.722-18.555,33.746h-51.045
	c-10.85-8.024-17.6-20.323-18.556-33.746c9.244-3.284,15.883-12.113,15.883-22.47c0-13.146-10.695-23.84-23.84-23.84
	s-23.84,10.694-23.84,23.839c0,10.439,6.748,19.327,16.108,22.546c0.775,14.265,6.425,27.648,15.84,38.047
	c-9.522,5.571-15.938,15.902-15.938,27.708v111.594c0,13.547,8.444,25.152,20.341,29.85l11.125,147.44
	c-22.402,3.977-39.472,23.578-39.472,47.106v39.852h7.829c13.978,0,26.574-6.025,35.332-15.614
	c4.537,9.237,14.039,15.614,25.006,15.614c10.967,0,20.47-6.376,25.007-15.614c8.757,9.588,21.353,15.614,35.332,15.614h7.829
	v-39.852C324.463,449.784,309.042,430.96,288.277,425.737z M308.036,39.674c4.512,0,8.182,3.67,8.182,8.182s-3.67,8.182-8.182,8.182
	c-4.512,0-8.181-3.67-8.181-8.182S303.524,39.674,308.036,39.674z M203.964,39.674c4.512,0,8.182,3.67,8.182,8.182
	s-3.67,8.182-8.182,8.182s-8.182-3.67-8.182-8.182S199.453,39.674,203.964,39.674z M211.794,231.245h16.03v-15.658h-16.03v-79.429
	c0-9.059,7.37-16.428,16.429-16.428h55.556c9.059,0,16.428,7.37,16.428,16.428v79.429h-16.012v15.658h16.012v16.507
	c0,9.059-7.37,16.428-16.428,16.428h-55.556c-9.059,0-16.429-7.37-16.429-16.428V231.245z M228.157,464.143
	c0,15.055-10.386,27.73-24.37,31.236v-23.231c0-15.055,10.386-27.73,24.37-31.236V464.143z M243.247,424.291l-1.175-15.584h18.114
	v-15.658h-19.296l-3.702-49.063h22.997v-15.658h-24.179l-3.659-48.488h51.235l-1.217,16.127h-30.533v15.658h29.351l-3.623,48.019
	h-25.728v15.658h24.546l-3.696,48.989h-3.906h-24.962H243.247z M268.481,484.156c0,6.72-5.466,12.185-12.184,12.185
	s-12.184-5.466-12.184-12.185v-44.207h24.37v44.207H268.481z M308.805,495.379c-13.983-3.506-24.369-16.181-24.369-31.236v-23.231
	c13.983,3.506,24.369,16.181,24.369,31.236V495.379z"/>
<path d="M364.25,72.05v99.892c0,19.809,13.205,36.583,31.273,42.005c-2.669,10.457-12.167,18.212-23.444,18.212h-48.033v15.658
	h48.033c19.337,0,35.494-13.846,39.096-32.142c22.752-1.584,40.783-20.588,40.783-43.735V72.05H364.25z M436.3,171.942
	c0,15.548-12.649,28.196-28.196,28.196c-15.548,0-28.196-12.648-28.196-28.196V87.708H436.3L436.3,171.942L436.3,171.942z"/>
<path d="M116.477,213.947c18.067-5.422,31.272-22.197,31.272-42.005V72.05H60.041v99.892c0,23.147,18.031,42.15,40.783,43.735
	c3.601,18.295,19.76,32.142,39.096,32.142h48.033V232.16h-48.033C128.644,232.159,119.146,224.404,116.477,213.947z M75.7,171.942
	V87.708h56.391v84.234c0,15.548-12.649,28.196-28.196,28.196C88.348,200.138,75.7,187.489,75.7,171.942z"/>
<g>
</g>
<g>
</g>
<g>
</g>
<g>
</g>
<g>
</g>
<g>
</g>
<g>
</g>
<g>
</g>
<g>
</g>
<g>
</g>
<g>
</g>
<g>
</g>
<g>
</g>
<g>
</g>
<g>
</g>
</svg>
