<?xml version="1.0" encoding="iso-8859-1"?>
<!-- Generator: Adobe Illustrator 19.0.0, SVG Export Plug-In . SVG Version: 6.00 Build 0)  -->
<svg version="1.1" id="Layer_1" xmlns="http://www.w3.org/2000/svg" xmlns:xlink="http://www.w3.org/1999/xlink" x="0px" y="0px"
	 viewBox="0 0 511.999 511.999" style="enable-background:new 0 0 511.999 511.999;" xml:space="preserve">
<g>
	<rect x="207.805" y="239.99" style="fill:#00A99D;" width="96.508" height="24.013"/>
	<path style="fill:#00A99D;" d="M231.985,239.991V31.88c0-13.261,10.751-24.013,24.013-24.013l0,0
		c13.261,0,24.013,10.751,24.013,24.013v208.111"/>
</g>
<path style="fill:#33BAB1;" d="M256.086,7.867c-4.396,0-8.475,1.268-12.019,3.33c7.148,4.16,11.993,11.817,11.993,20.683v208.385
	h24.127V31.88C280.188,18.618,269.349,7.867,256.086,7.867z"/>
<rect x="231.984" y="207.975" style="fill:#7AC943;" width="48.025" height="32.018"/>
<path d="M399.936,456.179c0-0.024,0.002-0.048,0.002-0.071c0-0.056-0.005-0.109-0.005-0.165
	c-0.219-76.876-60.738-139.675-136.529-143.468v-8.221h-15.735v8.293c-75.382,4.374-135.388,66.717-135.605,143.394
	c0,0.056-0.005,0.109-0.005,0.165c0,0.023,0.002,0.047,0.002,0.071c0,0.061-0.002,0.12-0.002,0.18h0.008
	c0.344,36.141,74.316,55.641,143.932,55.641c69.617,0,143.588-19.5,143.933-55.641h0.008
	C399.938,456.298,399.936,456.239,399.936,456.179z M256.143,328.027c60.63,0,111.554,42.392,124.74,99.215
	c-26.521-17.704-76.744-27.03-124.886-27.03c-48.163,0-98.409,9.334-124.919,27.054C144.228,370.14,195.311,328.027,256.143,328.027
	z M344.177,484.448c-5.283,1.668-10.9,3.164-16.784,4.494v-65.673c6.036,1.376,11.639,2.903,16.784,4.542V484.448z M167.945,427.728
	c4.971-1.565,10.231-2.982,15.735-4.251v65.255c-5.637-1.308-10.888-2.748-15.735-4.29V427.728z M199.415,420.369
	c5.43-0.901,11.04-1.663,16.784-2.294v76.088c-5.849-0.643-11.451-1.416-16.784-2.307V420.369z M231.934,416.719
	c5.169-0.33,10.42-0.555,15.735-0.67v80.126c-5.4-0.113-10.647-0.335-15.735-0.657V416.719z M263.404,416.018
	c5.772,0.108,11.366,0.342,16.784,0.686v78.784c-5.509,0.354-11.109,0.592-16.784,0.701L263.404,416.018L263.404,416.018z
	 M295.923,418.064c5.468,0.602,10.718,1.322,15.735,2.143v71.781c-5.103,0.831-10.357,1.543-15.735,2.136V418.064z M127.795,456.162
	c0-0.05,0.002-0.1,0.002-0.15c0.077-7.305,9.188-15.508,24.412-22.377v44.855C136.421,471.36,127.839,463.185,127.795,456.162z
	 M359.912,478.522v-44.741c15.675,7.103,24.209,15.234,24.288,22.227c0,0.051,0.002,0.102,0.002,0.153
	C384.156,463.457,375.089,471.652,359.912,478.522z"/>
<polygon points="304.315,256 207.807,256 207.807,271.735 247.669,271.735 247.669,295.862 263.404,295.862 263.404,271.735 
	304.315,271.735 "/>
<path d="M287.878,231.873V31.88c0-17.579-14.302-31.88-31.88-31.88c-17.579,0-31.88,14.301-31.88,31.88v199.993h-7.919v15.735
	h79.724v-15.735H287.878z M255.998,15.735c8.903,0,16.145,7.242,16.145,16.145v168.523h-32.291V31.88
	C239.852,22.977,247.095,15.735,255.998,15.735z M239.852,216.138h32.29v15.735h-32.29V216.138z"/>
<g>
	<rect x="247.667" y="176.274" style="fill:#FFFFFF;" width="15.735" height="15.735"/>
	<rect x="247.667" y="152.147" style="fill:#FFFFFF;" width="15.735" height="15.735"/>
	<rect x="247.667" y="128.02" style="fill:#FFFFFF;" width="15.735" height="15.735"/>
</g>
<g>
</g>
<g>
</g>
<g>
</g>
<g>
</g>
<g>
</g>
<g>
</g>
<g>
</g>
<g>
</g>
<g>
</g>
<g>
</g>
<g>
</g>
<g>
</g>
<g>
</g>
<g>
</g>
<g>
</g>
</svg>
