<?xml version="1.0" encoding="iso-8859-1"?>
<!-- Generator: Adobe Illustrator 19.0.0, SVG Export Plug-In . SVG Version: 6.00 Build 0)  -->
<svg version="1.1" id="Layer_1" xmlns="http://www.w3.org/2000/svg" xmlns:xlink="http://www.w3.org/1999/xlink" x="0px" y="0px"
	 viewBox="0 0 512 512" style="enable-background:new 0 0 512 512;" xml:space="preserve">
<rect x="208.033" y="7.299" style="fill:#29ABE2;" width="95.935" height="23.984"/>
<path style="fill:#BDCCD4;" d="M288.326,55.267v48.132c0,13.277,10.865,23.932,24.14,24.016
	c13.191,0.084,23.827,10.804,23.827,24.015v331.985c0,11.18-9.063,20.243-20.243,20.243h-120.1c-11.18,0-20.243-9.063-20.243-20.243
	V151.43c0-13.277,10.865-23.932,24.14-24.016c13.191-0.084,23.827-10.804,23.827-24.015V55.267"/>
<path style="fill:#CAD6DD;" d="M312.31,127.414c-13.263,0-23.984-10.752-23.984-24.016V55.267h-64.652v8.342h47.967v47.795
	c0,13.263,11.242,24.016,24.505,24.016c13.263,0,24.505,10.752,24.505,24.016v344.221h15.642V151.43
	C336.293,138.166,325.573,127.414,312.31,127.414z"/>
<path style="fill:#6B7E87;" d="M199.69,127.414c13.263,0,23.984-10.752,23.984-24.016V55.267h64.652v8.342h-47.967v47.795
	c0,13.263-10.721,24.016-23.984,24.016s-23.984,10.752-23.984,24.016v344.221h-16.684V151.43
	C175.707,138.166,186.427,127.414,199.69,127.414z"/>
<path d="M312.31,39.625H200.733V0H312.31V39.625z M216.375,23.984h80.293v-8.342h-80.293V23.984z"/>
<path style="fill:#FFFFFF;" d="M312.159,457.11c0,12.444-10.089,22.533-22.533,22.533H222.62c-12.444,0-22.533-10.089-22.533-22.533
	V287.518l7.462-1.866c16.04-4.009,32.89-3.363,48.574,1.866l0,0c15.684,5.228,32.534,5.875,48.574,1.866l7.462-1.866v40.026"/>
<polyline style="fill:#29ABE2;" points="336.293,327.43 256,327.43 256,455.69 336.293,455.69 "/>
<rect x="288.149" y="359.568" style="fill:#FF931E;" width="48.03" height="24.015"/>
<g>
	<rect x="192.391" y="159.544" style="fill:#FFFFFF;" width="15.642" height="56.31"/>
	<rect x="216.375" y="215.853" style="fill:#FFFFFF;" width="15.642" height="31.283"/>
	<rect x="232.016" y="183.527" style="fill:#FFFFFF;" width="15.642" height="15.642"/>
</g>
<rect x="271.642" y="423.365" width="16.684" height="15.642"/>
<rect x="296.668" y="423.365" width="15.642" height="15.642"/>
<path d="M311.995,119.593c-9.026-0.057-16.369-7.321-16.369-16.194v-39.79h8.342V47.967h-95.935v15.642h8.342v39.79
	c0,8.873-7.202,16.138-16.057,16.193c-17.596,0.113-31.911,14.395-31.911,31.837v332.579c0,15.435,12.557,27.992,27.992,27.992
	h119.201c15.435,0,27.992-12.557,27.992-27.992V151.43C343.593,133.987,329.418,119.706,311.995,119.593z M315.601,496.358H196.399
	c-6.81,0-12.351-5.54-12.351-12.351V151.43c0-8.872,7.343-16.138,16.369-16.195c17.424-0.109,31.598-14.391,31.598-31.835V63.609
	h47.967v39.79c0,17.442,14.316,31.724,31.912,31.836c8.853,0.057,16.056,7.321,16.056,16.194V320.13h-7.971v-42.629l-17.18,4.295
	c-14.621,3.657-29.908,3.068-44.205-1.698c-17.125-5.708-35.433-6.411-52.945-2.033l-13.385,3.347v175.696
	c0,16.737,13.617,30.354,30.354,30.354h67.006c14.725,0,27.031-10.541,29.777-24.474h8.548v21.018
	C327.951,490.818,322.411,496.358,315.601,496.358z M279.984,351.413v39.625h47.967v8.342h-23.984v15.642h23.984v8.342h-7.299
	v15.642h7.299v8.342h-63.609V335.772h63.609v15.642H279.984z M327.951,367.055v8.342h-32.326v-8.342H327.951z M304.339,320.13
	h-55.638V462.99h54.403c-2.274,5.192-7.456,8.832-13.478,8.832H222.62c-8.113,0-14.712-6.6-14.712-14.712V293.624l1.538-0.384
	c14.62-3.656,29.906-3.067,44.204,1.698c16.39,5.462,33.866,6.342,50.688,2.568v22.624H304.339z"/>
<g>
</g>
<g>
</g>
<g>
</g>
<g>
</g>
<g>
</g>
<g>
</g>
<g>
</g>
<g>
</g>
<g>
</g>
<g>
</g>
<g>
</g>
<g>
</g>
<g>
</g>
<g>
</g>
<g>
</g>
</svg>
