<?xml version="1.0" encoding="iso-8859-1"?>
<!-- Generator: Adobe Illustrator 19.0.0, SVG Export Plug-In . SVG Version: 6.00 Build 0)  -->
<svg version="1.1" id="Layer_1" xmlns="http://www.w3.org/2000/svg" xmlns:xlink="http://www.w3.org/1999/xlink" x="0px" y="0px"
	 viewBox="0 0 512 512" style="enable-background:new 0 0 512 512;" xml:space="preserve">
<path style="fill:#ED1E79;" d="M400.021,503.931l24.003-200.03l-24.003,8.001l-24.003-8.001l-24.003,8.001l-24.003-8.001
	l-24.003,8.001l-24.003-8.001l-24.003,8.001l-24.003-8.001l-24.003,8.001l-24.003-8.001l-24.003,8.001l-24.003-8.001l-24.003,8.001
	l-24.003-8.001l23.999,200.03C111.977,503.931,399.02,502.931,400.021,503.931z"/>
<circle style="fill:#C1272D;" cx="255.997" cy="71.868" r="24.003"/>
<rect x="111.977" y="479.93" style="fill:#93278F;" width="288.04" height="24.003"/>
<rect x="111.977" y="479.93" style="fill:#6E1D6B;" width="40.004" height="24.003"/>
<rect x="364.224" y="479.93" style="fill:#BE7DBC;" width="40.004" height="24.003"/>
<path style="fill:#FF1D25;" d="M255.999,47.863c-4.394,0-8.458,1.267-12.002,3.329c7.145,4.159,12.002,11.813,12.002,20.674
	s-4.857,16.516-12.002,20.674c3.543,2.061,7.607,3.329,12.002,3.329c13.257,0,24.003-10.746,24.003-24.003
	S269.256,47.863,255.999,47.863z"/>
<path style="fill:#FF7BAC;" d="M312.007,175.881H199.991c-13.257,0-24.003-10.747-24.003-24.003l0,0
	c0-13.257,10.747-24.003,24.003-24.003h112.017c13.257,0,24.003,10.747,24.003,24.003l0,0
	C336.011,165.135,325.264,175.881,312.007,175.881z"/>
<path style="fill:#FF95BD;" d="M312.007,127.57H264c13.257,0,24.003,11.359,24.003,24.616S277.257,176.802,264,176.802h48.008
	c13.257,0,24.003-11.359,24.003-24.616S325.264,127.57,312.007,127.57z"/>
<path style="fill:#FF7BAC;" d="M296.005,127.875h-80.012c-8.838,0-16.003-7.165-16.003-16.003l0,0
	c0-8.838,7.165-16.003,16.003-16.003h80.012c8.838,0,16.003,7.165,16.003,16.003l0,0
	C312.007,120.71,304.842,127.875,296.005,127.875z"/>
<path style="fill:#FF95BD;" d="M296.005,113.237c0,8-6.485,14.333-14.486,14.333h16.003c8.001,0,14.421-6.181,14.421-14.181v-3.034
	c0-8-6.42-14.21-14.421-14.21h-16.003c8.001,0,14.486,6.271,14.486,14.272"/>
<path style="fill:#93278F;" d="M103.976,311.929c0-55.517,34.218-112.082,84.059-135.127h135.939
	c49.835,23.045,84.047,79.609,84.047,135.127H103.976z"/>
<path style="fill:#A952A5;" d="M323.975,176.802h-48.008c49.833,23.045,84.047,79.609,84.047,135.127h48.008
	C408.022,256.412,373.809,199.847,323.975,176.802z"/>
<path style="fill:#6E1D6B;" d="M183.988,176.802h48.008c-49.833,23.045-84.047,79.609-84.047,135.127H99.941
	C99.941,256.412,134.155,199.847,183.988,176.802z"/>
<g>
	<polygon style="fill:#D4145A;" points="111.977,312.226 135.98,480.575 111.977,480.575 87.974,304.387 	"/>
	<rect x="167.986" y="311.032" style="fill:#D4145A;" width="16.003" height="24.003"/>
	<rect x="288.008" y="311.032" style="fill:#D4145A;" width="16.003" height="24.003"/>
	<polygon style="fill:#D4145A;" points="400.021,312.226 376.016,480.575 400.021,480.575 424.024,304.387 	"/>
</g>
<rect x="200.152" y="204.57" transform="matrix(-0.7072 -0.707 0.707 -0.7072 202.4802 515.6249)" style="fill:#FF1D25;" width="15.712" height="22.631"/>
<rect x="296.164" y="260.577" transform="matrix(-0.7072 -0.707 0.707 -0.7072 326.795 679.1214)" style="fill:#FFFFFF;" width="15.712" height="22.631"/>
<rect x="272.167" y="204.566" transform="matrix(-0.7072 -0.707 0.707 -0.7072 325.4277 566.5334)" style="fill:#FBB03B;" width="15.712" height="22.631"/>
<rect x="236.692" y="240.026" transform="matrix(-0.7071 -0.7071 0.7071 -0.7071 248.0956 598.5281)" style="fill:#29ABE2;" width="22.631" height="15.712"/>
<g>
	
		<rect x="188.671" y="264.038" transform="matrix(-0.7071 -0.7071 0.7071 -0.7071 149.1406 605.5638)" style="fill:#FBB03B;" width="22.631" height="15.712"/>
	
		<rect x="356.714" y="272.035" transform="matrix(-0.7071 -0.7071 0.7071 -0.7071 430.3522 738.0409)" style="fill:#FBB03B;" width="22.631" height="15.712"/>
</g>
<rect x="332.71" y="232.023" transform="matrix(-0.7071 -0.7071 0.7071 -0.7071 417.6679 652.7628)" style="fill:#29ABE2;" width="22.631" height="15.712"/>
<rect x="316.683" y="192.021" transform="matrix(-0.7071 -0.7071 0.7071 -0.7071 418.594 573.1417)" style="fill:#FF1D25;" width="22.631" height="15.712"/>
<rect x="152.113" y="244.572" transform="matrix(-0.707 -0.7072 0.7072 -0.707 92.1036 549.9329)" style="fill:#FFFFFF;" width="15.712" height="22.631"/>
<path d="M415.308,298.617c-2.112-25.599-10.279-50.137-23.977-71.863c-13.974-22.161-33.123-40.506-55.718-53.503
	c5.126-5.656,8.254-13.157,8.254-21.373c0-15.451-11.058-28.364-25.675-31.252c1.074-2.713,1.671-5.664,1.671-8.754
	c0-13.155-10.703-23.858-23.858-23.858h-12.558c2.799-4.739,4.412-10.257,4.412-16.148c0-14.857-10.224-27.369-24.003-30.877V27.86
	c0-6.699,5.449-12.148,12.148-12.148c6.698,0,12.147,5.449,12.147,12.148v4h15.712v-4C303.861,12.499,291.363,0,276.002,0
	c-15.361,0-27.86,12.499-27.86,27.86v13.128c-13.78,3.508-24.003,16.02-24.003,30.877c0,5.891,1.613,11.409,4.412,16.148h-12.558
	c-13.155,0-23.858,10.703-23.858,23.858c0,3.09,0.597,6.042,1.671,8.754c-14.617,2.888-25.674,15.801-25.674,31.252
	c0,8.218,3.129,15.719,8.256,21.375c-22.594,12.995-41.744,31.335-55.716,53.493c-13.699,21.723-21.866,46.263-23.98,71.858
	l-17.988-5.915L105.007,512h301.984l26.306-219.34L415.308,298.617z M255.999,55.718c8.904,0,16.147,7.243,16.147,16.147
	s-7.243,16.148-16.147,16.148c-8.904,0-16.147-7.244-16.147-16.148S247.095,55.718,255.999,55.718z M215.992,103.726h80.013
	c4.492,0,8.145,3.654,8.145,8.145c0,4.492-3.654,8.146-8.145,8.146h-80.013c-4.492,0-8.145-3.655-8.145-8.146
	C207.847,107.38,211.5,103.726,215.992,103.726z M199.991,135.731h16.001h80.013h16.003c8.904,0,16.147,7.243,16.147,16.147
	c0,8.904-7.243,16.147-16.147,16.147H199.991c-8.904,0-16.147-7.243-16.147-16.147C183.843,142.974,191.087,135.731,199.991,135.731
	z M133.961,235.129c13.913-22.063,34.794-40.606,58.014-52.438c2.564,0.669,5.245,1.046,8.016,1.046h112.017
	c2.76,0,5.43-0.375,7.986-1.039c23.219,11.831,44.136,30.373,58.048,52.435c12.999,20.618,20.474,44.182,21.866,68.501
	l-23.885-7.988l-24.006,7.989l-24.004-8.009l-23.777,7.922h-0.455l-23.778-7.926L256,303.623l-24.003-8.002l-24.003,8.001
	l-24.004-8.002l-24.003,8.002l-24.003-8.002l-23.888,7.963C113.493,279.283,120.967,255.734,133.961,235.129z M395.814,473.243
	h-52.447v15.712h50.562l-0.88,7.332H118.948l-0.88-7.332h210.634v-15.712H116.184L97.243,315.326l14.751,4.852l17.38-5.794
	l14.814,118.511l15.592-1.949l-14.456-115.651l14.662,4.888l14.736-4.912v19.703h15.712v-20.644l17.559,5.852l24.003-8.001
	l16.05,5.35v114.858h15.712V317.598l16.245-5.414l15.18,5.061v17.729h15.712V317.89l17.113-5.7l24.002,8.007l14.662-4.879
	l-14.453,115.629l15.592,1.949l14.808-118.476l17.389,5.816l14.742-4.881L395.814,473.243z"/>
<rect x="248.143" y="172.566" transform="matrix(-0.7071 -0.7071 0.7071 -0.7071 306.9938 494.9238)" style="fill:#FFFFFF;" width="15.712" height="22.631"/>
<rect x="156.672" y="192.025" transform="matrix(-0.7071 -0.7071 0.7071 -0.7071 145.4348 460.0026)" style="fill:#FBB03B;" width="22.631" height="15.712"/>
<rect x="112.145" y="268.582" transform="matrix(-0.7072 -0.707 0.707 -0.7072 6.9774 562.6853)" style="fill:#29ABE2;" width="15.712" height="22.631"/>
<g>
</g>
<g>
</g>
<g>
</g>
<g>
</g>
<g>
</g>
<g>
</g>
<g>
</g>
<g>
</g>
<g>
</g>
<g>
</g>
<g>
</g>
<g>
</g>
<g>
</g>
<g>
</g>
<g>
</g>
</svg>
