<?xml version="1.0" encoding="iso-8859-1"?>
<!-- Generator: Adobe Illustrator 19.0.0, SVG Export Plug-In . SVG Version: 6.00 Build 0)  -->
<svg version="1.1" id="Layer_1" xmlns="http://www.w3.org/2000/svg" xmlns:xlink="http://www.w3.org/1999/xlink" x="0px" y="0px"
	 viewBox="0 0 512.001 512.001" style="enable-background:new 0 0 512.001 512.001;" xml:space="preserve">
<path style="fill:#4D4D4D;" d="M262.826,134.503c0,57.853-86.642,285.704-116.598,362.754c-3.568,9.178-16.523,9.178-20.091,0
	C96.181,420.207,9.539,192.356,9.539,134.503c0-69.944,56.7-126.643,126.643-126.643S262.826,64.559,262.826,134.503z"/>
<path style="fill:#666666;" d="M218.911,38.753c19.198,22.2,30.889,51.07,30.889,82.724c0,57.852-86.642,285.704-116.598,362.754
	c-1.702,4.376-5.545,6.601-9.479,6.804c0.831,2.146,1.653,4.265,2.414,6.222c3.568,9.179,16.523,9.179,20.091,0
	c29.956-77.049,116.598-304.901,116.598-362.754C262.826,96.216,245.763,61.975,218.911,38.753z"/>
<path style="fill:#333333;" d="M55.588,38.753c-19.197,22.2-30.889,51.07-30.889,82.724c0,57.852,86.642,285.704,116.598,362.754
	c1.702,4.376,5.545,6.601,9.48,6.804c-0.831,2.146-1.653,4.265-2.414,6.222c-3.568,9.179-16.523,9.179-20.091,0
	C98.316,420.207,11.673,192.356,11.673,134.503C11.673,96.216,28.736,61.975,55.588,38.753z"/>
<path style="fill:#4D4D4D;" d="M502.931,377.497c0-57.852-86.642-285.704-116.598-362.754c-3.568-9.178-16.523-9.178-20.091,0
	c-29.956,77.05-116.598,304.902-116.598,362.754c0,69.944,56.7,126.643,126.643,126.643S502.931,447.441,502.931,377.497z"/>
<path style="fill:#666666;" d="M459.017,473.247c19.197-22.2,30.889-51.07,30.889-82.724c0-57.852-86.642-285.704-116.598-362.754
	c-1.702-4.376-5.545-6.601-9.479-6.804c0.831-2.146,1.653-4.265,2.414-6.222c3.568-9.179,16.523-9.179,20.091,0
	c29.956,77.05,116.598,304.901,116.598,362.754C502.931,415.784,485.868,450.025,459.017,473.247z"/>
<path style="fill:#F7931E;" d="M431.746,384.025c0,30.942-25.083,56.025-56.025,56.025l0,0c-30.942,0-56.025-25.083-56.025-56.025
	v-96.042c0-30.942,25.083-56.025,56.025-56.025l0,0c30.942,0,56.025,25.083,56.025,56.025v40.018"/>
<path style="fill:#F15A24;" d="M335.263,400.032V303.99c0-30.942,25.303-56.025,56.245-56.025c11.375,0,22.054,3.412,30.891,9.237
	c-10.019-15.199-27.242-25.244-46.809-25.244c-30.941,0-56.046,25.083-56.046,56.025v96.042c0,19.566,9.902,36.767,25.101,46.788
	C338.82,421.975,335.263,411.407,335.263,400.032z"/>
<path style="fill:#333333;" d="M295.693,473.247c-19.197-22.2-30.889-51.07-30.889-82.724c0-57.852,86.642-285.704,116.598-362.754
	c1.702-4.376,5.545-6.601,9.479-6.804c-0.831-2.146-1.653-4.265-2.414-6.222c-3.568-9.179-16.523-9.179-20.091,0
	c-29.956,77.05-116.598,304.901-116.598,362.754C251.778,415.784,268.841,450.025,295.693,473.247z"/>
<path style="fill:#999999;" d="M260.403,151.916c-24.91-43.057-71.465-72.025-124.787-72.025c-53.324,0-99.881,28.971-124.79,72.031
	l13.865,48.021c22.142-38.275,63.526-64.028,110.925-64.028c48.208,0,90.195,26.639,112.042,65.999L260.403,151.916z"/>
<path style="fill:#808080;" d="M135.616,79.891c-53.324,0-99.881,28.971-124.79,72.031l13.865,48.021
	c22.142-38.275,63.526-64.028,110.925-64.028"/>
<path d="M375.722,447.909c-35.226,0-63.884-28.659-63.884-63.884v-96.042c0-35.225,28.659-63.883,63.884-63.883
	c35.225,0,63.883,28.659,63.883,63.883v40.018h-15.719v-40.018c0-26.559-21.606-48.165-48.165-48.165s-48.166,21.606-48.166,48.165
	v96.042c0,26.559,21.607,48.166,48.166,48.166s48.165-21.607,48.165-48.166h15.719C439.606,419.251,410.947,447.909,375.722,447.909
	z"/>
<path style="fill:#FFFFFF;" d="M351.567,287.957h-15.719c0-22.006,18.278-39.848,40.284-39.848v15.719
	C362.509,263.828,351.567,274.334,351.567,287.957z"/>
<g>
	<rect x="423.287" y="360.265" style="fill:#C7B299;" width="15.719" height="15.719"/>
	<rect x="423.287" y="336.163" style="fill:#C7B299;" width="15.719" height="15.719"/>
</g>
<circle style="fill:#FFFFFF;" cx="391.723" cy="392.028" r="16.007"/>
<path d="M391.728,415.895c-13.16,0-23.865-10.707-23.865-23.866s10.707-23.866,23.865-23.866c13.161,0,23.866,10.707,23.866,23.866
	S404.889,415.895,391.728,415.895z M391.728,383.88c-4.492,0-8.147,3.655-8.147,8.148c0,4.492,3.654,8.148,8.147,8.148
	c4.492,0,8.148-3.655,8.148-8.148C399.876,387.535,396.221,383.88,391.728,383.88z"/>
<g>
	<rect x="95.287" y="352.93" style="fill:#FFFFFF;" width="16.767" height="15.719"/>
	<rect x="112.054" y="327.78" style="fill:#FFFFFF;" width="15.719" height="15.719"/>
	<rect x="127.773" y="360.265" style="fill:#FFFFFF;" width="15.719" height="15.719"/>
	<rect x="335.261" y="160.112" style="fill:#FFFFFF;" width="15.719" height="15.719"/>
	<rect x="376.13" y="184.214" style="fill:#FFFFFF;" width="15.719" height="15.719"/>
</g>
<path d="M393.187,11.896C390.379,4.67,383.56,0,375.818,0c0,0,0,0-0.001,0c-7.743,0-14.562,4.668-17.37,11.895
	c-35.218,90.584-117.131,307.544-117.131,365.602c0,74.165,60.337,134.504,134.503,134.504s134.504-60.338,134.504-134.504
	C510.32,319.432,428.405,102.477,393.187,11.896z M485.033,424.187c-1.068,2.489-2.214,4.937-3.445,7.335h-17.431v15.719h7.748
	c-21.614,29.696-56.633,49.04-96.09,49.04c-48.931,0-91.04-29.741-109.215-72.094h5.788v-15.719h-11.252
	c-0.745-2.756-1.393-5.552-1.941-8.383h20.527v-15.719h-22.487c-0.131-2.274-0.203-4.564-0.203-6.87
	c0-16.466,8.091-59.606,46.638-171.619c22.588-65.64,48.134-133.166,64.078-174.48v64.791h15.719V30.32
	c10.271,26.597,24.657,64.407,39.697,105.689h-22.931v15.719h28.627c6.416,17.801,12.872,36.046,19.102,54.149
	C486.509,317.891,494.6,361.031,494.6,377.496c0,10.712-1.434,21.094-4.105,30.972H472.54v15.719H485.033z"/>
<path d="M136.182,0C62.017,0,1.679,60.338,1.679,134.504c0,58.056,81.914,275.016,117.133,365.602
	c2.809,7.226,9.628,11.895,17.37,11.895c7.743,0,14.562-4.668,17.371-11.895c35.219-90.586,117.133-307.545,117.133-365.602
	C270.685,60.338,210.348,0,136.182,0z M136.182,15.719c63.944,0,116.24,50.791,118.686,114.146
	c-28.583-36.107-72.552-57.834-119.251-57.834c-46.056,0-89.457,21.129-118.062,56.346C20.754,65.714,72.739,15.719,136.182,15.719z
	 M227.899,247.088h-20.483v15.719h15.436c-0.999,3.07-2.035,6.224-3.093,9.431h-35.398v15.719h30.152
	c-1.973,5.852-4.026,11.888-6.187,18.166c-22.943,66.673-48.949,135.319-64.835,176.439v-66.758h-15.719v63.919
	c-15.966-41.391-41.312-108.427-63.739-173.6c-5.425-15.766-10.244-30.161-14.526-43.316h5.958v-15.719H44.463
	c-1.735-5.48-3.365-10.716-4.895-15.719h40.003v-15.719H34.857c-1.204-4.109-2.332-8.038-3.385-11.786l0.024,0.014
	c21.446-37.073,61.343-60.104,104.122-60.104c43.472,0,83.604,23.541,104.888,61.467
	C237.097,217.303,232.936,231.178,227.899,247.088z M246.038,184.736c-2.276-3.167-4.664-6.235-7.182-9.172v-23.836h-15.719v8.275
	c-22.178-18.65-50.039-29.984-79.642-31.703v-8.01h-15.719v8.009c-16.841,0.982-33.165,5.093-48.204,11.919v-12.593H63.853v21
	c-14.578,9.063-27.462,20.888-37.816,34.96c-3.224-12.728-5.352-22.73-6.688-30.587c1.169-1.91,2.38-3.788,3.635-5.628v4.356h15.719
	v-23.415c11.805-11.92,25.684-21.551,40.869-28.426v3.636H95.29v-9.614c12.903-4.021,26.48-6.159,40.327-6.159
	c8.343,0,16.584,0.791,24.644,2.286v21.871h15.719V93.921c5.366,1.675,10.616,3.67,15.719,5.982v27.723h15.719v-19.334
	c18.333,11.374,34.004,27.096,45.347,46.169C251.375,162.328,249.227,172.244,246.038,184.736z"/>
<g>
</g>
<g>
</g>
<g>
</g>
<g>
</g>
<g>
</g>
<g>
</g>
<g>
</g>
<g>
</g>
<g>
</g>
<g>
</g>
<g>
</g>
<g>
</g>
<g>
</g>
<g>
</g>
<g>
</g>
</svg>
