<?xml version="1.0" encoding="iso-8859-1"?>
<!-- Generator: Adobe Illustrator 19.0.0, SVG Export Plug-In . SVG Version: 6.00 Build 0)  -->
<svg version="1.1" id="Layer_1" xmlns="http://www.w3.org/2000/svg" xmlns:xlink="http://www.w3.org/1999/xlink" x="0px" y="0px"
	 viewBox="0 0 512 512" style="enable-background:new 0 0 512 512;" xml:space="preserve">
<path style="fill:#AE7418;" d="M264,39.706c0,13.584,10.745,24.033,24,24.033h8c106.038,0,192,86.223,192,192.261
	S402.038,448.26,296,448.26h-80c-106.038,0-192-86.223-192-192.261S109.962,63.739,216,63.739h8c13.255,0,24-10.449,24-24.033H264z"
	/>
<path style="fill:#CEAC74;" d="M296,63.739h-8c-13.254,0-24-10.449-24-24.033h-16c0,7.314-3.123,13.395-8,17.787
	c4.253,3.831,9.825,6.245,16,6.245h8c106.038,0,192,86.223,192,192.261S370.038,448.26,264,448.26h32
	c106.038,0,192-86.223,192-192.261S402.038,63.739,296,63.739z"/>
<path style="fill:#835712;" d="M381.25,253c0-64.179-32.579-120.409-82.857-151.996c8.583-5.623,14.032-12.957,14.032-21.003V63.739
	H288c-13.254,0-24-10.449-24-24.033h-16c0,13.584-10.745,24.033-24,24.033h-8h-16.425v0.977
	c-98.219,8.138-175.999,90.639-175.999,191.284s77.779,183.146,175.999,191.284v0.977H216h64h32.424v-16.262
	c0-9.557-7.582-18.109-19.204-23.972C346.386,377.112,381.25,319.335,381.25,253z M333.25,253
	c0,61.038-32.608,114.754-78.819,147.044c-3.088,0.049-6.121,0.218-9.063,0.542c-47.097-32.228-78.119-86.205-78.119-147.586
	c0-58.326,28.003-109.983,71.197-142.636c5.525,1.045,11.411,1.636,17.553,1.636c2.141,0,4.245-0.084,6.324-0.217
	C304.305,144.503,333.25,195.501,333.25,253z M200.126,430.587c-66.149-30.315-112.125-97.061-112.125-174.587
	s45.975-144.273,112.125-174.587c0.493,6.438,4.314,12.378,10.493,17.283c-53.158,31.089-89.93,88.484-89.93,154.305
	c0,67.63,39.41,126.406,95.033,156.845C206.589,415.281,200.741,422.538,200.126,430.587z"/>
<path d="M272.916,499.518L256,465.857v-25.956h40c49.21,0,95.46-19.112,130.228-53.814c34.779-34.716,53.934-80.915,53.934-130.087
	s-19.155-95.372-53.934-130.087C391.46,91.21,345.211,72.098,296,72.098h-8c-17.554,0-31.641-14.34-31.641-31.968
	s14.269-31.968,32.032-31.968v15.673c-9.404,0-16.359,7.309-16.359,16.294S279.087,56.424,288,56.424h8
	c53.392,0,103.573,20.738,141.3,58.395c37.748,37.677,58.536,87.815,58.536,141.18S475.048,359.504,437.3,397.18
	c-37.727,37.657-87.908,58.395-141.3,58.395h-24.326v6.566l15.247,30.34L272.916,499.518z"/>
<path d="M437.3,114.819C399.573,77.162,349.392,56.424,296,56.424h-8c-8.912,0-15.967-7.309-15.967-16.294
	s6.955-16.294,16.359-16.294V8.163c-10.189,0-19.221,4.723-25.078,12.073V0h-15.673v18.99c-5.858-6.633-14.432-10.826-24.033-10.826
	v15.673c9.404,0,16.359,7.309,16.359,16.294s-7.055,16.293-15.967,16.293h-8c-53.392,0-103.573,20.738-141.3,58.395
	c-37.748,37.676-58.537,87.815-58.537,141.18S36.952,359.504,74.7,397.18c37.727,37.657,87.909,58.395,141.3,58.395h24.326v6.566
	l-15.247,30.34l14.004,7.037l9.072-18.051l-0.006,30.53L263.822,512l0.006-30.565l9.087,18.083l14.004-7.037l-15.247-30.34v-6.566
	h24.326c53.392,0,103.573-20.738,141.3-58.395c37.748-37.677,58.536-87.815,58.536-141.18S475.048,152.495,437.3,114.819z
	 M426.229,386.087C391.46,420.789,345.211,439.901,296,439.901h-40h-40c-49.21,0-95.46-19.112-130.229-53.814
	c-34.78-34.716-53.935-80.915-53.935-130.087s19.155-95.372,53.934-130.087C120.54,91.21,166.789,72.098,216,72.098h8
	c17.554,0,31.64-14.34,31.64-31.968c0-0.142-0.008-0.283-0.01-0.424h0.74c-0.002,0.142-0.01,0.282-0.01,0.424
	c0,17.626,14.086,31.968,31.641,31.968h8c49.21,0,95.46,19.112,130.228,53.814c34.78,34.716,53.935,80.915,53.935,130.087
	S461.008,351.371,426.229,386.087z"/>
<path d="M256,120.294c-35.796,0-63.837-17.894-63.837-39.837h15.673c0,11.494,19.78,24.163,48.163,24.163
	s48.162-12.669,48.162-24.163h15.673C319.836,102.4,291.797,120.294,256,120.294z"/>
<path d="M319.836,431.542h-15.673c0-10.449-19.78-24.163-48.163-24.163s-48.162,13.714-48.162,24.163h-15.673
	c0-21.943,28.04-39.837,63.837-39.837S319.836,409.599,319.836,431.542z"/>
<path d="M124.54,164.484l-12.855-8.966c9.916-14.216,21.847-26.873,35.462-37.618l9.71,12.303
	C144.448,139.995,133.576,151.53,124.54,164.484z"/>
<path style="fill:#AE7418;" d="M118.113,160.001c9.476-13.586,20.908-25.704,33.889-35.95"/>
<g>
	<path style="fill:#FFFFFF;" d="M124.54,164.484l-12.855-8.966c9.916-14.216,21.847-26.873,35.462-37.618l9.71,12.303
		C144.448,139.995,133.576,151.53,124.54,164.484z"/>
	<path style="fill:#FFFFFF;" d="M101.359,339.76c-13.867-25.548-21.196-54.512-21.196-83.761c0-29.238,7.325-58.193,21.181-83.736
		l13.777,7.474c-12.616,23.255-19.285,49.625-19.285,76.262c0,26.646,6.673,53.024,19.297,76.285L101.359,339.76z"/>
</g>
<g>
</g>
<g>
</g>
<g>
</g>
<g>
</g>
<g>
</g>
<g>
</g>
<g>
</g>
<g>
</g>
<g>
</g>
<g>
</g>
<g>
</g>
<g>
</g>
<g>
</g>
<g>
</g>
<g>
</g>
</svg>
