<?xml version="1.0" encoding="iso-8859-1"?>
<!-- Generator: Adobe Illustrator 19.0.0, SVG Export Plug-In . SVG Version: 6.00 Build 0)  -->
<svg version="1.1" id="Layer_1" xmlns="http://www.w3.org/2000/svg" xmlns:xlink="http://www.w3.org/1999/xlink" x="0px" y="0px"
	 viewBox="0 0 512.001 512.001" style="enable-background:new 0 0 512.001 512.001;" xml:space="preserve">
<path style="fill:#8CC63F;" d="M256,64.295L256,64.295c-57.421,0-103.97,46.549-103.97,103.97v35.185
	c0,51.973-15.331,102.136-39.818,147.979c-9.492,17.77-13.962,38.621-11.501,60.694c5.18,46.467,42.108,84.452,88.403,90.99
	c24.557,3.468,47.632-1.815,66.884-12.968c19.253,11.153,42.328,16.437,66.884,12.968c46.295-6.538,83.223-44.524,88.403-90.99
	c2.461-22.072-2.01-42.923-11.501-60.694c-24.487-45.843-39.818-96.006-39.818-147.979v-43.182"/>
<g>
	<path style="fill:#39B54A;" d="M209.11,503.113c-46.295-6.539-83.223-44.525-88.403-90.991
		c-2.461-22.072,0.166-42.923,9.658-60.694c24.486-45.843,37.974-96.006,37.974-147.979v-35.184
		c0-51.212,38.903-93.676,87.647-102.283l-0.581-1.687c-57.421,0-102.723,46.548-102.723,103.97v35.185
		c0,51.973-15.655,102.135-40.141,147.979c-9.492,17.769-14.124,38.621-11.663,60.694c5.18,46.467,42.028,84.452,88.322,90.991
		c8.569,1.21,16.899,1.294,25.007,0.496C212.52,503.451,210.808,503.352,209.11,503.113z"/>
	<path style="fill:#39B54A;" d="M275.995,490.144c-3.217,1.863-6.577,3.497-9.997,5.019c15.63,6.958,33.245,10.179,51.835,8.445
		C302.703,502.118,288.53,497.405,275.995,490.144z"/>
</g>
<g>
	<path style="fill:#D9E021;" d="M212.013,482.146c-14.283,8.274-30.676,13.296-48.211,13.932c7.997,3.378,16.48,5.787,25.314,7.034
		c20.889,2.95,40.681-0.479,57.985-8.421C234.509,492.602,222.662,488.315,212.013,482.146z"/>
	<path style="fill:#D9E021;" d="M311.36,152.418v43.034c0,51.973,17.642,102.135,42.129,147.979
		c9.492,17.769,15.118,38.621,12.657,60.694c-5.18,46.467-41.531,84.452-87.825,90.991c-3.666,0.518-6.997,0.78-10.589,0.918
		c16.553,6.955,35.36,9.856,55.009,7.08c46.295-6.539,83.148-44.525,88.328-90.991c2.461-22.072-2.085-42.923-11.575-60.694
		c-24.486-45.843-40.111-96.006-40.111-147.979v-42.68"/>
</g>
<path style="fill:#39B54A;" d="M392.161,160.067c0,0-113.896-2.331-135.759-24.194s-21.863-57.31,0-79.173s57.31-21.863,79.173,0
	C357.438,78.563,392.161,160.067,392.161,160.067z"/>
<path style="fill:#009245;" d="M303.585,56.699c20.096,20.097,51.038,90.537,55.91,101.795c18.883,1.287,32.668,1.571,32.668,1.571
	s-34.724-81.504-56.587-103.367c-15.046-15.046-36.525-19.734-55.581-14.072C288.629,45.194,296.768,49.882,303.585,56.699z"/>
<path d="M406.693,347.739c-25.809-48.318-38.895-96.864-38.895-144.29v-36.591c14.255,0.822,24.034,1.032,24.202,1.037l12.112,0.247
	l-4.748-11.144c-0.088-0.206-8.899-20.845-20.278-43.884c-15.526-31.435-28.303-52.278-37.975-61.951
	c-21.056-21.055-53.282-24.288-77.774-9.707V0h-15.659v54.622c-0.658,0.761-1.295,1.534-1.91,2.318
	C188.9,62.124,144.2,110.069,144.2,168.265v35.185c0,47.426-13.086,95.972-38.894,144.29c-10.636,19.912-14.915,42.476-12.375,65.25
	c2.697,24.19,13.687,47.293,30.949,65.057c17.257,17.759,40.036,29.414,64.14,32.819c5.372,0.759,10.73,1.136,16.05,1.136
	c18.112,0,35.767-4.371,51.93-12.909c20.91,11.047,44.32,15.114,67.979,11.773c24.104-3.404,46.883-15.059,64.14-32.819
	c17.261-17.764,28.253-40.868,30.95-65.057C421.609,390.213,417.329,367.65,406.693,347.739z M330.039,62.237
	c5.813,5.813,16.599,20.55,34.976,57.747c6.051,12.247,11.362,23.804,14.98,31.87c-43.291-1.777-105.054-8.517-118.055-21.517
	c-15.572-15.573-18.214-39.238-7.955-57.574l41.047,33.583l9.916-12.119l-41.2-33.707c9.134-8.242,20.685-12.363,32.241-12.363
	C308.318,48.155,320.652,52.85,330.039,62.237z M403.507,411.254c-4.764,42.719-39.13,78.09-81.717,84.105
	c-17.385,2.455-34.597,0.257-50.449-6.344l19.658-9.819l-6.998-14.009l-20.662,10.322V456.21H247.68v19.047l-20.167-10.084
	l-7.003,14.006l19.885,9.943c-15.779,6.515-32.896,8.679-50.183,6.238c-42.587-6.015-76.954-41.387-81.717-84.105
	c-2.187-19.616,1.488-39.028,10.625-56.137c27.034-50.611,40.74-101.64,40.74-151.667v-35.185c0-46.206,32.767-84.898,76.283-94.072
	c-8.317,22.637-3.421,49.073,14.722,67.216c10.512,10.512,36.937,17.886,80.788,22.545c7.049,0.75,13.977,1.359,20.487,1.857v37.639
	c0,50.028,13.707,101.055,40.742,151.667C402.02,372.225,405.693,391.637,403.507,411.254z"/>
<path style="fill:#FFFFFF;" d="M199.657,448.015c-30.275,0-55.456-25.212-55.456-55.486h15.659
	c0,21.923,17.874,39.827,39.797,39.827V448.015z"/>
<g>
</g>
<g>
</g>
<g>
</g>
<g>
</g>
<g>
</g>
<g>
</g>
<g>
</g>
<g>
</g>
<g>
</g>
<g>
</g>
<g>
</g>
<g>
</g>
<g>
</g>
<g>
</g>
<g>
</g>
</svg>
