<?xml version="1.0" encoding="iso-8859-1"?>
<!-- Generator: Adobe Illustrator 19.0.0, SVG Export Plug-In . SVG Version: 6.00 Build 0)  -->
<svg version="1.1" id="Layer_1" xmlns="http://www.w3.org/2000/svg" xmlns:xlink="http://www.w3.org/1999/xlink" x="0px" y="0px"
	 viewBox="0 0 511.999 511.999" style="enable-background:new 0 0 511.999 511.999;" xml:space="preserve">
<polygon style="fill:#A3D165;" points="231.462,62.379 231.462,54.489 255.878,15.04 280.293,54.489 280.293,62.379 255.878,93.938 
	"/>
<path style="fill:#8CC63F;" d="M260.59,133.387h-4.59v-12.48c0-41.039,33.268-74.308,74.308-74.308h4.59v12.48
	C334.898,100.118,301.628,133.387,260.59,133.387z"/>
<path style="fill:#A3D165;" d="M317.474,47.248c-2.109,0-3.935-0.54-6.012-0.332v24.998c0,31.842-24.935,58.029-56.104,61.159v0.409
	h18.064c33.952,0,61.935-27.618,61.935-61.568V47.249h-17.884V47.248z"/>
<path style="fill:#8CC63F;" d="M251.409,133.387h4.59v-12.48c0-41.039-33.268-74.308-74.308-74.308h-4.59v12.48
	C177.101,100.118,210.371,133.387,251.409,133.387z"/>
<path style="fill:#39B54A;" d="M194.525,47.248c2.109,0,6.807-0.54,6.807-0.332v24.998c0,31.842,23.896,58.029,54.026,61.159v0.409
	h-16.782c-33.952,0-61.139-27.618-61.139-61.568V47.249h17.089V47.248z"/>
<path style="fill:#FBB03B;" d="M298.996,504.208h-85.993c-37.258,0-67.461-30.203-67.461-67.461V200.848
	c0-37.258,30.203-67.461,67.461-67.461h85.993c37.258,0,67.461,30.203,67.461,67.461v235.899
	C366.457,474.005,336.254,504.208,298.996,504.208z"/>
<path style="fill:#BC842C;" d="M184.71,433.912c0,38.886,31.804,70.475,70.69,70.475h-39.449c-38.886,0-70.722-31.703-70.722-70.589
	V203.795c0-38.886,31.836-70.315,70.722-70.315H255.4c-38.886,0-70.69,31.476-70.69,70.362V433.912z"/>
<path style="fill:#FDD089;" d="M318.735,433.889c0,38.886-31.14,70.498-70.026,70.498h47.339c38.886,0,70.479-31.703,70.479-70.589
	V203.795c0-38.886-31.593-70.315-70.479-70.315h-47.339c38.886,0,70.026,31.521,70.026,70.407V433.889z"/>
<path d="M310.678,126.373c19.38-14.1,32.012-36.939,32.012-62.685V38.807h-16.991c-14.491,0-28.061,4.008-39.676,10.96L255.878,0
	l-30.083,49.663c-11.574-6.886-25.077-10.856-39.495-10.856h-16.991v24.881c0,25.746,12.633,48.586,32.012,62.685
	c-35.899,5.195-63.572,36.157-63.572,73.471V437.75c0,40.941,33.309,74.249,74.25,74.249H300c40.941,0,74.249-33.308,74.249-74.249
	V199.845C374.249,162.53,346.577,131.568,310.678,126.373z M235.686,449.354l32.374-32.374l36.319,36.319l-32.374,32.374
	L235.686,449.354z M170.251,232.384l-16.917,16.917v-33.835L170.251,232.384z M300,141.179c13.523,0,25.982,4.612,35.916,12.329
	l-24.462,24.462l-32.374-32.374l4.418-4.418H300z M300.432,188.991l-32.374,32.374l-32.374-32.374l32.374-32.374L300.432,188.991z
	 M311.453,351.546l-32.374-32.374l32.374-32.374l32.374,32.374L311.453,351.546z M354.847,330.193l3.817,3.817v64.748
	l-36.191-36.191L354.847,330.193z M257.039,319.172l-32.374,32.374l-32.374-32.374l32.374-32.374L257.039,319.172z M235.685,275.778
	l32.374-32.374l32.374,32.374l-32.374,32.374L235.685,275.778z M268.06,330.192l32.374,32.374L268.06,394.94l-32.374-32.374
	L268.06,330.192z M322.473,275.778l32.374-32.374l3.817,3.817v57.113l-3.817,3.817L322.473,275.778z M311.453,264.759
	l-32.374-32.374l32.374-32.374l32.374,32.374L311.453,264.759z M257.039,232.384l-32.374,32.374l-32.374-32.374l32.374-32.374
	L257.039,232.384z M213.645,275.778l-32.374,32.374l-27.938-27.937v-8.873l27.938-27.938L213.645,275.778z M170.251,319.172
	l-16.917,16.917v-33.835L170.251,319.172z M153.334,367.002v-8.873l27.938-27.937l32.374,32.374l-32.374,32.374L153.334,367.002z
	 M170.251,405.96l-16.917,16.917v-33.835L170.251,405.96z M224.665,373.586l32.374,32.374l-32.374,32.374l-32.374-32.374
	L224.665,373.586z M279.079,405.96l32.374-32.374l36.319,36.319l-32.374,32.374L279.079,405.96z M358.665,217.547l-3.817,3.817
	l-32.374-32.374l24.391-24.391c7.404,9.819,11.8,22.027,11.8,35.244V217.547z M327.106,54.391v9.297
	c0,32.848-25.718,59.79-58.074,61.776l23.204-17.402l-9.351-12.467l-18.728,14.047c3.333-31.016,29.658-55.25,61.544-55.25
	C325.7,54.391,327.106,54.391,327.106,54.391z M239.774,56.665l16.104-26.585l16.104,26.585v3.862
	c-6.529,6.29-11.969,13.701-15.982,21.935c-4.063-8.337-9.589-15.827-16.225-22.167V56.665z M184.893,63.688v-9.297h1.407
	c31.886,0,58.212,24.234,61.544,55.25l-18.728-14.047l-9.351,12.467l23.204,17.402C210.613,123.478,184.893,96.536,184.893,63.688z
	 M252.622,141.179l4.418,4.418l-32.374,32.374l-33.109-33.109c6.37-2.376,13.256-3.681,20.444-3.681h40.622V141.179z
	 M177.261,152.607l36.383,36.384l-32.374,32.374l-27.62-27.62C155.4,176.903,164.304,162.16,177.261,152.607z M153.736,444.516
	l27.535-27.535l32.374,32.374L177.7,485.3C164.681,475.883,155.669,461.266,153.736,444.516z M192.103,492.936l32.562-32.562
	l36.041,36.041h-48.707C205.017,496.416,198.319,495.185,192.103,492.936z M283.301,496.416l32.096-32.096l20.098,20.098
	c-9.863,7.521-22.164,11.999-35.496,11.999H283.301z M346.534,473.415l-20.115-20.116l32.246-32.246v16.698
	C358.665,451.16,354.133,463.523,346.534,473.415z"/>
<g>
</g>
<g>
</g>
<g>
</g>
<g>
</g>
<g>
</g>
<g>
</g>
<g>
</g>
<g>
</g>
<g>
</g>
<g>
</g>
<g>
</g>
<g>
</g>
<g>
</g>
<g>
</g>
<g>
</g>
</svg>
