<?xml version="1.0" encoding="iso-8859-1"?>
<!-- Generator: Adobe Illustrator 19.0.0, SVG Export Plug-In . SVG Version: 6.00 Build 0)  -->
<svg version="1.1" id="Layer_1" xmlns="http://www.w3.org/2000/svg" xmlns:xlink="http://www.w3.org/1999/xlink" x="0px" y="0px"
	 viewBox="0 0 512.001 512.001" style="enable-background:new 0 0 512.001 512.001;" xml:space="preserve">
<path style="fill:#A43108;" d="M448.7,232.312h31.454c13.264,0,24.017,10.224,24.017,23.488c0,13.264-10.752,23.488-24.017,23.488
	H448.7"/>
<path style="fill:#F15A24;" d="M119.874,191.601h272.221c35.37,0,64.044,28.307,64.044,63.678s-28.674,63.678-64.044,63.678H119.874
	"/>
<path style="fill:#A43108;" d="M392.094,287.639H119.874v31.317h272.221c35.37,0,64.044-28.369,64.044-63.738
	c0-5.539-0.777-10.684-2.099-15.811C446.919,267.014,421.925,287.639,392.094,287.639z"/>
<path style="fill:#F7931E;" d="M60.518,231.507c9.5-23.471,32.511-40.028,59.389-40.028c35.37,0,64.044,28.674,64.044,64.044
	s-28.674,64.044-64.044,64.044c-26.873,0-49.88-16.552-59.384-40.017"/>
<path style="fill:#AA5E04;" d="M103.171,279.55v-48.044c0-17.365,20.164-30.897,38.077-36.788
	c-6.306-2.076-12.191-3.239-19.193-3.239c-26.878,0-50.202,16.556-58.553,40.027v48.044c8.351,23.465,31.02,40.017,57.893,40.017
	c7.001,0,14.289-1.163,20.595-3.239C124.081,310.438,103.171,296.91,103.171,279.55z"/>
<path style="fill:#F15A24;" d="M119.907,279.288c13.264,0,24.017-10.224,24.017-23.488c0-13.264-10.752-23.488-24.017-23.488H31.846
	c-13.264,0-24.017,10.224-24.017,23.488c0,13.264,10.752,23.488,24.017,23.488H119.907z"/>
<path style="fill:#A43108;" d="M119.907,232.312H87.884c13.264,0,24.017,10.224,24.017,23.488c0,13.264-10.752,23.488-24.017,23.488
	h32.023c13.264,0,24.017-10.224,24.017-23.488C143.923,242.535,133.171,232.312,119.907,232.312z"/>
<circle style="fill:#F7931E;" cx="23.84" cy="255.525" r="16.011"/>
<rect x="200.25" y="209.343" style="fill:#FFFFFF;" width="88.731" height="15.658"/>
<path d="M480.155,223.961h-23.879c-11.847-23.504-36.154-39.668-64.163-39.668l-273.407-0.643v0.022
	c-27.26,0.446-51.548,16-63.385,40.289H31.846c-16.529,0-30.153,12.657-31.696,28.784C0.053,253.583,0,254.426,0,255.278h0.014
	C0.01,255.452,0,255.625,0,255.8c0,17.555,14.287,31.839,31.846,31.839h23.743c12.108,24.32,36.764,39.746,64.29,39.758l0,0
	l272.215,0.954c28.438,0,53.07-16.639,64.715-40.712h23.346c17.559,0,31.845-14.284,31.845-31.839S497.715,223.961,480.155,223.961z
	 M15.658,255.8c0-0.512,0.03-1.017,0.077-1.516c0.523-3.796,3.954-7.188,8.105-7.188c4.512,0,8.182,4.006,8.182,8.182h15.658
	c0-5.82-2.31-11.374-6.101-15.658h78.327c8.925,0,16.188,7.258,16.188,16.18c0,8.922-7.262,16.18-16.188,16.18H31.846
	C22.921,271.98,15.658,264.722,15.658,255.8z M73.733,287.639h46.174c17.56,0,31.846-14.284,31.846-31.839
	s-14.286-31.839-31.846-31.839H73.363c10.283-15.227,27.467-24.605,46.406-24.649h0.265c30.939,0.069,56.088,25.257,56.088,56.212
	c0,30.997-25.218,56.216-56.215,56.216C101.142,311.738,84.083,302.578,73.733,287.639z M392.121,312.692l-227.707-0.799
	c16.65-13.175,27.365-33.539,27.365-56.371c0-22.679-10.569-42.924-27.029-56.106l227.343,0.536
	c30.997,0,56.216,25.288,56.216,56.37S423.091,312.692,392.121,312.692z M480.155,271.98h-17.918
	c1.121-5.045,1.731-10.28,1.731-15.658c0-5.751-0.695-11.338-1.972-16.702h18.16c8.925,0,16.187,7.258,16.187,16.18
	C496.342,264.722,489.08,271.98,480.155,271.98z"/>
<rect x="303.596" y="209.343" style="fill:#FFFFFF;" width="25.053" height="15.658"/>
<g>
</g>
<g>
</g>
<g>
</g>
<g>
</g>
<g>
</g>
<g>
</g>
<g>
</g>
<g>
</g>
<g>
</g>
<g>
</g>
<g>
</g>
<g>
</g>
<g>
</g>
<g>
</g>
<g>
</g>
</svg>
