<?xml version="1.0" encoding="iso-8859-1"?>
<!-- Generator: Adobe Illustrator 19.0.0, SVG Export Plug-In . SVG Version: 6.00 Build 0)  -->
<svg version="1.1" id="Layer_1" xmlns="http://www.w3.org/2000/svg" xmlns:xlink="http://www.w3.org/1999/xlink" x="0px" y="0px"
	 viewBox="0 0 511.998 511.998" style="enable-background:new 0 0 511.998 511.998;" xml:space="preserve">
<path style="fill:#BDCCD4;" d="M223.972,231.859c0-25.978-21.509-48.04-48.04-48.04s-48.04,22.062-48.04,48.04H223.972z"/>
<polygon style="fill:#AE7418;" points="215.67,264.072 136.697,264.072 136.775,231.98 215.386,231.98 "/>
<g>
	<rect x="151.907" y="255.996" style="fill:#FFFFFF;" width="48.038" height="24.024"/>
	<rect x="312.19" y="255.996" style="fill:#FFFFFF;" width="48.038" height="24.024"/>
	<rect x="127.893" y="280.02" style="fill:#FFFFFF;" width="96.076" height="56.047"/>
</g>
<rect x="127.893" y="336.07" style="fill:#AD9E91;" width="96.076" height="144.115"/>
<rect x="127.893" y="336.07" style="fill:#998675;" width="48.038" height="144.115"/>
<path style="fill:#BDCCD4;" d="M384.105,231.859c0-25.978-21.509-48.04-48.04-48.04c-26.532,0-48.04,22.062-48.04,48.04H384.105z"/>
<polygon style="fill:#AE7418;" points="375.693,264.072 295.682,264.072 295.51,232.439 375.519,232.439 "/>
<rect x="288.031" y="280.02" style="fill:#FFFFFF;" width="96.076" height="56.047"/>
<rect x="288.031" y="336.07" style="fill:#E6E6E6;" width="96.076" height="144.115"/>
<rect x="288.031" y="336.07" style="fill:#B5B5B5;" width="48.038" height="144.115"/>
<g>
	<path style="fill:#FBB03B;" d="M255.999,7.793c-22.109,0-40.033,17.923-40.033,40.033s17.924,40.033,40.033,40.033
		c22.109,0,40.033-17.923,40.033-40.033S278.108,7.793,255.999,7.793z M255.999,63.84c-8.844,0-16.014-7.17-16.014-16.014
		s7.17-16.014,16.014-16.014s16.014,7.169,16.014,16.014C272.012,56.67,264.843,63.84,255.999,63.84z"/>
	<rect x="87.856" y="480.184" style="fill:#FBB03B;" width="336.278" height="24.024"/>
</g>
<rect x="87.856" y="480.184" style="fill:#AE7418;" width="168.139" height="24.024"/>
<path d="M175.925,176.545c-14.865,0-28.9,5.89-39.508,16.582c-10.531,10.616-16.345,24.555-16.345,39.25v7.793h111.185v-7.793
	c0-14.696-5.549-28.636-16.08-39.25C204.567,182.435,190.789,176.545,175.925,176.545z M136.479,224.586
	c1.111-5.41,3.355-10.46,6.453-14.897v6.584h15.587v-20.022c2.947-1.459,6.083-2.565,9.352-3.261v14.968h15.587v-15.081
	c2.508,0.498,4.941,1.236,7.274,2.19v21.202h15.587v-9.959c4.463,5.169,7.665,11.438,9.068,18.272h-78.907V224.586z"/>
<path d="M375.76,193.127c-10.609-10.692-24.865-16.582-39.729-16.582s-28.927,5.89-39.536,16.582
	c-10.531,10.616-16.4,24.555-16.4,39.25v7.793h112.224v-7.793C392.319,217.683,386.292,203.743,375.76,193.127z M296.612,224.586
	c1.219-5.937,3.802-11.443,7.383-16.175v7.862h15.587v-20.468c2.64-1.225,5.425-2.167,8.313-2.79v14.946h15.587v-15.102
	c3.262,0.636,6.399,1.678,9.352,3.076v20.34h15.587v-7.49c3.435,4.648,5.911,10.022,7.099,15.803L296.612,224.586L296.612,224.586z"
	/>
<path d="M255.999,71.634c-13.127,0-23.807-10.68-23.807-23.807s10.68-23.806,23.807-23.806c13.127,0,23.807,10.679,23.807,23.806
	S269.125,71.634,255.999,71.634z M255.999,39.607c-4.533,0-8.22,3.688-8.22,8.219c0,4.533,3.688,8.22,8.22,8.22
	s8.22-3.688,8.22-8.22C264.218,43.295,260.531,39.607,255.999,39.607z"/>
<rect x="145.007" y="352.394" width="14.548" height="15.587"/>
<rect x="167.868" y="400.194" width="16.626" height="15.587"/>
<rect x="184.493" y="416.819" width="14.548" height="15.587"/>
<rect x="145.007" y="447.993" width="14.548" height="15.587"/>
<rect x="327.891" y="425.132" width="16.626" height="15.587"/>
<rect x="344.517" y="408.506" width="16.626" height="15.587"/>
<path d="M391.898,472.392v-79.47h24.32v-15.587h-24.32V272.226H368.42v-8.155h7.274v-15.587h-80.012v15.587h8.313v8.155h-23.762
	v105.108h-16.763V95.065c22.836-3.597,40.356-23.408,40.356-47.239C303.825,21.455,282.37,0,255.999,0s-47.826,21.455-47.826,47.826
	c0,23.604,17.193,43.256,39.711,47.124v282.385h-16.117V272.226h-25.448v-8.155h9.352v-15.587h-78.973v15.587h6.235v8.155H120.1
	v105.108H96.172v15.587h23.927v79.47H80.066v39.607h351.866v-39.607h-40.034V472.392z M319.581,264.072h33.252v8.155h-33.252
	V264.072z M295.819,287.812h80.493v40.683h-80.493V287.812z M295.819,367.983h8.176v-15.587h-8.176v-8.313h14.41v8.313h15.587
	v-8.313h50.496v33.252h-16.205v-9.352H344.52v9.352h-48.701V367.983z M295.819,463.581h8.176v-15.587h-8.176v-23.9h8.176v-15.587
	h-8.176v-15.587h80.493v46.76h-8.931v15.587h8.931v17.124h-24.518v-7.772h-15.587v7.772h-40.388V463.581z M223.758,47.826
	c0-17.777,14.462-32.24,32.24-32.24s32.24,14.462,32.24,32.24s-14.462,32.24-32.24,32.24S223.758,65.604,223.758,47.826z
	 M231.766,392.922h16.117v71.699h15.587v-71.699h16.763v79.47h-48.466V392.922z M158.519,264.072h32.212v8.155h-32.212V264.072z
	 M135.685,287.812h80.493v40.683h-80.493V287.812z M135.685,344.083h80.493v8.313h-8.822v15.587h8.822v9.352h-80.493V344.083z
	 M135.685,392.922h80.493v79.47h-16.096v-7.772h-15.587v7.772h-48.811v-79.47H135.685z M416.345,496.413H95.652v-8.433h24.446
	h111.666h48.466h111.666h24.446v8.433H416.345z"/>
<g>
</g>
<g>
</g>
<g>
</g>
<g>
</g>
<g>
</g>
<g>
</g>
<g>
</g>
<g>
</g>
<g>
</g>
<g>
</g>
<g>
</g>
<g>
</g>
<g>
</g>
<g>
</g>
<g>
</g>
</svg>
