<?xml version="1.0" encoding="iso-8859-1"?>
<!-- Generator: Adobe Illustrator 19.0.0, SVG Export Plug-In . SVG Version: 6.00 Build 0)  -->
<svg version="1.1" id="Layer_1" xmlns="http://www.w3.org/2000/svg" xmlns:xlink="http://www.w3.org/1999/xlink" x="0px" y="0px"
	 viewBox="0 0 512 512" style="enable-background:new 0 0 512 512;" xml:space="preserve">
<polyline style="fill:#C69C6D;" points="195.796,62.822 195.796,7.329 300.499,7.329 300.499,62.822 "/>
<polyline style="fill:#A67C52;" points="195.796,62.822 195.796,7.329 243.959,7.329 243.959,62.822 "/>
<rect x="299.881" y="54.477" style="fill:#FF1D25;" width="24.051" height="149.454"/>
<path style="fill:#FFFFFF;" d="M300.499,328.132V62.822H154.961v7.884l49.211,40.082v217.345
	c-52.352,19.461-88.998,69.078-88.998,127.39v48.102h272.229v-48.102C387.403,397.21,350.757,347.594,300.499,328.132z"/>
<path style="fill:#A3A819;" d="M300.499,328.132V62.822H154.961v7.884l49.211,40.082v217.345
	c-52.352,19.461-88.998,69.078-88.998,127.39v48.102h272.229v-48.102C387.403,397.21,350.757,347.594,300.499,328.132z"/>
<path style="fill:#D9E021;" d="M300.499,328.132V62.822h-33.505v265.31c52.352,19.461,88.998,69.078,88.998,127.39v48.102h31.411
	v-48.102C387.403,397.21,350.757,347.594,300.499,328.132z"/>
<polyline style="fill:#FF777C;" points="123.55,407.297 259.665,407.297 259.665,479.542 115.174,479.542 "/>
<polyline style="fill:#FF1D25;" points="123.55,407.297 227.207,407.297 227.207,479.542 115.174,479.542 "/>
<g>
	<rect x="115.174" y="423.002" style="fill:#FFFFFF;" width="64.916" height="15.706"/>
	<rect x="195.796" y="448.131" style="fill:#FFFFFF;" width="48.164" height="15.706"/>
</g>
<rect x="259.665" y="23.035" width="15.706" height="15.706"/>
<g>
	<polygon style="fill:#FFFFFF;" points="282.699,279.558 266.994,279.558 266.994,94.233 251.288,94.233 251.288,78.528 
		282.699,78.528 	"/>
	<rect x="266.994" y="295.264" style="fill:#FFFFFF;" width="15.706" height="23.035"/>
</g>
<path d="M404.155,54.446h-87.951V190.56h-8.376V0H188.466v54.446h-40.834v19.942l48.164,40.08v208.354
	c-24.851,10.51-46.132,27.682-61.783,49.916c-17.118,24.32-26.167,52.946-26.167,82.784V512h286.888v-56.478
	c0-29.917-8.855-58.525-25.608-82.732c-8.664-12.518-19.121-23.426-31.009-32.442l66.041-65.96V54.446z M204.172,38.74h15.706
	V23.035h-15.706v-7.329h87.951v38.74h-7.329v-7.329h-17.8v7.329h-31.411V38.74h-15.706v15.706h-15.706V38.74z M251.288,414.626
	v57.587H123.55v-8.376h23.035v-15.706h-22.798c0.656-11.499,2.817-22.745,6.433-33.505H251.288z M356.21,381.727
	c14.928,21.569,22.817,47.086,22.817,73.795v40.773H123.55v-8.376h143.444V398.92H136.678c2.923-5.929,6.318-11.66,10.177-17.141
	c14.893-21.156,35.493-37.168,59.578-46.304l5.068-1.922V107.106l-44.407-36.955h125.029v263.401l5.068,1.922
	C321.15,344.563,341.558,360.557,356.21,381.727z M388.45,267.875l-63.627,63.549c-5.444-3.227-11.112-6.108-16.994-8.6V206.266
	h24.082V70.151h56.54V267.875z"/>
<rect x="284.793" y="463.836" style="fill:#FFFFFF;" width="78.528" height="15.706"/>
<g>
</g>
<g>
</g>
<g>
</g>
<g>
</g>
<g>
</g>
<g>
</g>
<g>
</g>
<g>
</g>
<g>
</g>
<g>
</g>
<g>
</g>
<g>
</g>
<g>
</g>
<g>
</g>
<g>
</g>
</svg>
