<?xml version="1.0" encoding="iso-8859-1"?>
<!-- Generator: Adobe Illustrator 19.0.0, SVG Export Plug-In . SVG Version: 6.00 Build 0)  -->
<svg version="1.1" id="Layer_1" xmlns="http://www.w3.org/2000/svg" xmlns:xlink="http://www.w3.org/1999/xlink" x="0px" y="0px"
	 viewBox="0 0 512 512" style="enable-background:new 0 0 512 512;" xml:space="preserve">
<polyline style="fill:#FF7BAC;" points="223.972,39.817 223.972,7.789 288.028,7.789 288.028,39.817 "/>
<polyline style="fill:#B2446D;" points="223.972,39.817 223.972,7.789 256,7.789 256,39.817 "/>
<path style="fill:#6DA7C0;" d="M280.02,39.817v64.054h8.381c26.326,0,47.667,21.341,47.667,47.667v325.446
	c0,15.037-12.19,27.227-27.227,27.227H203.159c-15.037,0-27.227-12.19-27.227-27.227V151.537c0-26.326,21.341-47.667,47.667-47.667
	h8.381V39.817"/>
<path style="fill:#9EC4D5;" d="M288.401,104.373h-8.515V55.562h-15.578v48.811h8.079c26.326,0,48.002,20.838,48.002,47.164v325.445
	c0,15.038-12.525,27.228-27.563,27.228h16.013c15.038,0,27.128-12.19,27.128-27.228V151.537
	C335.968,125.212,314.726,104.373,288.401,104.373z"/>
<polyline style="fill:#FF7BAC;" points="335.968,335.968 296.503,335.968 296.503,439.822 335.968,439.822 "/>
<path style="fill:#3D8AAB;" d="M207.959,504.211L207.959,504.211c-17.688,0-32.028-14.339-32.028-32.027V143.904
	c0-17.688,14.339-32.028,32.028-32.028l0,0V504.211z"/>
<g>
	<rect x="184.341" y="464.746" style="fill:#FFFFFF;" width="15.578" height="15.578"/>
	<rect x="223.805" y="472.016" style="fill:#FFFFFF;" width="16.617" height="15.578"/>
	<rect x="288.195" y="456.438" style="fill:#FFFFFF;" width="15.578" height="15.578"/>
	<rect x="264.308" y="296.503" style="fill:#FFFFFF;" width="15.578" height="15.578"/>
	<rect x="279.886" y="279.886" style="fill:#FFFFFF;" width="16.617" height="15.578"/>
	<rect x="312.081" y="248.73" style="fill:#FFFFFF;" width="23.886" height="15.578"/>
	<rect x="279.886" y="223.805" style="fill:#FFFFFF;" width="16.617" height="15.578"/>
	<rect x="247.692" y="208.227" style="fill:#FFFFFF;" width="16.617" height="15.578"/>
	<rect x="296.503" y="167.724" style="fill:#FFFFFF;" width="15.578" height="15.578"/>
	<rect x="191.611" y="192.649" style="fill:#FFFFFF;" width="16.617" height="15.578"/>
	<rect x="208.227" y="223.805" style="fill:#FFFFFF;" width="15.578" height="15.578"/>
	<rect x="240.422" y="160.454" style="fill:#FFFFFF;" width="15.578" height="15.578"/>
	<rect x="256" y="136.568" style="fill:#FFFFFF;" width="15.578" height="15.578"/>
	<rect x="208.227" y="119.951" style="fill:#FFFFFF;" width="15.578" height="15.578"/>
	<rect x="264.308" y="72.178" style="fill:#FFFFFF;" width="15.578" height="15.578"/>
</g>
<polyline style="fill:#FF7BAC;" points="176.032,264.308 264.308,264.308 264.308,439.822 176.032,439.822 "/>
<polyline style="fill:#B2446D;" points="176.032,264.308 215.497,264.308 215.497,439.822 176.032,439.822 "/>
<g>
	<rect x="176.032" y="296.503" style="fill:#FFFFFF;" width="64.389" height="15.578"/>
	<rect x="223.805" y="408.665" style="fill:#FFFFFF;" width="16.617" height="15.578"/>
	<rect x="199.919" y="408.665" style="fill:#FFFFFF;" width="15.578" height="15.578"/>
	<rect x="176.032" y="408.665" style="fill:#FFFFFF;" width="15.578" height="15.578"/>
	<rect x="312.081" y="359.854" style="fill:#FFFFFF;" width="23.886" height="15.578"/>
</g>
<path d="M303.773,31.675h-7.956V0h-79.633v31.675h-7.956v15.578h95.546V31.675z M280.238,31.675h-48.477V15.578h48.477V31.675z"/>
<path d="M288.401,96.083h-0.592V55.83h-15.578v55.831h16.17c21.989,0,39.877,17.889,39.877,39.877v177.16h-40.083V448.13h40.085
	v28.854c0,10.718-8.72,19.438-19.438,19.438H203.159c-10.718,0-19.438-8.72-19.438-19.438V448.13h87.857V256h-87.857V151.537
	c0-21.989,17.889-39.877,39.877-39.877h16.17V55.83H224.19v40.253h-0.592c-30.578,0-55.455,24.877-55.455,55.455v325.446
	c0,19.309,15.708,35.016,35.016,35.016h105.682c19.309,0,35.016-15.708,35.016-35.016V151.537
	C343.857,120.96,318.98,96.083,288.401,96.083z M256,271.578v160.974h-72.279v-81.006h24.506v-15.578h-24.506v-64.389H256z
	 M303.773,432.552v-88.276h24.506v40.503h-7.89v15.578h7.89v8.308h-7.89v15.578h7.89v8.308H303.773z"/>
<g>
</g>
<g>
</g>
<g>
</g>
<g>
</g>
<g>
</g>
<g>
</g>
<g>
</g>
<g>
</g>
<g>
</g>
<g>
</g>
<g>
</g>
<g>
</g>
<g>
</g>
<g>
</g>
<g>
</g>
</svg>
