<?xml version="1.0" encoding="iso-8859-1"?>
<!-- Generator: Adobe Illustrator 19.0.0, SVG Export Plug-In . SVG Version: 6.00 Build 0)  -->
<svg version="1.1" id="Layer_1" xmlns="http://www.w3.org/2000/svg" xmlns:xlink="http://www.w3.org/1999/xlink" x="0px" y="0px"
	 viewBox="0 0 512 512" style="enable-background:new 0 0 512 512;" xml:space="preserve">
<path style="fill:#FFFFFF;" d="M367.995,7.811v183.993c0,61.854-50.142,111.996-111.996,111.996l0,0
	c-61.854,0-111.996-50.142-111.996-111.996V7.811H367.995z"/>
<path style="fill:#F2F2F2;" d="M296.847,7.923v183.882c0,49.244-32.252,90.969-76.422,105.975
	c11.311,3.842,23.533,6.021,36.144,6.021c61.854,0,112.141-50.143,112.141-111.996V7.923H296.847z"/>
<g>
	<path style="fill:#BDCCD4;" d="M255.971,455.795c0,17.673-13.28,31.999-32.027,31.999v15.874h64.572v-15.874
		c-18.747,0-32.272-14.327-32.272-31.999"/>
	<circle style="fill:#BDCCD4;" cx="255.995" cy="327.796" r="23.996"/>
</g>
<g>
	<circle style="fill:#FF0000;" cx="255.995" cy="367.799" r="15.999"/>
	<path style="fill:#FF0000;" d="M343.996,191.805c0,49.148-40.292,88.885-89.646,87.981c-48.443-0.886-86.348-42.449-86.348-90.901
		v-77.079l7.162,2.387c10.996,3.665,22.809,4.119,34.054,1.308l0,0c9.705-2.427,19.858-2.427,29.562,0l2.436,0.609
		c9.705,2.427,19.858,2.427,29.562,0l2.436-0.609c9.705-2.427,19.858-2.427,29.562,0l0,0c11.245,2.811,23.058,2.358,34.054-1.308
		l7.162-2.387v79.998H343.996z"/>
</g>
<path style="fill:#FF3333;" d="M337.214,114.194c-10.996,3.665-22.574,4.119-33.819,1.307c-2.239-0.559-4.464-0.957-6.547-1.26
	v77.562c0,40.146-27.319,73.986-64.067,84.553c7.012,2.032,14.517,3.289,22.162,3.429c49.354,0.903,89.813-38.834,89.813-87.981
	v-79.997L337.214,114.194z"/>
<path d="M136.192,0v191.805c0,57.298,40.435,105.321,94.266,117.057c-3.936,5.294-6.269,11.848-6.269,18.937
	c0,10.462,5.077,19.757,12.897,25.559c-3.068,4.009-4.896,9.014-4.896,14.441c0,10.286,6.557,19.069,15.71,22.39v57.24h15.622
	v-57.043c9.454-3.156,16.29-12.085,16.29-22.587c0-5.426-1.829-10.433-4.896-14.441c7.818-5.801,12.896-15.097,12.896-25.559
	c0-7.089-2.333-13.643-6.269-18.937c53.831-11.736,94.266-59.759,94.266-117.057V0H136.192z M255.999,375.988
	c-4.515,0-8.188-3.673-8.188-8.188c0-4.515,3.673-8.188,8.188-8.188s8.188,3.673,8.188,8.188
	C264.187,372.314,260.514,375.988,255.999,375.988z M272.187,327.799c0,8.927-7.262,16.189-16.188,16.189
	c-8.927,0-16.188-7.262-16.188-16.189c0-8.926,7.262-16.188,16.188-16.188C264.924,311.612,272.187,318.874,272.187,327.799z
	 M360.184,191.805c0,57.447-46.738,104.185-104.185,104.185c-57.448,0-104.185-46.738-104.185-104.185V15.622h208.369V191.805z"/>
<path d="M295.805,479.714h-7.811c-12.059,0-22.084-8.515-23.895-20.156c0.114-1.248,0.174-2.514,0.174-3.798h-0.468h-15.154h-0.468
	c0,1.285,0.06,2.552,0.174,3.799c-1.811,11.64-11.835,20.155-23.895,20.155h-7.811v16.664h-24.996V512h129.144v-15.622h-24.996
	V479.714z M280.183,496.378h-47.908v-1.543c9.724-1.945,18.18-7.307,23.954-14.891c5.774,7.584,14.23,12.946,23.954,14.891V496.378z
	"/>
<path d="M256.018,287.613c-0.603,0-1.205-0.005-1.81-0.017c-51.841-0.949-94.017-45.231-94.017-98.71v-87.918l17.445,5.816
	c9.602,3.2,19.868,3.595,29.69,1.14c10.91-2.729,22.442-2.728,33.351,0l2.436,0.609c8.43,2.108,17.343,2.106,25.774,0l2.436-0.609
	c10.912-2.728,22.443-2.728,33.351,0c9.82,2.457,20.087,2.061,29.69-1.14l17.444-5.816v90.836c0,25.924-10.188,50.203-28.688,68.368
	C305.055,277.908,281.287,287.613,256.018,287.613z M175.813,122.564v66.324c0,45.022,35.296,82.296,78.681,83.089
	c21.724,0.395,42.202-7.753,57.681-22.951c15.483-15.204,24.01-35.524,24.01-57.22v-69.241c-11.516,3.244-23.65,3.431-35.301,0.518
	c-8.43-2.109-17.343-2.109-25.773,0l-2.437,0.609c-10.91,2.727-22.442,2.727-33.351,0l-2.437-0.61
	c-8.43-2.107-17.343-2.108-25.773,0.001C199.462,125.994,187.326,125.807,175.813,122.564z"/>
<path style="fill:#FFFFFF;" d="M263.52,255.614v-15.622c22.913,0,40.666-17.523,40.666-40.436h15.622
	C319.807,230.8,294.764,255.614,263.52,255.614z"/>
<rect x="167.708" y="24.586" width="80.194" height="15.622"/>
<rect x="264.566" y="24.586" width="23.954" height="15.622"/>
<g>
</g>
<g>
</g>
<g>
</g>
<g>
</g>
<g>
</g>
<g>
</g>
<g>
</g>
<g>
</g>
<g>
</g>
<g>
</g>
<g>
</g>
<g>
</g>
<g>
</g>
<g>
</g>
<g>
</g>
</svg>
