<?xml version="1.0" encoding="iso-8859-1"?>
<!-- Generator: Adobe Illustrator 19.0.0, SVG Export Plug-In . SVG Version: 6.00 Build 0)  -->
<svg version="1.1" id="Layer_1" xmlns="http://www.w3.org/2000/svg" xmlns:xlink="http://www.w3.org/1999/xlink" x="0px" y="0px"
	 viewBox="0 0 511.999 511.999" style="enable-background:new 0 0 511.999 511.999;" xml:space="preserve">
<path style="fill:#BDCCD4;" d="M383.103,7.815c39.888,35.209,65.046,86.72,65.046,144.107c0,106.12-86.028,192.148-192.148,192.148
	S63.851,258.043,63.851,151.922c0-56.907,24.738-108.036,64.048-143.22L383.103,7.815z"/>
<path style="fill:#D7E0E5;" d="M383.103,7.814l-51.02,0.178c22.631,31.523,36.004,70.14,36.004,111.905
	c0,106.122-86.028,192.148-192.148,192.148c-9.999,0-19.82-0.768-29.408-2.24c31.066,21.582,68.777,34.265,109.47,34.265
	c106.12,0,192.148-86.028,192.148-192.148C448.148,94.535,422.99,43.023,383.103,7.814z"/>
<path style="fill:#BDCCD4;" d="M255.999,432.139c0,26.53-21.507,48.038-48.038,48.038h-32.024
	c-13.265,0-24.019,10.754-24.019,24.019l0,0h208.185v-0.024c-0.014-13.256-10.762-23.995-24.019-23.995h-32.048
	c-26.53,0-47.823-21.507-47.823-48.038"/>
<g>
	<circle style="fill:#FBB03B;" cx="260.001" cy="59.847" r="12.009"/>
	<circle style="fill:#FBB03B;" cx="175.939" cy="151.922" r="80.062"/>
</g>
<g>
	<circle style="fill:#AE7418;" cx="143.908" cy="135.906" r="16.012"/>
	<path style="fill:#AE7418;" d="M135.906,159.928c0-42.595,33.291-77.323,75.258-79.82c-10.641-5.23-22.568-8.249-35.227-8.249
		c-44.216,0-80.062,35.845-80.062,80.062c0,44.216,35.846,80.062,80.062,80.062c1.622,0,3.206-0.148,4.805-0.242
		C154.212,218.7,135.906,191.486,135.906,159.928z"/>
	<path style="fill:#AE7418;" d="M416.123,151.922c0-44.217-35.845-80.062-80.062-80.062s-80.062,35.845-80.062,80.062
		s-35.845,80.062-80.062,80.062s-80.062-35.845-80.062-80.062c0,88.434,71.69,160.124,160.124,160.124
		S416.123,240.357,416.123,151.922z"/>
</g>
<g>
	<path style="fill:#FBB03B;" d="M125.089,243.945c1.827,2.594,3.72,5.139,5.695,7.617c14.686,17.389,36.623,28.459,61.166,28.459
		c44.216,0,80.062-35.846,80.062-80.062c0-44.217,35.915-80.062,80.132-80.062c26.229,0,47.462,12.67,64.112,32.162
		c0-0.047,0-0.091,0-0.136c0-44.217-35.912-80.062-80.129-80.062s-80.095,35.845-80.095,80.062
		c0,44.216-35.862,80.062-80.079,80.062c-41.454,0-75.556-31.505-79.657-71.876c1.205,23.77,7.465,46.18,17.93,66.108"/>
	<path style="fill:#FBB03B;" d="M96.289,160.108c-0.138-2.729-0.413-5.422-0.413-8.186
		C95.875,154.686,96.015,157.416,96.289,160.108z"/>
</g>
<path d="M367.907,504.164c-0.017-17.531-14.291-31.793-31.823-31.793h-32.049c-22.183,0-40.232-18.049-40.232-40.232h-15.609
	c0,22.183-18.049,40.232-40.232,40.232h-32.024c-17.547,0-31.824,14.276-31.824,31.824v7.805h215.989l7.812-0.023L367.907,504.164z
	 M161.729,496.391c2.762-5.009,8.095-8.409,14.209-8.409h32.024c20.408,0,38.294-11.005,48.037-27.392
	c9.742,16.387,27.629,27.392,48.037,27.392h32.049c6.108,0,11.441,3.399,14.205,8.409H161.729z"/>
<path d="M455.953,151.922c0-57.333-24.67-111.99-67.686-149.959L386.043,0L124.904,0.907l-2.211,1.978
	C80.338,40.797,56.046,95.118,56.046,151.922c0,107.62,85.467,195.639,192.089,199.785l0.072,72.888l15.609-0.017l-0.072-72.867
	C370.423,347.626,455.953,259.582,455.953,151.922z M255.999,336.267c-101.648,0-184.344-82.697-184.344-184.344
	c0-51.388,21.568-100.575,59.272-135.426l249.2-0.867c38.307,34.913,60.216,84.416,60.216,136.293
	C440.344,253.57,357.647,336.267,255.999,336.267z"/>
<path d="M336.061,64.058c-35.538,0-66.192,21.222-80.02,51.646c-13.787-30.572-44.494-51.629-80.103-51.629
	c-48.451,0-87.868,38.957-87.868,87.867c0,92.616,75.333,167.919,167.929,167.919s167.929-75.336,167.929-167.932
	C423.928,103.478,384.512,64.058,336.061,64.058z M175.938,79.684c39.841,0,72.253,32.709,72.256,72.25
	c-0.004,39.84-32.417,72.255-72.256,72.255c-39.843,0-72.258-32.704-72.258-72.248S136.095,79.684,175.938,79.684z M255.999,304.241
	c-59.922,0-111.873-34.783-136.728-85.215c15.31,12.947,35.093,20.763,56.665,20.763c48.442,0,87.855-39.407,87.866-87.848l0,0
	v-0.009v-0.009c0-39.843,32.414-72.257,72.257-72.257s72.258,32.414,72.258,72.257C408.318,235.911,339.988,304.241,255.999,304.241
	z"/>
<path d="M143.913,159.727c-13.133,0-23.818-10.684-23.818-23.817s10.685-23.818,23.818-23.818c13.133,0,23.817,10.685,23.817,23.818
	C167.729,149.042,157.046,159.727,143.913,159.727z M143.913,127.702c-4.527,0-8.209,3.682-8.209,8.209
	c0,4.526,3.682,8.207,8.209,8.207c4.526,0,8.207-3.682,8.207-8.207C152.12,131.384,148.438,127.702,143.913,127.702z"/>
<path d="M260.002,79.666c-10.926,0-19.814-8.889-19.814-19.815s8.888-19.814,19.814-19.814c10.926,0,19.814,8.888,19.814,19.814
	S270.928,79.666,260.002,79.666z M260.002,55.647c-2.319,0-4.204,1.887-4.204,4.204c0,2.32,1.887,4.205,4.204,4.205
	c2.318,0,4.204-1.887,4.204-4.205S262.321,55.647,260.002,55.647z"/>
<g>
	<rect x="127.997" y="32.27" style="fill:#FFFFFF;" width="56.194" height="15.609"/>
	<rect x="199.801" y="32.27" style="fill:#FFFFFF;" width="23.935" height="15.609"/>
</g>
<g>
</g>
<g>
</g>
<g>
</g>
<g>
</g>
<g>
</g>
<g>
</g>
<g>
</g>
<g>
</g>
<g>
</g>
<g>
</g>
<g>
</g>
<g>
</g>
<g>
</g>
<g>
</g>
<g>
</g>
</svg>
