<?xml version="1.0"?>
<svg xmlns="http://www.w3.org/2000/svg" xmlns:xlink="http://www.w3.org/1999/xlink" version="1.1" id="Capa_1" x="0px" y="0px" viewBox="0 0 512 512" style="enable-background:new 0 0 512 512;" xml:space="preserve" width="512px" height="512px" class=""><g><g>
	<g>
		<rect x="459.233" y="348.108" width="15.673" height="15.673" data-original="#000000" class="active-path" data-old_color="#00A8FF" fill="#96E5FC"/>
	</g>
</g><g>
	<g>
		<rect x="459.233" y="379.455" width="15.673" height="15.673" data-original="#000000" class="active-path" data-old_color="#00A8FF" fill="#96E5FC"/>
	</g>
</g><g>
	<g>
		<rect x="184.947" y="398.263" width="41.796" height="15.673" data-original="#000000" class="active-path" data-old_color="#00A8FF" fill="#96E5FC"/>
	</g>
</g><g>
	<g>
		<rect x="281.6" y="108.304" width="15.674" height="15.673" data-original="#000000" class="active-path" data-old_color="#00A8FF" fill="#96E5FC"/>
	</g>
</g><g>
	<g>
		<rect x="273.763" y="379.455" width="41.796" height="15.673" data-original="#000000" class="active-path" data-old_color="#00A8FF" fill="#96E5FC"/>
	</g>
</g><g>
	<g>
		<rect x="273.763" y="359.08" width="41.796" height="15.673" data-original="#000000" class="active-path" data-old_color="#00A8FF" fill="#96E5FC"/>
	</g>
</g><g>
	<g>
		<rect x="216.294" y="301.61" width="15.673" height="15.673" data-original="#000000" class="active-path" data-old_color="#00A8FF" fill="#96E5FC"/>
	</g>
</g><g>
	<g>
		<rect x="119.118" y="327.733" width="15.674" height="15.673" data-original="#000000" class="active-path" data-old_color="#00A8FF" fill="#96E5FC"/>
	</g>
</g><g>
	<g>
		<rect x="332.278" y="426.998" width="15.674" height="15.673" data-original="#000000" class="active-path" data-old_color="#00A8FF" fill="#96E5FC"/>
	</g>
</g><g>
	<g>
		<path d="M171.886,228.466v67.918h67.918v-67.918H171.886z M224.131,280.711h-36.571V244.14h36.571V280.711z" data-original="#000000" class="active-path" data-old_color="#00A8FF" fill="#96E5FC"/>
	</g>
</g><g>
	<g>
		<path d="M104.49,400.875c-12.964,0-23.51,10.547-23.51,23.51c0,12.963,10.546,23.51,23.51,23.51S128,437.348,128,424.385    C128,411.422,117.454,400.875,104.49,400.875z M104.49,432.222c-4.322,0-7.837-3.515-7.837-7.837c0-4.322,3.515-7.837,7.837-7.837    s7.837,3.515,7.837,7.837C112.327,428.706,108.812,432.222,104.49,432.222z" data-original="#000000" class="active-path" data-old_color="#00A8FF" fill="#96E5FC"/>
	</g>
</g><g>
	<g>
		<path d="M410.122,400.875c-12.964,0-23.51,10.547-23.51,23.51c0,12.963,10.546,23.51,23.51,23.51s23.51-10.547,23.51-23.51    C433.633,411.422,423.086,400.875,410.122,400.875z M410.122,432.222c-4.322,0-7.837-3.515-7.837-7.837    c0-4.322,3.515-7.837,7.837-7.837c4.322,0,7.837,3.515,7.837,7.837C417.959,428.706,414.444,432.222,410.122,432.222z" data-original="#000000" class="active-path" data-old_color="#00A8FF" fill="#96E5FC"/>
	</g>
</g><g>
	<g>
		<path d="M105.084,221.152l-26.742,90.906h64.286v-90.906H105.084z M126.955,296.385H99.29l17.52-59.559h10.145V296.385z" data-original="#000000" class="active-path" data-old_color="#00A8FF" fill="#96E5FC"/>
	</g>
</g><g>
	<g>
		<path d="M472.816,165.773H368.894c11.134-39.753,8.685-81.815-7.359-120.55l-2.999-7.24l-40.817,16.905l2.999,7.241    c0.506,1.219,0.989,2.445,1.459,3.673L221.5,116.14l60.623,30.311v19.322h-175.02c-21.606,0-39.184,17.577-39.184,39.184v7.837    h13.036l-27.738,94.309L0,352.87v89.801h58.363c7.298,18.341,25.216,31.347,46.127,31.347s38.829-13.006,46.127-31.347h0.371    h165.616v-15.674h-55.902v-5.224h99.857c-0.045,0.865-0.069,1.736-0.069,2.612c0,27.367,22.266,49.633,49.633,49.633    c20.911,0,38.829-13.006,46.127-31.347H512V212.793v-7.837C512,183.351,494.423,165.773,472.816,165.773z M338.021,63.445    l11.868-4.915c13.56,37.428,13.56,77.794,0,115.222l-11.868-4.915C350.286,134.582,350.286,97.699,338.021,63.445z     M256.547,116.14l70.465-35.232c6.024,23.172,6.024,47.293,0,70.465L256.547,116.14z M54.926,426.997H15.673v-5.224h39.253    c-0.045,0.865-0.069,1.736-0.069,2.612C54.857,425.261,54.881,426.132,54.926,426.997z M104.49,458.344    c-18.725,0-33.959-15.234-33.959-33.959c0-18.726,15.235-33.959,33.959-33.959s33.959,15.234,33.959,33.959    C138.449,443.11,123.214,458.344,104.49,458.344z M150.988,407.038c-7.051-18.837-25.231-32.286-46.498-32.286    c-20.911,0-38.829,13.006-46.127,31.347H15.673v-15.673h18.286v-15.673H15.673v-14.689l51.273-44.095l30.345-103.175h53.696    V407.038z M245.029,426.997h-54.857h-23.51v-41.796h78.367V426.997z M245.029,369.528h-78.367V212.793h78.367V369.528z     M85.565,197.119h-0.63c3.234-9.122,11.95-15.673,22.167-15.673h198.05v-15.673h-7.356v-11.486l24.381,12.19    c-0.47,1.228-0.953,2.453-1.459,3.674l-2.999,7.241l40.817,16.905l2.999-7.24c0.771-1.862,1.499-3.734,2.208-5.611h109.074    c10.217,0,18.934,6.552,22.167,15.673H85.565z M410.122,458.344c-18.725,0-33.959-15.234-33.959-33.959    c0-18.726,15.235-33.959,33.959-33.959c18.725,0,33.959,15.234,33.959,33.959C444.082,443.11,428.847,458.344,410.122,458.344z     M496.327,426.997h-36.641c0.045-0.865,0.07-1.736,0.07-2.612c0-0.877-0.024-1.747-0.07-2.612h36.641V426.997z M496.327,406.099    h-40.077c-7.298-18.341-25.216-31.347-46.127-31.347c-20.91,0-38.829,13.006-46.127,31.347H260.702V212.793h193.306v104.49h42.318    V406.099z M496.327,301.609h-26.645V291.16h26.645V301.609z M496.327,275.487h-26.645v-10.449h26.645V275.487z M496.327,249.364    h-26.645v-10.449h26.645V249.364z M496.327,223.242h-26.645v-10.449h26.645V223.242z" data-original="#000000" class="active-path" data-old_color="#00A8FF" fill="#96E5FC"/>
	</g>
</g><g>
	<g>
		<path d="M420.049,228.466H294.661c-15.845,0-28.735,12.891-28.735,28.735v80.98h182.857v-80.98    C448.784,241.357,435.894,228.466,420.049,228.466z M365.192,244.14h54.857c6.308,0,11.585,4.494,12.798,10.449h-67.655V244.14z     M349.518,322.507H281.6v-52.245h67.918V322.507z M349.518,254.589h-67.655c1.213-5.955,6.49-10.449,12.798-10.449h54.857V254.589    z M433.11,322.507h-67.918v-52.245h67.918V322.507z" data-original="#000000" class="active-path" data-old_color="#00A8FF" fill="#96E5FC"/>
	</g>
</g><g>
	<g>
		<rect x="309.812" y="123.978" width="15.673" height="15.673" data-original="#000000" class="active-path" data-old_color="#00A8FF" fill="#96E5FC"/>
	</g>
</g><g>
	<g>
		<rect x="309.812" y="92.631" width="15.673" height="15.674" data-original="#000000" class="active-path" data-old_color="#00A8FF" fill="#96E5FC"/>
	</g>
</g></g> </svg>
